<?xml version="1.0" standalone="no"?>
<!DOCTYPE svg PUBLIC "-//W3C//DTD SVG 20010904//EN"
 "http://www.w3.org/TR/2001/REC-SVG-20010904/DTD/svg10.dtd">
<svg version="1.0" xmlns="http://www.w3.org/2000/svg"
 width="126.000000pt" height="126.000000pt" viewBox="0 0 126.000000 126.000000"
 preserveAspectRatio="xMidYMid meet">
<metadata>
Created by potrace 1.11, written by Peter Selinger 2001-2013
</metadata>
<g transform="translate(0.000000,126.000000) scale(0.100000,-0.100000)"
fill="#000000" stroke="none">
<path d="M844 1245 c-81 -42 -67 -159 21 -184 120 -33 213 75 138 159 -35 38
-110 50 -159 25z"/>
<path d="M472 1040 c-154 -43 -242 -129 -242 -239 0 -118 133 -227 302 -247
l49 -6 -20 39 c-62 119 -67 276 -13 410 9 24 20 43 25 43 4 0 7 4 7 10 0 13
-37 9 -108 -10z"/>
<path d="M663 1022 c36 -57 52 -128 51 -227 -1 -94 -26 -189 -60 -226 -16 -18
-16 -19 12 -19 16 0 53 7 81 14 185 49 282 171 239 298 -34 97 -156 175 -301
192 l-45 6 23 -38z"/>
<path d="M302 476 c-71 -81 -63 -200 17 -240 44 -23 81 -27 257 -28 182 -1
217 -7 240 -44 18 -26 13 -82 -12 -128 -12 -25 -12 -27 2 -22 9 3 44 24 78 47
93 61 136 133 130 216 -3 48 -22 89 -53 117 -37 33 -105 43 -322 44 -222 1
-260 9 -274 52 -9 29 -29 25 -63 -14z"/>
</g>
</svg>
