<?xml version="1.0" encoding="utf-8"?>
<!-- Generator: Adobe Illustrator 23.0.2, SVG Export Plug-In . SVG Version: 6.00 Build 0)  -->
<svg version="1.1" id="Layer_1" xmlns="http://www.w3.org/2000/svg" xmlns:xlink="http://www.w3.org/1999/xlink" x="0px" y="0px"
	 viewBox="0 0 500 500" style="enable-background:new 0 0 500 500;" xml:space="preserve">
<style type="text/css">
	.st0{fill:url(#SVGID_1_);}
	.st1{fill:url(#SVGID_2_);}
	.st2{fill:url(#SVGID_3_);}
	.st3{fill:none;}
	.st4{fill:none;stroke:#000000;stroke-width:2.1539;stroke-miterlimit:10;}
	.st5{fill:none;stroke:#CC0000;stroke-width:2.1951;stroke-miterlimit:10;}
</style>
<linearGradient id="SVGID_1_" gradientUnits="userSpaceOnUse" x1="-15882" y1="-15073.3574" x2="-15382" y2="-15073.3574" gradientTransform="matrix(1 0 0 1 15882 15323.3574)">
	<stop  offset="0" style="stop-color:#696B6C"/>
	<stop  offset="1" style="stop-color:#F2F2F2"/>
</linearGradient>
<polygon class="st0" points="0,500 500,500 500,0 0,0 "/>
<g>
	<g>
		<path d="M65.6,286.3v44.4c1.1,0.7,2.1,1.2,3.1,1.5c1,0.3,1.9,0.5,2.8,0.5c2.2,0,4-0.7,5.5-2.2c1.5-1.5,2.7-3.4,3.7-5.7
			c1-2.3,1.6-4.9,2.1-7.8c0.4-2.9,0.6-5.7,0.6-8.5c0-4.8-0.4-8.8-1.1-12.2c-0.7-3.4-1.9-6.1-3.5-8.3c-1.6-2.2-3.7-3.7-6.3-4.7
			c-2.6-1-5.7-1.5-9.4-1.5c-2.5,0-5,0.4-7.3,1.1c-2.3,0.7-4.3,1.8-6.1,3.1c-1.7,1.4-3.1,3-4.2,5c-1,2-1.6,4.2-1.6,6.7
			c0,1.5,0.2,2.7,0.5,3.8c0.4,1,0.8,1.9,1.3,2.5c0.5,0.7,1,1.2,1.5,1.6c0.5,0.4,1,0.7,1.3,0.9c-3.4,0-6.1-0.7-8.1-2.2
			c-2-1.4-3-3.8-3-7.2c0-2.4,0.7-4.6,2-6.8c1.4-2.2,3.2-4.1,5.6-5.8c2.4-1.6,5.2-3,8.5-4c3.2-1,6.8-1.5,10.6-1.5
			c5.4,0,10,0.8,13.7,2.5c3.7,1.7,6.7,3.9,9,6.6c2.3,2.7,4,5.9,5,9.4s1.5,7.2,1.5,10.9c0,3.6-0.4,7.2-1.2,10.7
			c-0.8,3.5-1.9,6.6-3.4,9.3c-1.4,2.7-3.1,5-5.1,6.6c-2,1.7-4.1,2.5-6.5,2.5c-1.7,0-3.5-0.4-5.4-1.1c-1.9-0.7-4-1.8-6.2-3.4v3.5
			h-9.2v-49.2L65.6,286.3z"/>
		<path d="M205.9,328.6c0-0.3-0.1-0.7-0.1-1c-1.1,1.4-2.4,2.4-4,2.9c-1.6,0.6-3.3,0.8-5.1,0.8c-1.2,0-2.3-0.1-3.4-0.4
			c-1.1-0.3-2.1-0.8-2.9-1.5c-0.8-0.7-1.6-1.8-2.2-3c-0.6-1.3-1-2.9-1.2-5c5.7-0.6,10.2-2,13.5-4.5c3.2-2.4,4.9-5.4,4.9-9
			c0-2.1-0.3-3.7-1-5c-0.6-1.3-1.5-2.3-2.6-3c-1.1-0.7-2.3-1.3-3.6-1.5c-1.3-0.3-2.7-0.4-4.1-0.4c-3,0-5.6,0.7-7.6,2.2
			c-2.1,1.4-3.7,3.2-5,5.4c-1.3,2.2-2.2,4.5-2.7,7c-0.5,2.5-0.8,4.8-0.8,7c0,2,0.2,3.8,0.5,5.4c-1.3,4.4-3.2,6.5-5.6,6.5
			c-0.9,0-1.6-0.3-2.1-0.8c-0.5-0.5-0.9-1.2-1.1-1.9c-0.3-0.7-0.4-1.5-0.5-2.3c-0.1-0.8-0.1-1.4-0.1-1.9v-41.5l-8.4,1.1v17.9
			c-0.4-0.8-0.9-1.4-1.5-1.9c-0.6-0.5-1.3-0.9-2-1.2s-1.4-0.5-2.2-0.6c-0.8-0.1-1.5-0.2-2.2-0.2c-2.9,0-5.3,0.7-7.4,2.1
			c-2,1.4-3.7,3.1-5,5.2c-1.3,2.1-2.2,4.4-2.8,7c-0.6,2.6-0.9,5-0.9,7.4c0,2.2,0.2,4.1,0.6,5.8c-1.3,4-3.1,5.9-5.4,5.9
			c-0.9,0-1.6-0.3-2.1-0.8c-0.5-0.5-0.9-1.2-1.1-1.9c-0.3-0.7-0.4-1.5-0.5-2.3c-0.1-0.8-0.1-1.4-0.1-1.9v-26.1h-8.4v24.7
			c0,1.3-0.2,2.5-0.6,3.5c-0.4,1-0.9,1.9-1.5,2.6c-0.6,0.7-1.3,1.3-2.1,1.6c-0.8,0.4-1.6,0.6-2.4,0.6c-1.5,0-2.7-0.5-3.6-1.6
			c-1-1.1-1.4-2.8-1.4-5.3v-26.1h-8.5v27c0,2.2,0.3,4.1,0.9,5.6c0.6,1.5,1.5,2.7,2.5,3.7c1.1,0.9,2.3,1.6,3.8,2
			c1.5,0.4,3,0.6,4.6,0.6c1.9,0,3.7-0.6,5.5-1.7c1.7-1.1,3.2-3,4.2-5.5c0.2,0.9,0.5,1.8,0.9,2.7c0.4,0.9,0.9,1.6,1.6,2.3
			c0.6,0.7,1.4,1.2,2.4,1.6c0.9,0.4,2,0.6,3.3,0.6c0.9,0,1.9-0.1,3-0.4c1.1-0.3,2.2-0.9,3.3-1.9c1.1-1,2.1-2.4,3-4.3
			c0.1-0.2,0.2-0.4,0.3-0.6c0.7,1.3,1.5,2.3,2.4,3.2c1.4,1.4,2.9,2.4,4.6,3c1.7,0.6,3.4,0.9,5.1,0.9c2.7,0,5-0.7,6.9-2.2
			c1.9-1.4,3.3-3.1,4.1-5.1c0.2,1,0.5,1.9,0.9,2.8c0.4,0.9,0.9,1.6,1.6,2.3c0.6,0.7,1.4,1.2,2.4,1.6c0.9,0.4,2,0.6,3.3,0.6
			c0.9,0,1.9-0.1,3-0.4c1.1-0.3,2.2-0.9,3.3-1.9c1.1-1,2.1-2.4,3-4.3c0.2-0.4,0.4-0.8,0.5-1.2c0.8,1.5,1.8,2.7,2.9,3.7
			c1.6,1.4,3.3,2.4,5.2,3.1c1.9,0.6,3.8,1,5.7,1c1.6,0,3.1-0.2,4.5-0.5c1.4-0.4,2.7-0.9,3.8-1.6c1.1-0.7,2-1.5,2.6-2.4
			c0.6-0.9,1-2,1-3.1C205.9,329.2,205.9,328.9,205.9,328.6z M160.5,322.9c0,1.2-0.2,2.3-0.7,3.3c-0.5,1-1,1.9-1.7,2.7
			c-0.7,0.8-1.5,1.3-2.4,1.8c-0.9,0.4-1.7,0.7-2.6,0.7c-2.5,0-4.4-0.9-5.7-2.9c-1.3-1.9-2-5.1-2-9.5c0-1.8,0.2-3.7,0.5-5.7
			s0.9-3.8,1.7-5.5c0.8-1.7,1.8-3,3.1-4.2c1.3-1.1,2.8-1.7,4.6-1.7c1.3,0,2.4,0.3,3.2,1c0.8,0.7,1.4,1.5,1.8,2.3V322.9z
			 M187.4,312.5c0.4-2,0.9-3.8,1.6-5.4c0.7-1.6,1.6-2.9,2.7-4c1.1-1,2.4-1.5,3.8-1.5c1.3,0,2.4,0.4,3.1,1.3c0.7,0.8,1.1,2.2,1.1,4.2
			c0,2.9-1.2,5.4-3.5,7.4c-2.3,2-5.5,3.3-9.5,3.8C186.8,316.4,187,314.5,187.4,312.5z"/>
		<path d="M255.7,286.3v44.4c1.1,0.7,2.1,1.2,3.1,1.5c1,0.3,1.9,0.5,2.8,0.5c2.2,0,4-0.7,5.5-2.2c1.5-1.5,2.7-3.4,3.7-5.7
			c1-2.3,1.6-4.9,2.1-7.8c0.4-2.9,0.6-5.7,0.6-8.5c0-4.8-0.4-8.8-1.1-12.2c-0.7-3.4-1.9-6.1-3.5-8.3c-1.6-2.2-3.7-3.7-6.3-4.7
			c-2.6-1-5.7-1.5-9.4-1.5c-2.5,0-5,0.4-7.3,1.1c-2.3,0.7-4.3,1.8-6.1,3.1c-1.7,1.4-3.1,3-4.2,5c-1,2-1.6,4.2-1.6,6.7
			c0,1.5,0.2,2.7,0.5,3.8c0.4,1,0.8,1.9,1.3,2.5c0.5,0.7,1,1.2,1.5,1.6c0.5,0.4,1,0.7,1.3,0.9c-3.4,0-6.1-0.7-8.1-2.2
			c-2-1.4-3-3.8-3-7.2c0-2.4,0.7-4.6,2-6.8c1.4-2.2,3.2-4.1,5.6-5.8c2.4-1.6,5.2-3,8.5-4c3.2-1,6.8-1.5,10.6-1.5
			c5.4,0,10,0.8,13.7,2.5c3.7,1.7,6.7,3.9,9,6.6c2.3,2.7,4,5.9,5,9.4s1.5,7.2,1.5,10.9c0,3.6-0.4,7.2-1.2,10.7
			c-0.8,3.5-1.9,6.6-3.4,9.3c-1.4,2.7-3.1,5-5.1,6.6c-2,1.7-4.1,2.5-6.5,2.5c-1.7,0-3.5-0.4-5.4-1.1c-1.9-0.7-4-1.8-6.2-3.4v3.5
			h-9.2v-49.2L255.7,286.3z"/>
		<path d="M297.6,283.6c-1.1-1-2.4-1.5-4-1.5c-1.6,0-2.9,0.5-4,1.5c-1.1,1-1.6,2.2-1.6,3.6c0,1.4,0.5,2.6,1.6,3.6
			c1.1,1,2.4,1.5,4,1.5c1.5,0,2.8-0.5,4-1.5c1.1-1,1.7-2.2,1.7-3.6C299.3,285.8,298.7,284.6,297.6,283.6z"/>
		<path d="M440.5,299.2c-0.9-0.9-2.3-1.3-4.2-1.3c-1.2,0-2.2,0.2-3.2,0.6c-1,0.4-1.8,0.9-2.6,1.5c-0.8,0.6-1.5,1.3-2.2,2.2
			c-0.6,0.8-1.3,1.7-2,2.6v-6.5h-8.4v24.8c-1.5,2.9-3.3,5-5.7,6.3c-2.4,1.3-4.9,1.9-7.6,1.9c-1.2,0-2.3-0.1-3.4-0.4
			c-1.1-0.3-2.1-0.8-2.9-1.5c-0.8-0.7-1.6-1.8-2.2-3c-0.6-1.3-1-2.9-1.2-5c5.7-0.6,10.2-2,13.5-4.5c3.2-2.4,4.9-5.4,4.9-9
			c0-2.1-0.3-3.7-1-5c-0.6-1.3-1.5-2.3-2.6-3s-2.3-1.3-3.6-1.5c-1.3-0.3-2.7-0.4-4.1-0.4c-3,0-5.6,0.7-7.6,2.2
			c-2.1,1.4-3.7,3.2-5,5.4c-1.3,2.2-2.2,4.5-2.7,7c-0.5,2.5-0.8,4.8-0.8,7c0,2,0.2,3.8,0.5,5.5c0,0,0,0,0,0
			c-0.6,1.9-1.3,3.4-2.1,4.4c-1,1.3-2.2,2-3.5,2c-1,0-1.7-0.3-2.2-0.8c-0.5-0.5-0.9-1.2-1.1-1.9c-0.2-0.7-0.4-1.4-0.4-2.2
			c-0.1-0.7-0.1-1.3-0.1-1.7c0-1,0-2,0.1-3.2c0-1.1,0.1-2.3,0.2-3.5c0.1-1.2,0.1-2.3,0.2-3.4c0-1.1,0.1-2.1,0.1-3
			c0-1.5-0.1-3-0.4-4.6c-0.3-1.6-0.8-3.1-1.6-4.5c-0.8-1.4-2-2.5-3.5-3.3c-1.6-0.9-3.6-1.3-6.1-1.3c-0.7,0-1.5,0.1-2.3,0.2
			c-0.8,0.1-1.7,0.4-2.6,0.8c-0.9,0.4-1.8,1-2.7,1.9c-0.9,0.8-1.7,2-2.6,3.3v-5.8h-8.4v25c-0.7,2.8-1.5,4.8-2.5,6.1
			c-1,1.3-2.2,2-3.5,2c-1,0-1.7-0.3-2.2-0.8c-0.5-0.5-0.9-1.2-1.1-1.9c-0.2-0.7-0.4-1.4-0.4-2.2c-0.1-0.7-0.1-1.3-0.1-1.7
			c0-1,0-2,0.1-3.2c0.1-1.1,0.1-2.3,0.2-3.5c0.1-1.2,0.1-2.3,0.2-3.4c0.1-1.1,0.1-2.1,0.1-3c0-1.5-0.1-3-0.4-4.6
			c-0.3-1.6-0.8-3.1-1.6-4.5c-0.8-1.4-2-2.5-3.5-3.3c-1.5-0.9-3.6-1.3-6.1-1.3c-0.7,0-1.5,0.1-2.3,0.2c-0.8,0.1-1.7,0.4-2.6,0.8
			c-0.9,0.4-1.8,1-2.7,1.9c-0.9,0.8-1.7,2-2.6,3.3v-5.8h-8.4v25c-1.3,5.4-3.3,8.1-6,8.1c-0.9,0-1.6-0.3-2.1-0.8
			c-0.5-0.5-0.9-1.2-1.1-1.9c-0.3-0.7-0.4-1.5-0.5-2.3c-0.1-0.8-0.1-1.4-0.1-1.9v-26.1h-8.4V326c0,1.2,0.1,2.5,0.4,3.8
			c0.3,1.3,0.8,2.5,1.5,3.6c0.7,1.1,1.7,2,3,2.7c1.2,0.7,2.8,1,4.8,1c0.9,0,1.9-0.1,3-0.4c1.1-0.3,2.2-0.9,3.3-1.9
			c0.8-0.7,1.5-1.6,2.2-2.8v4.6h8.4v-24.6c0.8-3,1.8-5.2,3.1-6.5c1.3-1.3,2.8-1.9,4.5-1.9c0.7,0,1.4,0.1,2.1,0.4
			c0.6,0.3,1.2,0.7,1.7,1.3c0.5,0.6,0.9,1.5,1.2,2.5c0.3,1.1,0.4,2.4,0.4,4.1c0,0.5,0,1.4,0,2.7c0,1.3,0,2.6-0.1,4.1
			c0,1.4-0.1,2.8-0.1,4c0,1.3,0,2.1,0,2.6c0,1.5,0.2,3,0.5,4.5c0.4,1.4,0.9,2.7,1.7,3.8c0.8,1.1,1.8,1.9,3,2.6c1.2,0.6,2.8,1,4.6,1
			c0.9,0,1.9-0.1,3-0.4c1.1-0.3,2.1-0.9,3.2-1.9c0.8-0.7,1.5-1.6,2.2-2.8v4.6h8.4v-24.6c0.8-3,1.8-5.2,3.1-6.5
			c1.3-1.3,2.8-1.9,4.5-1.9c0.7,0,1.4,0.1,2.1,0.4c0.6,0.3,1.2,0.7,1.7,1.3c0.5,0.6,0.9,1.5,1.2,2.5c0.3,1.1,0.4,2.4,0.4,4.1
			c0,0.5,0,1.4,0,2.7c0,1.3-0.1,2.6-0.1,4.1c0,1.4-0.1,2.8-0.1,4c0,1.3,0,2.1,0,2.6c0,1.5,0.2,3,0.5,4.5c0.4,1.4,0.9,2.7,1.7,3.8
			c0.8,1.1,1.8,1.9,3,2.6c1.2,0.6,2.8,1,4.6,1c0.9,0,1.9-0.1,3-0.4c1.1-0.3,2.1-0.9,3.2-1.9c1.1-1,2.1-2.4,3-4.3
			c0.1-0.3,0.3-0.6,0.4-0.9c0.7,1.4,1.6,2.5,2.5,3.5c1.4,1.4,3,2.4,4.9,3c1.8,0.6,3.7,0.9,5.7,0.9c2.1,0,4.2-0.4,6.2-1.1
			c2-0.8,3.9-1.8,5.7-3.1c1.7-1.3,3.3-2.8,4.6-4.5c0.1-0.1,0.2-0.2,0.3-0.3v8.7h8.4v-28.3c1-0.9,2-1.8,3.2-2.6
			c1.2-0.8,2.4-1.2,3.7-1.2c0.6,0,1.1,0.1,1.5,0.3c0.4,0.2,0.7,0.4,1.1,0.7c0.3,0.2,0.6,0.4,0.9,0.7c0.3,0.2,0.7,0.3,1.2,0.3
			c0.3,0,0.7-0.1,1.2-0.2c0.5-0.1,0.9-0.3,1.3-0.7c0.4-0.3,0.7-0.7,1-1.2c0.3-0.5,0.4-1.1,0.4-1.9
			C441.9,301.2,441.4,300.1,440.5,299.2z M395.4,312.5c0.4-2,0.9-3.8,1.6-5.4c0.7-1.6,1.6-2.9,2.7-4c1.1-1,2.4-1.5,3.8-1.5
			c1.4,0,2.4,0.4,3.1,1.3c0.7,0.8,1.1,2.2,1.1,4.2c0,2.9-1.2,5.4-3.5,7.4c-2.3,2-5.5,3.3-9.5,3.8C394.8,316.4,395,314.5,395.4,312.5
			z"/>
		<path d="M455.5,295.9c1.4,4.9,2.5,8.9,3.4,12c0.9,3.1,1.6,5.7,2.2,7.8c0.5,2.1,0.9,4,1.1,5.6c0.2,1.6,0.3,3.5,0.3,5.5
			c0,1.9-0.5,3.5-1.4,4.8c-0.9,1.3-2,2.4-3.4,3.2c-1.4,0.8-2.8,1.4-4.3,1.8c-1.5,0.4-2.9,0.5-4.1,0.5c-2.5,0-4.5-0.4-6.1-1.1
			c-1.6-0.7-2.9-1.6-3.8-2.7c-1-1.1-1.6-2.3-2-3.7c-0.4-1.4-0.6-2.7-0.6-3.9c0-1.3,0.3-2.5,0.9-3.5s1.3-1.7,2.2-2.1
			c1.5-3.8,2.9-7.6,4.3-11.4c1.4-3.8,2.3-7.5,2.8-11.3L455.5,295.9z M453.5,326c0-1.6-0.1-3-0.3-4.2c-0.2-1.2-0.5-2.6-0.9-4.1
			c-0.4-1.5-0.9-3.3-1.5-5.4c-0.6-2.1-1.3-4.9-2.1-8.2c-0.3,2.9-1,5.6-2.1,8.2c-1,2.6-2,5.3-2.8,8.1c0.5,0.3,0.9,0.7,1.3,1.3
			c0.4,0.5,0.5,1.2,0.5,2.1c0,1-0.3,1.7-0.8,2.2c-0.6,0.5-1.2,0.8-1.9,0.8c-0.9,0-1.7-0.4-2.3-1.1c0.5,1.8,1.2,3.2,2.4,4.2
			c1.1,1,2.6,1.5,4.5,1.5c1.8,0,3.2-0.4,4.3-1.3C453,329.3,453.5,327.9,453.5,326z"/>
	</g>
	<path d="M189.9,227.2c-1.9-0.1-3.8,1.5-4.7,3c-4,6.2-11.8,10.5-20.9,10.5h-48.6c-1.8,0-3.3-1.2-3.3-2.8v-0.1c0-1.5,1.5-2.8,3.3-2.8
		h39.3c1.8,0,3.3-1.2,3.3-2.8v-0.1c0-1.5-1.5-2.8-3.3-2.8h-39.3c-1.8,0-3.3-1.2-3.3-2.8v-0.1c0-1.5,1.5-2.8,3.3-2.8h39.3
		c1.8,0,3.3-1.2,3.3-2.8v-0.1c0-1.5-1.5-2.8-3.3-2.8h-39.3c-1.9,0-3.4-1.3-3.3-2.9c0.1-1.5,1.6-2.7,3.4-2.7h39.3
		c1.8,0,3.3-1.2,3.3-2.8v-0.1c0-1.5-1.5-2.8-3.3-2.8h-39.3c-1.8,0-3.3-1.2-3.3-2.8V204c0-1.5,1.5-2.8,3.3-2.8h48.6
		c9,0,16.9,4.3,20.9,10.5c0.9,1.4,2.8,2.9,4.7,2.8l11.4-0.2v-23.8c0,0-19.8-12.9-43.2-21.3c-24-8.5-45.4-6.8-45.4-6.8
		s-21.6,16.2-21.6,57.3c0,0.4,0,1.1,0,1.1v0c0,0,0,0.7,0,1.1c0,41.1,21.6,57.3,21.6,57.3s21.4,1.7,45.4-6.8
		c23.4-8.3,43.2-21.3,43.2-21.3v-23.8L189.9,227.2z"/>
	<path d="M299.3,214.4l10.5,0.2c1,0,1.9-0.5,2.3-1.4c4.6-9.6,18.7-16.1,35.1-16.1c12.5,0,24,4.1,30.8,10.8c3.9,3.9,5.9,8.4,5.9,13.1
		c0,13.2-16.5,23.9-36.7,23.9c-12.9,0-24.5-3.9-31.1-10.5c-1.7-1.7-3.1-3.6-4-5.6c-0.4-0.9-1.4-1.5-2.3-1.4l-10.5,0.2v23.8
		c0,0,19.8,12.9,43.2,21.3c24,8.5,45.4,6.8,45.4,6.8s21.6-16.2,21.6-57.3c0-0.4,0-1.1,0-1.1v0c0,0,0-0.7,0-1.1
		c0-41.1-21.6-57.3-21.6-57.3s-21.4-1.7-45.4,6.8c-23.4,8.3-43.2,21.3-43.2,21.3V214.4z"/>
	<path d="M250.3,179.2c-23,0-41.7,18.7-41.7,41.7c0,23,18.7,41.7,41.7,41.7c23,0,41.7-18.7,41.7-41.7
		C292,197.9,273.4,179.2,250.3,179.2z M250.3,250.3c-16.3,0-29.4-13.2-29.4-29.4c0-16.3,13.2-29.4,29.4-29.4
		c16.3,0,29.4,13.2,29.4,29.4C279.8,237.1,266.6,250.3,250.3,250.3z"/>
	<path class="st5" d="M250.3,195.3c-14.1,0-25.6,11.5-25.6,25.6c0,14.1,11.5,25.6,25.6,25.6c14.1,0,25.6-11.5,25.6-25.6
		C275.9,206.7,264.5,195.3,250.3,195.3z"/>
	<path class="st5" d="M250.3,195.3c-14.1,0-25.6,11.5-25.6,25.6c0,14.1,11.5,25.6,25.6,25.6c14.1,0,25.6-11.5,25.6-25.6
		C275.9,206.7,264.5,195.3,250.3,195.3z"/>
</g>
</svg>
