<?xml version="1.0" encoding="utf-8"?>
<!-- Generator: Adobe Illustrator 23.0.2, SVG Export Plug-In . SVG Version: 6.00 Build 0)  -->
<svg version="1.1" id="Layer_1" xmlns="http://www.w3.org/2000/svg" xmlns:xlink="http://www.w3.org/1999/xlink" x="0px" y="0px"
	 viewBox="0 0 500 187.9" style="enable-background:new 0 0 500 187.9;" xml:space="preserve">
<style type="text/css">
	.st0{fill:#FFFFFF;}
</style>
<g>
	<g>
		<path class="st0" d="M108.4,172.1c-6,6.5-23.5,15.5-24.1,15.7c0.2-0.3,3.7-6.4,4.4-9c4.2-14.8-0.4-20.9-15.8-21
			c-14.6-0.1-29.3,0.3-44-0.6c-10.6-0.8-21.1-3.6-24.5-16.2c-2.8-10.4,2.3-21.5,14.1-29.7c3.2,11.9,12.7,12.3,22.5,12.3
			c15.3,0,30.7-0.1,46,0.1c11.9,0.1,23.9,2.3,28.9,14.6C120.7,150.5,117.1,162.7,108.4,172.1z"/>
		<ellipse class="st0" cx="102.2" cy="15.3" rx="18.2" ry="15.3"/>
		<g>
			<path class="st0" d="M53.2,106.4C23.4,105,0,88.5,0,68.4s23.4-36.6,53.2-38c-5.5,5.4-11.6,20.4-11.6,38
				C41.6,86,47.9,101.1,53.2,106.4z"/>
			<path class="st0" d="M115.2,68.4c0,20.1-23.4,36.6-53.2,38c5.5-5.4,11.6-20.3,11.6-38c0-17.7-6.1-32.7-11.6-38
				C91.8,31.8,115.2,48.3,115.2,68.4z"/>
		</g>
	</g>
	<g>
		<g>
			<path class="st0" d="M202.3,67.7v16.6c-2.1,1.6-4.5,2.7-6.9,3.5c-2.5,0.8-5.1,1.1-7.9,1.1c-3.5,0-6.6-0.6-9.4-1.6
				c-2.8-1-5.1-2.6-7.1-4.5c-2-1.9-3.5-4.2-4.6-6.9c-1-2.7-1.6-5.6-1.6-8.8c0-3.2,0.6-6.1,1.6-8.8c1-2.7,2.5-5,4.4-6.9
				s4.2-3.3,6.9-4.5c2.7-1,5.7-1.6,9-1.6c1.7,0,3.2,0.1,4.7,0.3c1.5,0.2,2.8,0.7,4,1.1c1.2,0.4,2.3,1,3.5,1.7c1,0.7,2,1.5,2.9,2.2
				l-1.8,2.8c-0.2,0.4-0.7,0.8-1.1,0.9c-0.4,0.1-0.9,0-1.5-0.3s-1.1-0.7-1.7-1c-0.7-0.4-1.3-0.8-2.2-1.1c-0.9-0.3-1.9-0.7-3-0.9
				c-1.1-0.2-2.5-0.3-4-0.3c-2.3,0-4.5,0.3-6.4,1.1c-1.9,0.8-3.5,1.9-4.8,3.2c-1.3,1.5-2.3,3.1-3,5.1c-0.7,2-1.1,4.2-1.1,6.7
				c0,2.6,0.3,4.9,1.1,7c0.8,2.1,1.8,3.8,3.2,5.2c1.3,1.5,3,2.6,5,3.2c2,0.8,4.1,1.1,6.6,1.1c1,0,1.8,0,2.7-0.1
				c0.8-0.1,1.6-0.2,2.3-0.4c0.8-0.2,1.5-0.4,2.2-0.8c0.7-0.3,1.5-0.7,2.1-1v-8.9h-6.2c-0.4,0-0.7-0.1-1-0.3
				c-0.2-0.2-0.3-0.6-0.3-0.9v-3.6h13.4V67.7z"/>
			<path class="st0" d="M217.2,88.4h-6.4V45.9h6.4V88.4z"/>
			<path class="st0" d="M256.7,51.1h-13.5v37.3h-6.2V51.1h-13.6v-5.2h33.4V51.1z"/>
			<path class="st0" d="M291.8,51.1h-13.5v37.3h-6.2V51.1h-13.6v-5.2h33.4L291.8,51.1L291.8,51.1z"/>
			<path class="st0" d="M324.3,83.2v5.1H298V45.9h26.3V51h-20.1v13.5h16.1v4.9h-16.1v13.8H324.3z"/>
			<path class="st0" d="M364,88.4h-5.6c-1.1,0-1.9-0.4-2.5-1.3l-10.5-14.7c-0.3-0.4-0.7-0.9-1.1-1c-0.4-0.2-1-0.3-1.8-0.3h-4.1v17.4
				h-6.4V45.9h12.3c2.8,0,5.1,0.3,7.1,0.9c2,0.6,3.6,1.3,4.9,2.5c1.3,1,2.2,2.3,2.9,3.8c0.7,1.5,0.9,3.1,0.9,4.9
				c0,1.5-0.2,2.9-0.7,4.1c-0.4,1.3-1.1,2.5-2,3.5c-0.9,1-1.9,1.9-3.2,2.7c-1.2,0.8-2.7,1.3-4.4,1.7c0.8,0.4,1.5,1.1,2,2L364,88.4z
				 M344.2,66.4c1.7,0,3-0.2,4.2-0.6c1.2-0.4,2.2-1,3.1-1.7c0.8-0.7,1.5-1.6,1.9-2.6c0.4-1,0.7-2.1,0.7-3.3c0-2.5-0.8-4.4-2.5-5.6
				c-1.6-1.2-4-1.9-7.3-1.9h-5.9v15.5h5.7V66.4z"/>
			<path class="st0" d="M414.2,45.9v42.5h-5.5c0,0,0.1-32.8,0.1-33.4l-14.2,26c-0.4,1-1.2,1.5-2.2,1.5h-0.9c-1,0-1.8-0.4-2.2-1.5
				l-14.4-26.1c0.1,1.1,0.2,33.4,0.2,33.4h-5.6V45.7h4.7c0.6,0,1,0,1.3,0.1c0.3,0.1,0.6,0.4,0.9,0.9c0,0,15.5,28.2,15.7,28.8
				c0.4-1.1,15.4-28.8,15.4-28.8c0.2-0.4,0.6-0.8,0.9-0.9s0.8-0.1,1.3-0.1h4.4V45.9z"/>
			<path class="st0" d="M439.6,51.8c-0.2,0.9-13.2,35.1-13.2,35.1c-0.1,0.3-0.4,0.7-0.8,1c-0.3,0.3-0.8,0.4-1.3,0.4h-4.8l17-42.5
				h6.4l17,42.5h-4.9c-0.6,0-1-0.1-1.3-0.4c-0.3-0.2-0.6-0.7-0.8-1.1C452.8,86.9,440.1,53.5,439.6,51.8z"/>
			<path class="st0" d="M500,45.9v42.5h-3.2c-0.4,0-0.9-0.1-1.2-0.2c-0.3-0.2-0.7-0.4-1-0.9l-24-31.1c0,0.6,0.1,32.2,0.1,32.2h-5.6
				V45.9h3.2c0.6,0,1,0.1,1.2,0.2c0.2,0.1,0.6,0.4,0.9,0.9l24.1,31.1c-0.1-0.6-0.2-32.1-0.2-32.1h5.7V45.9z"/>
		</g>
		<g>
			<path class="st0" d="M200.7,123.7v14.2c-2,1.5-4.2,2.6-6.7,3.3c-2.3,0.8-5,1.2-8,1.2c-3.2,0-6.2-0.4-8.8-1.5
				c-2.6-1-4.8-2.5-6.7-4.2c-1.9-1.8-3.2-4.1-4.2-6.7c-1-2.7-1.5-5.6-1.5-8.8s0.4-6.2,1.5-8.8c1-2.6,2.3-4.9,4.1-6.7
				c1.8-1.8,4-3.2,6.5-4.2c2.6-1,5.5-1.5,8.6-1.5c1.6,0,3,0.1,4.4,0.3c1.3,0.2,2.6,0.4,3.7,0.9s2.2,0.9,3.2,1.6c1,0.6,2,1.3,2.9,2.1
				l-0.4,0.7c-0.1,0.2-0.3,0.3-0.7,0.2c-0.2-0.1-0.6-0.3-1.1-0.8c-0.6-0.4-1.3-0.9-2.3-1.5s-2.3-1-3.9-1.5s-3.5-0.7-5.7-0.7
				c-2.9,0-5.6,0.4-7.9,1.3c-2.3,0.9-4.4,2.2-6,3.9c-1.7,1.7-2.9,3.8-3.8,6.2c-0.9,2.5-1.3,5.2-1.3,8.4c0,3.1,0.4,5.9,1.3,8.4
				c0.9,2.5,2.1,4.6,3.8,6.2c1.7,1.7,3.7,3,6.1,4c2.5,0.9,5.1,1.3,8.1,1.3c1.3,0,2.7-0.1,3.8-0.2c1.2-0.2,2.2-0.4,3.3-0.8
				c1-0.3,2.1-0.8,3-1.2c1-0.4,2-1,3-1.7v-12.3h-8.8c-0.1,0-0.2,0-0.3-0.1c-0.1-0.1-0.1-0.2-0.1-0.3v-0.8h11V123.7z"/>
			<path class="st0" d="M239.2,142h-1.3c-0.2,0-0.4,0-0.6-0.1c-0.1-0.1-0.3-0.2-0.4-0.4l-14.7-18c-0.1-0.2-0.3-0.4-0.4-0.6
				c-0.2-0.1-0.3-0.2-0.6-0.3c-0.2-0.1-0.4-0.1-0.8-0.2c-0.3-0.1-0.7-0.1-1-0.1h-6v19.6h-1.7v-41.6h10c4.6,0,7.9,0.9,10.3,2.7
				c2.3,1.8,3.6,4.5,3.6,8c0,1.7-0.3,3.1-0.9,4.5c-0.6,1.3-1.5,2.5-2.6,3.5c-1.1,1-2.5,1.8-4,2.3c-1.6,0.6-3.3,0.9-5.2,1
				c0.3,0.2,0.7,0.4,1,0.9L239.2,142z M213.1,121.2h7.9c2,0,3.7-0.2,5.2-0.7s2.9-1.1,4-2c1.1-0.9,1.9-1.9,2.6-3.2
				c0.6-1.2,0.9-2.7,0.9-4.2c0-3.2-1-5.6-3.1-7.1c-2.1-1.6-5.1-2.2-9-2.2h-8.4v19.5H213.1z"/>
			<path class="st0" d="M259.4,102.1c-0.2,0.7-16.1,39.4-16.1,39.4c-0.1,0.3-0.3,0.6-0.7,0.6h-1.2l17.3-41.6h1.6l17.3,41.6h-1.2
				c-0.3,0-0.6-0.1-0.7-0.6C275.4,141.5,259.6,102.7,259.4,102.1z"/>
			<path class="st0" d="M295.1,100.4c4.7,0,8.3,1,10.7,3c2.5,2,3.7,5,3.7,9c0,1.8-0.3,3.3-1,4.9c-0.7,1.5-1.7,2.8-2.9,3.9
				c-1.2,1.1-2.8,1.9-4.6,2.6c-1.8,0.6-3.7,0.9-5.9,0.9h-8.4v17.4H285v-41.6h10V100.4z M295.1,123.3c2,0,3.7-0.2,5.2-0.8
				c1.6-0.6,2.9-1.3,4-2.2c1.1-1,1.9-2.1,2.6-3.5c0.6-1.3,0.9-2.8,0.9-4.2c0-3.6-1-6.2-3.1-8c-2.1-1.8-5.2-2.8-9.6-2.8h-8.4v21.6
				h8.4V123.3z"/>
			<path class="st0" d="M350,100.4V142h-1.7v-20.5h-28V142h-1.7v-41.6h1.7v19.9h28v-19.9H350z"/>
			<path class="st0" d="M364.8,142h-1.7v-41.6h1.7V142z"/>
			<path class="st0" d="M408.5,135.8c0.1,0,0.2,0,0.3,0.1l0.7,0.7c-0.9,0.9-1.8,1.7-2.8,2.3c-1,0.7-2.1,1.3-3.3,1.9
				c-1.2,0.6-2.6,0.9-3.9,1.2c-1.5,0.3-3,0.4-4.7,0.4c-2.8,0-5.5-0.4-7.8-1.5s-4.5-2.5-6.1-4.2c-1.7-1.9-3-4.1-4-6.7
				c-1-2.7-1.5-5.6-1.5-8.8s0.4-6,1.5-8.7c1-2.6,2.3-4.9,4.1-6.7c1.8-1.9,3.9-3.3,6.4-4.4s5.1-1.6,8.1-1.6c2.8,0,5.2,0.4,7.4,1.2
				c2.1,0.9,4.1,2.1,6,3.7l-0.4,0.7c-0.1,0.1-0.2,0.2-0.4,0.2c-0.1,0-0.3-0.1-0.6-0.3c-0.3-0.2-0.7-0.4-1.1-0.8
				c-0.4-0.3-1-0.7-1.7-1.1c-0.7-0.3-1.5-0.8-2.3-1.1c-0.9-0.3-1.9-0.6-3-0.8s-2.3-0.3-3.7-0.3c-2.7,0-5.1,0.4-7.4,1.3
				c-2.2,0.9-4.2,2.2-5.8,4c-1.7,1.7-2.9,3.8-3.8,6.2c-0.9,2.5-1.3,5.2-1.3,8.3c0,3.1,0.4,5.9,1.3,8.4c0.9,2.5,2.1,4.6,3.8,6.2
				c1.6,1.7,3.5,3,5.7,3.9c2.1,0.9,4.6,1.3,7,1.3c1.6,0,3-0.1,4.4-0.3c1.2-0.2,2.5-0.6,3.5-1c1-0.4,2-1,2.9-1.6
				c0.9-0.7,1.8-1.3,2.7-2.1C408.2,135.9,408.4,135.8,408.5,135.8z"/>
			<path class="st0" d="M438,104.6c-0.1,0.2-0.3,0.3-0.6,0.3c-0.2,0-0.6-0.2-0.9-0.6c-0.3-0.3-0.9-0.8-1.6-1.3
				c-0.7-0.4-1.6-0.9-2.7-1.3c-1.1-0.4-2.5-0.6-4-0.6c-1.7,0-3,0.2-4.4,0.8c-1.2,0.4-2.3,1.1-3.1,2c-0.9,0.8-1.5,1.8-1.9,2.9
				c-0.4,1.1-0.7,2.2-0.7,3.3c0,1.6,0.3,2.8,0.9,3.8c0.6,1,1.5,1.9,2.5,2.6c1,0.7,2.1,1.2,3.5,1.8c1.2,0.4,2.6,0.9,3.9,1.3
				c1.3,0.4,2.7,0.9,3.9,1.5c1.2,0.6,2.5,1.1,3.5,1.9c1,0.8,1.8,1.7,2.5,2.9c0.6,1.1,0.9,2.6,0.9,4.2c0,1.7-0.3,3.3-0.9,4.8
				c-0.6,1.6-1.5,2.8-2.6,3.9c-1.1,1.1-2.5,2-4.1,2.7c-1.7,0.7-3.5,1-5.5,1c-1.5,0-2.7-0.1-3.8-0.3c-1.1-0.2-2.2-0.6-3.1-1.1
				c-1-0.4-1.8-1-2.7-1.7c-0.8-0.7-1.6-1.5-2.3-2.2l0.3-0.6c0.1-0.1,0.2-0.2,0.2-0.2c0.1,0,0.2-0.1,0.3-0.1c0.1,0,0.3,0.1,0.6,0.3
				c0.2,0.2,0.6,0.6,1,0.9s0.9,0.8,1.5,1.2c0.6,0.4,1.2,0.8,2,1.2c0.8,0.3,1.7,0.7,2.7,0.9c1,0.2,2.1,0.3,3.3,0.3
				c1.8,0,3.5-0.3,4.8-0.9c1.5-0.6,2.6-1.3,3.6-2.3c1-1,1.7-2.1,2.2-3.5c0.6-1.3,0.8-2.7,0.8-4.1c0-1.6-0.3-2.9-0.9-3.9
				c-0.6-1-1.5-1.9-2.5-2.6c-1-0.7-2.1-1.2-3.5-1.8c-1.3-0.4-2.6-0.9-3.9-1.3c-1.3-0.4-2.7-0.9-3.9-1.3c-1.3-0.6-2.5-1.1-3.5-1.9
				c-1-0.8-1.8-1.8-2.5-2.9c-0.6-1.1-0.9-2.6-0.9-4.4c0-1.3,0.2-2.7,0.8-3.9c0.6-1.2,1.2-2.3,2.2-3.3c1-1,2.2-1.7,3.6-2.3
				c1.5-0.6,3.1-0.9,4.9-0.9c2.1,0,3.9,0.3,5.6,1c1.6,0.7,3.1,1.7,4.5,3.1L438,104.6z"/>
		</g>
	</g>
</g>
</svg>
