<?xml version="1.0" encoding="utf-8"?>
<!-- Generator: Adobe Illustrator 23.0.2, SVG Export Plug-In . SVG Version: 6.00 Build 0)  -->
<svg version="1.1" id="Layer_1" xmlns="http://www.w3.org/2000/svg" xmlns:xlink="http://www.w3.org/1999/xlink" x="0px" y="0px"
	 viewBox="0 0 500 500" style="enable-background:new 0 0 500 500;" xml:space="preserve">
<style type="text/css">
	.st0{fill:url(#SVGID_1_);}
	.st1{fill:url(#SVGID_2_);}
	.st2{fill:url(#SVGID_3_);}
	.st3{fill:none;}
	.st4{fill:none;stroke:#000000;stroke-width:2.1539;stroke-miterlimit:10;}
	.st5{fill:none;stroke:#CC0000;stroke-width:2.1951;stroke-miterlimit:10;}
</style>
<linearGradient id="SVGID_1_" gradientUnits="userSpaceOnUse" x1="-15882" y1="-15073.3574" x2="-15382" y2="-15073.3574" gradientTransform="matrix(1 0 0 1 15882 15323.3574)">
	<stop  offset="0" style="stop-color:#696B6C"/>
	<stop  offset="1" style="stop-color:#F2F2F2"/>
</linearGradient>
<polygon class="st0" points="0,500 500,500 500,0 0,0 "/>
<g>
	<g>
		<path d="M404.2,294.4L334,282.9l-15-3.3L260.8,300l-0.5,3.6c1.3-0.6,3.8-2,5.1-2.6c6-2.7,12.6-4.8,18.7-7.1
			c11.5-4.2,21.7-9.1,33.8-10.9c1.3,10.4-0.8,20.7-0.4,31.1c0,0.2,0.4,0.2,0.4,0c0-10.3,1.7-20.8,0.5-31.2c0.9-0.1,1.7-0.2,2.6-0.3
			l80.2,15.9l-7,92.7l-71,11.6h-0.1c-1.4-13.1-1.6-26.3-2-39.5c-0.2-6.9-0.7-13.7-1.3-20.6c-0.6-7.1-1.7-14.1-2.1-21.2
			c0,0-0.1,0-0.1,0c-0.3,6.9-0.9,13.7-0.8,20.6c0.1,6.9,0.3,13.7,0.6,20.6c0.5,13.2,0.6,26.4,2,39.5l-60.7-9.8l-4.5-31l-0.8,7.7
			l3.5,24.2l0.1,0.6l0.7,0.2l64.9,13.6l0.5,0.1l0.5-0.1l71.6-14.9l0.7-0.1l0.1-0.7l10-95.3l0.2-2.2L404.2,294.4z"/>
		<path d="M349.2,298.8c-0.1-0.5-0.7-0.6-1.1-0.4c-0.1,0-0.1-0.1-0.2-0.1c-3.5-1.2-7.6-1.5-11.2-1.9c-3.5-0.4-7.1-0.8-10.6-0.9
			c-0.1-0.6-0.9-0.6-1,0c-0.2,0.1-0.3,0.4-0.1,0.5c-0.8,8-1.1,16-1.5,24c-0.4,8.4-0.5,16.7-0.4,25.1c0.1,8,0.5,16,0.9,24
			c0.4,7.7,0.6,15.6,1.9,23.2c0.2,0.9,1.4,1.3,2.1,0.9c2.1-1.1,4.5-1.8,6.8-2.4c2.3-0.6,4.4-1.5,6.8-1.7c4.7-0.5,9.4-0.5,14.1-1
			c10.3-1.1,20.6-2.5,30.9-3.6c0.7,0.7,2.3,0.4,2.2-0.8c0-0.1,0-0.2,0-0.2c0.1-0.2,0-0.4,0-0.6c-0.1-6.4,0.8-12.9,1.6-19.2
			c0.9-7,1.8-14,2.2-21c0.3-6.4,0.7-12.8,1.6-19.2c0.4-3,0.8-6,0.9-9c0.1-2.2,0.1-4.7-0.6-6.8c0.3-0.5,0.1-1.1-0.4-1.4
			c-1-0.7-2.2-0.6-3.4-0.8c-0.4,0-0.7-0.1-1.1-0.1c-1-0.4-2.1-0.6-3.1-0.8c-1.6-0.4-3.1-0.7-4.7-1c-3-0.6-6-1-9-1.5
			c-2.9-0.4-5.8-0.9-8.7-1.3c-3.2-0.4-6.4-1-9.6-1.1c-0.2,0-0.4,0.4-0.1,0.4c2.3,1,4.7,1.6,7.2,2.1L349.2,298.8z M363.6,302.5
			c2.8,0.5,5.5,0.8,8.2,1.2c1.6,0.3,3.3,0.5,4.9,0.8c0,0.1,0,0.2,0,0.3L363.6,302.5z M379.4,305.2c2.1,0.8,4.3,1.2,6.4,1.7
			c1.4,0.3,2.7,0.5,4.1,0.8c1,0.2,2.1,0.5,3.1,0.5c-0.1,2.3-0.1,4.6-0.5,6.9c-0.5,3-1.1,6-1.7,9c-1.2,6.1-1.6,12.3-2,18.4
			c-0.5,6.8-0.3,13.6-1,20.4c-0.6,6.4-1.2,12.8-1.5,19.3c-10.6,1.1-21.1,2.7-31.7,3.8c-4.9,0.5-9.7,0.6-14.6,1.2
			c-3.9,0.4-8,1.1-11.6,2.7c-1.1-7.1-2-14.2-2.4-21.3c-0.4-7.8-0.7-15.6-0.7-23.4c0-16.2,2.7-32.5,0.9-48.7c3.3,1,6.8,1.5,10.2,2.1
			c3.6,0.6,7.3,1.5,10.9,2L379.4,305.2z"/>
		<path d="M315.9,389.5c-1.4-3.6-1.3-7.7-1.4-11.4c-0.1-4.1-0.4-8.2-0.8-12.3c-0.7-8.3-1.6-16.5-1.6-24.8c0-7.8,0.5-15.7,0.5-23.5
			c0-3.7,0.1-7.4,0-11.1c-0.1-3.5-0.3-7.2-1.4-10.6c-0.3-0.8-1.3-0.8-1.5-0.1c-9.6,2.3-19.5,4.6-28.6,8.3c-4.5,1.8-8.9,4-13.3,6.1
			c-2.8,1.4-5.7,2.7-8.5,4.2l-0.2,1.5c2.9-1.1,5.7-2.4,8.5-3.7c4.6-2.2,9.3-4.2,14-6.2c9-3.7,18.7-5.7,28-8.5c0,3,0.1,5.9,0.2,8.9
			c0,3.7-0.1,7.4-0.2,11.1c-0.2,8-0.4,16.1-0.1,24.1c0.3,8,1.3,15.9,2.6,23.8c0.6,4.2,1.3,8.4,1.4,12.7c0.1,3.6,0.3,7.2,0.5,10.8
			c-4.3-0.6-8.6-1.2-12.9-2.1c-4.6-1-9.3-1.4-13.9-2.1c-4.4-0.7-8.9-1.3-13.3-2.1c-3.5-0.6-7-1.9-10.5-1.6
			c-0.9-5.1-1.9-10.1-2.4-15.3c-0.6-5.5-1-11.1-1.5-16.6c-0.5-5.5-1.1-11.1-1.7-16.6c0-0.4-0.1-0.8-0.1-1.1l-1,9.4
			c0.2,3,0.4,6,0.6,9c0.4,5.5,0.8,11.1,1.4,16.6c0.6,5.6,0.9,11.4,1.9,16.9c0.2,0.9,1.2,1.3,1.9,1.1c3.8-0.9,8.1,0.8,11.8,1.4
			c4.4,0.8,8.9,1.4,13.3,2.1c4.4,0.7,8.7,1.4,13.2,1.6c2.3,0.1,4.5,0,6.7,0.2c2.3,0.2,4.6,0.5,6.9,0.8
			C314.9,391.1,316.4,390.5,315.9,389.5z"/>
	</g>
	<g>
		<g>
			<g>
				<polygon points="332.4,269.6 332.4,269.6 332.4,269.6 332.4,269.6 332.4,269.6 				"/>
				<path d="M375,140.9L375,140.9C374.9,140.9,375,140.9,375,140.9z"/>
				<path d="M218.9,274.1c0.4,0.4,0.3,0.9-0.1,1.3l-0.5,0.5c-0.3,0.4-0.9,0.3-1.3-0.1c-0.3-0.4-0.3-0.9,0.1-1.3l0.5-0.5
					C217.9,273.7,218.5,273.8,218.9,274.1z M218.1,262.8c1,0.8,1.9,1.7,2.8,2.7c0.1,0.1,0.2,0.2,0.3,0.3c-1.1-0.2-2.4-1.5-3.1-2.2
					c-0.9-0.8-1.7-1.8-2.5-2.7C216.5,261.6,217.4,262.3,218.1,262.8z M190.6,271 M194.7,269.8c-0.3,0.2-0.6,0.4-1,0.6
					c-0.4,0.2-1,0.1-1.2-0.4c-0.2-0.4-0.1-1,0.4-1.2c0.4-0.2,0.6-0.4,1-0.6c0.4-0.2,1-0.1,1.2,0.4
					C195.3,269,195.2,269.6,194.7,269.8z M198.6,264.4c-0.1,0-0.2,0.1-0.4,0.1c-3,0.9-6.9,3.3-7.7,6.5l1.3,4.6
					c2.3,3,6.3,4.7,9.9,5.8l18.3,3.4c-0.1-0.3-0.1-0.6-0.3-1c-1.3-2.3-3-3.7-5-4.6c2.1-0.2,4.1-1.5,5-3.6c0.8-1.8,0.3-3.5-0.9-5
					c1.7,0.7,3.4,0.8,5.2-0.1c3.8-2,2.7-6.2,0.4-8.9c-2-2.2-3.8-3.6-6.1-5.1c-1.9-1.2-4.2-2.4-6.6-3.1c-0.6-2.4-0.5-4.8,1.2-6.3
					c0.3-0.3,0.8-0.5,1.2-0.6c0.2-0.1,1.2-0.3,1.2-0.3c0.1,0,0.2,0,0.3,0c0.2,0.8,0.5,1.6,0.8,2.4c0,0.1,0.2,0.7,0.3,0.9
					c0,0,0-0.1,0-0.1c0.1,0.3,0.2,0.5,0.3,0.8c0.2,0.4,0.4,0.7,0.6,1.1c1.4,2.2,3.2,4.2,5,5.9c3.2,3.1,10.3,8.1,12.7,1.5
					c0.2-0.7,0.4-1.3,0.4-1.9l0.1,0.1l0.4,0.3l0.9,0.5c0.6,0.3,1.1,0.7,1.7,1.1l1.8,1c0.6,0.3,1.2,0.7,1.8,1c0.6,0.3,1.2,0.7,1.9,1
					c0.6,0.3,1.2,0.6,1.9,0.9s1.3,0.6,1.9,0.9c0.7,0.3,1.3,0.6,2.1,0.8c0.4,0.1,0.7,0.2,1.1,0.3l1.1,0.3c0.4,0.1,0.8,0.2,1.2,0.2
					c0.4,0.1,0.8,0.1,1.3,0.1c0.5,0,0.9,0.1,1.5,0c0.2,0,0.6-0.1,0.9-0.1c0.2,0,0.4-0.1,0.5-0.2c0,0,0.1,0,0.2-0.1l0.2-0.1l0.2-0.1
					l0.1,0l0.1-0.1c0.1,0,0.1-0.1,0.2-0.1l0.6-0.4l0.4-0.8c0.2-0.4,0.4-0.9,0.5-1.4l0.6-1.4c0.4-0.9,0.8-1.9,1.2-2.8
					c0.8-1.9,1.7-3.7,2.7-5.5c0.5-0.9,1-1.8,1.5-2.7c0.5-0.9,1-1.7,1.6-2.6c0.6-0.8,1.1-1.7,1.7-2.5c0.3-0.4,0.6-0.8,0.9-1.2
					c0.3-0.4,0.6-0.8,0.9-1.1c0.6-0.8,1.3-1.5,2-2.1c0.7-0.7,1.4-1.3,2.2-1.9l2.5-1.9l0.3-0.2l0.3-0.2l0.6-0.4l1.3-0.8
					c0.8-0.6,1.7-1.1,2.6-1.6c0.4-0.3,0.9-0.5,1.3-0.8l1.3-0.7c0.9-0.5,1.8-0.9,2.7-1.4l1.4-0.6c0,0,0.1,0,0.1-0.1
					c0.7,1.3,1.6,2.5,2.5,3.7c0,0,0,0,0,0.1c1,1.6,2,3.2,3.1,4.8c2.1,3.1,4.2,6.3,6.5,9.3c2.2,3.1,4.5,6.1,6.8,9.1
					c1.2,1.5,2.4,2.9,3.6,4.4c1.3,1.5,2.5,2.9,3.8,4.3c1.3,1.4,2.6,2.8,4.1,4.1c1.4,1.4,2.9,2.7,4.6,3.9c0.8,0.6,1.7,1.2,2.8,1.7
					c1,0.5,2.2,1,3.7,1.3c0.2,0,0.4,0,0.6,0c0.2,0,0.4,0,0.6,0l0.3,0c0.1,0,0.2,0,0.3-0.1l0.3-0.1l0.2,0l0.1,0c0,0,0.2,0,0.2,0l0,0
					l1.3-0.4l0.3-0.1l0.2-0.1l0.2-0.1l0.7-0.3c0.5-0.2,1-0.4,1.5-0.6c0.9-0.4,1.8-0.8,2.7-1.3l1.3-0.7l1.3-0.8
					c1.7-1,3.3-2.1,4.8-3.3c1.5-1.2,3-2.4,4.5-3.7c1.4-1.3,2.8-2.6,4.1-4.1l7.5-8.5l-9.1,5.9l0,0c-0.7,0.3-1.5,0.5-2.2,0.8
					c-0.7,0.2-1.5,0.5-2.3,0.7c-1.5,0.4-3.1,0.7-4.6,0.9c-0.8,0.1-1.5,0.1-2.3,0.1c-0.7,0-1.5-0.1-2.1-0.2c-0.7-0.1-1.3-0.3-1.8-0.7
					c-0.5-0.3-0.9-0.7-1.2-1.1l-0.1-0.2c0-0.1-0.1-0.1-0.1-0.2l-0.1-0.2c0,0,0-0.1,0-0.1l-0.1-0.1l-0.2-0.6l-0.2-0.5
					c-0.2-0.7-0.4-1.5-0.6-2.2c-0.3-1.5-0.5-3-0.5-4.5c0-0.7,0.1-1.5,0.2-2.2c0.1-0.3,0.1-0.7,0.3-1c0.1-0.3,0.2-0.6,0.4-0.7
					c0-0.1,0-0.1,0.1-0.1l0.2-0.1c0.3-0.1,0.8-0.4,1.3-0.6c0.2-0.1,0.4-0.2,0.6-0.3c0.5-0.2,1-0.4,1.3-0.7c0.1-0.1,0.1-0.2,0.2-0.2
					c0.1-0.1,0.1-0.1,0.2-0.1l0.9-0.6l-0.3-1l-2.3-8.1l5.3-3.2l0.6-1.8c0,0.1,0.1,0.2,0.1,0.3c0,0,0,0,0,0c0-0.1,0-0.1,0-0.2
					c0,0,0-0.1,0.1-0.2l0.1-0.3c0,0,0-0.1,0-0.1l0.1-0.1l0.1-0.3c0.1-0.2,0.2-0.4,0.3-0.6c0.2-0.4,0.4-0.8,0.7-1.2l0.8-1.1
					c0.3-0.4,0.6-0.8,0.9-1.1l0.9-1.1l1-1.2c0.3-0.4,0.6-0.9,0.9-1.4c0.3-0.5,0.5-0.9,0.7-1.4c0.2-0.5,0.4-1,0.6-1.5l0.3-0.7
					c0.1-0.3,0.2-0.5,0.2-0.7c0.2-0.5,0.3-1,0.4-1.5c0.1-0.5,0.2-1,0.3-1.5l0.1-0.8l0.1-0.8c0-0.5,0.1-1.1,0.1-1.6
					c0-0.3,0-0.5,0-0.8c0-0.1,0-0.3,0-0.4c0,0,0-0.1,0-0.1c0.1-0.2,0.1-0.3,0.2-0.5c0.1-0.3,0.2-0.7,0.3-1c0.1-0.3,0.2-0.7,0.3-1
					l0.2-1c0.1-0.3,0.1-0.7,0.2-1c0.1-0.3,0.1-0.7,0.1-1l0.1-1c0-0.3,0.1-0.7,0.1-1l0-1c0-0.3,0-0.7,0-1l0-1.9l-0.1-3.1l6.1-5.3
					l1.2-1.1l-1.2-1.1l-7.4-7.1c0-0.6-0.4-1.3-1-1.6l-1.4-27.1c0.1-0.1,0.2-0.2,0.2-0.4c0.2-0.2,0.3-0.5,0.5-0.7
					c0.2-0.2,0.4-0.5,0.5-0.7c0.2-0.2,0.4-0.4,0.6-0.6c0.2-0.2,0.4-0.4,0.6-0.6l0.6-0.6l0.7-0.6c0.2-0.2,0.5-0.3,0.7-0.5
					c0.1-0.1,0.2-0.2,0.4-0.3l0.4-0.2c0.3-0.1,0.5-0.3,0.8-0.4l0.8-0.4c0.3-0.1,0.5-0.2,0.8-0.3c0.5-0.2,1.1-0.4,1.7-0.5
					c0.3-0.1,0.6-0.1,0.8-0.2l0.4-0.1l0.2,0l0.1,0l0,0l0.1,0l1.9-0.2c0.3,0,0.7-0.1,1-0.1l0.9,0c0.6,0,1.2-0.1,1.8-0.1
					c0.6,0,1.2,0,1.7,0.1c0.3,0.1,0.6,0.1,0.9,0.1l0.8,0.2l0.3,0.1c0,0,0.1,0,0.1,0.1l0.1,0c0,0,0,0,0.1,0l0.2,0.1l0.4,0.3l2.2,1.5
					c0,0.1-0.1,0.3-0.1,0.5c-0.2,0.6-0.3,1.2-0.4,1.8c-0.2,1.2-0.2,2.5,0.1,3.8c0.2,0.7,0.4,1.3,0.8,1.9c0.4,0.6,0.9,1.1,1.4,1.5
					c0.1,0.1,0.3,0.2,0.4,0.3l0.2,0.1l0.1,0.1l0,0l0,0l0.1,0l0,0l0.4,0.2c0,0,0.1,0,0.2,0.1l0.3,0.1l0.3,0.1l0.2,0.1l0.5,0.1
					c0.3,0.1,0.6,0.1,0.9,0.1c1.2,0.1,2.4,0.1,3.5-0.1c1.1-0.2,2.3-0.4,3.4-0.8c1.1-0.4,2.2-0.9,3.2-1.5c1-0.7,2-1.5,2.7-2.6
					c0.8-1,1.3-2.3,1.4-3.7c0.1-1.3-0.2-2.6-0.6-3.8c-0.1-0.3-0.2-0.5-0.4-0.8c-0.1-0.1-0.1-0.3-0.2-0.4l-0.2-0.4l-0.2-0.4l-0.1-0.2
					l-0.1-0.2l-0.4-0.7c-0.7-1-1.5-1.9-2.5-2.6c-1-0.8-2.2-1.4-3.6-1.6c-0.7-0.1-1.3-0.1-2,0c-0.7,0.1-1.3,0.3-1.9,0.5
					c-0.6,0.2-1.1,0.5-1.7,0.8c-0.5,0.3-1,0.6-1.5,1c-0.4,0.3-0.7,0.6-1,0.9c-0.1-0.1-0.1-0.2-0.2-0.2c-0.4-0.6-0.9-1.3-1.3-1.9
					c-0.9-1.2-1.8-2.5-2.8-3.7c-2-2.4-4.1-4.6-6.6-6.6c-2.4-2-5.1-3.7-8.1-4.8l-0.6-0.2l-0.6-0.2c-0.4-0.1-0.8-0.2-1.1-0.3l-0.6-0.1
					l-0.1,0l-0.1,0l-0.1,0l-0.3-0.1l-1.1-0.2c-0.4-0.1-0.7-0.1-1.1-0.2l-1.2-0.2l-1.2-0.2l-1.2-0.1l-1.2-0.1l-1.1-0.1l-1.2-0.1
					l-1.2,0l-1.1,0l-1.2,0c-0.8,0-1.6,0-2.3,0.1c-1.5,0.1-3.1,0.3-4.6,0.5c-1.5,0.3-3.1,0.6-4.6,1c-1.5,0.4-3,0.9-4.5,1.6l-0.5,0.3
					l-0.2,0.1l-0.1,0l0,0l-0.1,0l0,0l-0.2,0.2l-1,0.6l-0.5,0.3l-0.5,0.3l-1,0.7c-0.3,0.2-0.6,0.5-0.9,0.7l-0.9,0.7
					c-0.6,0.5-1.2,1-1.7,1.5c-0.4,0.4-0.9,0.8-1.3,1.2c-0.3,0.1-0.6,0.3-0.8,0.5c-0.1-0.3-0.3-0.5-0.5-0.8c-0.5-0.8-0.9-1.7-1.2-2.6
					c-0.2-0.4-0.3-0.9-0.5-1.4c-0.1-0.4-0.2-0.9-0.3-1.4c-0.1-0.5-0.2-0.9-0.2-1.4c0-0.5-0.1-0.9-0.1-1.4c0-0.2,0-0.5,0-0.7
					c0-0.2,0-0.5,0.1-0.7c0.1-0.4,0.2-0.9,0.3-1.3c0.1-0.2,0.1-0.4,0.2-0.6l0.1-0.3l0.2-0.4l0.7-1.4l2.1-4.4c0.2,0,0.3,0.1,0.5,0.1
					c0.6,0.1,1.2,0.2,1.8,0.2c1.2,0.1,2.4,0,3.6-0.2c1.2-0.2,2.4-0.5,3.6-1.1c1.1-0.6,2.2-1.3,3.1-2.2c0.9-0.9,1.6-2,2.1-3.1
					c0.1-0.3,0.2-0.5,0.4-0.8c0.1-0.3,0.2-0.6,0.3-0.9l0.1-0.4l0.1-0.5c0.1-0.3,0.2-0.6,0.2-0.9c0.2-1.2,0.2-2.6-0.1-3.9
					c-0.2-0.7-0.4-1.3-0.7-1.9c-0.3-0.6-0.7-1.2-1.1-1.7c-0.5-0.5-0.9-1-1.5-1.4c-0.5-0.4-1.1-0.7-1.7-1c-1.2-0.5-2.4-0.8-3.7-1
					c-1.2-0.1-2.5-0.1-3.7,0.1l-0.1,0l-0.1,0l0,0l-0.1,0l-0.2,0.1l-0.4,0.1l-0.1,0l-0.1,0l-0.2,0.1l-0.5,0.2
					c-0.6,0.2-1.2,0.5-1.8,0.9c-0.6,0.3-1.1,0.7-1.6,1.2c-0.4,0.4-0.9,0.9-1.3,1.4c-0.8,1-1.4,2.1-1.9,3.2c-0.5,1.1-0.9,2.2-1.2,3.4
					c-0.2,0.6-0.3,1.1-0.4,1.7c-0.1,0.3-0.1,0.6-0.1,0.9c0,0.3-0.1,0.6-0.1,0.9l0,0.3l0.1,0.3l0.5,1.2c-0.1,0-0.1,0.1-0.2,0.1
					c-0.4,0.3-0.9,0.6-1.3,0.9c-0.4,0.3-0.8,0.6-1.2,0.9c-0.4,0.3-0.8,0.6-1.2,1c-0.4,0.3-0.8,0.7-1.1,1l-1.1,1l-1.1,1.1
					c-0.4,0.4-0.7,0.8-1,1.1l-0.5,0.6l-0.5,0.6c-0.3,0.4-0.6,0.8-0.9,1.2c-0.6,0.8-1.1,1.7-1.6,2.6l-0.4,0.7l-0.2,0.3l-0.2,0.3
					l-0.7,1.4c-0.2,0.4-0.4,0.9-0.6,1.4l-0.3,0.7l-0.1,0.3l-0.1,0.2l-0.1,0.2l-0.9,2.8l-0.4,1.4c-0.1,0.5-0.3,1-0.4,1.4l-0.8,2.9
					l-0.7,2.9c-0.2,1-0.4,1.9-0.6,2.9c-0.2,1-0.4,1.9-0.6,2.9c-0.2,1-0.3,1.9-0.5,2.9c-0.1,0.3-0.1,0.6-0.1,0.9
					c-0.2-0.1-0.4-0.1-0.6-0.2c-0.8-0.3-1.6-0.6-2.4-0.9c-0.8-0.3-1.6-0.6-2.5-0.8c-0.8-0.3-1.7-0.5-2.5-0.8
					c-0.8-0.2-1.7-0.5-2.5-0.7l-1.3-0.3c-0.4-0.1-0.9-0.2-1.3-0.3c-0.9-0.2-1.7-0.4-2.6-0.5c-0.9-0.2-1.7-0.3-2.6-0.4
					c-0.9-0.1-1.7-0.2-2.6-0.3l-1.3-0.1l-0.7,0l-0.7,0l-2.6-0.1c-0.4,0-0.8,0-1.3,0l-1.3,0l-1.3,0c-0.5,0-0.9,0-1.3,0l-1.3,0.1
					c-0.4,0-0.9,0.1-1.3,0.1c-0.9,0.1-1.8,0.2-2.6,0.3l-0.7,0.1l-0.7,0.1c-0.2,0.1-0.5,0.1-0.7,0.2l-0.3,0.1c-0.1,0-0.3,0.1-0.4,0.2
					l-0.6,0.2l-0.2,0.7l-8.5,25.2l-0.4,0c-0.5,0-1.1,0-1.6,0c-1.1,0.1-2.2,0.3-3.2,0.6c-1.1,0.3-2.1,0.9-3,1.6
					c-0.9,0.8-1.7,1.7-2.2,2.7c-0.5,1-0.9,2.1-1,3.2c-0.2,1-0.2,2.2-0.1,3.4c0.1,1.1,0.5,2.3,1.1,3.3c0.6,1,1.4,2,2.3,2.6
					c1,0.7,2,1.2,3.2,1.5c1.1,0.3,2.3,0.4,3.5,0.2c1.1-0.1,2.3-0.5,3.3-1c0.3-0.1,0.5-0.3,0.8-0.4c0.2-0.2,0.5-0.3,0.7-0.5
					c0.2-0.2,0.5-0.4,0.7-0.6l0.3-0.3l0.1-0.1l0,0l0.1-0.1l0,0l0.1-0.1l0.5-0.6c0.1-0.1,0.2-0.2,0.2-0.3l0.3-0.4l0.5-0.7
					c0.1-0.2,0.3-0.5,0.4-0.7c0.3-0.5,0.5-1,0.7-1.5c0.2-0.5,0.3-1.1,0.4-1.6c0.2-1.1,0.2-2.2,0.1-3.3l-0.1-0.8
					c-0.1-0.3-0.1-0.6-0.2-0.8c-0.1-0.2-0.1-0.4-0.2-0.6c0.6-0.6,1.2-1.1,1.8-1.7c0.8-0.7,1.7-1.5,2.6-2.2c0.9-0.7,1.8-1.3,2.7-1.9
					c0.9-0.6,1.9-1.1,2.8-1.5c0.5-0.2,0.9-0.3,1.4-0.4c0.2-0.1,0.5-0.1,0.7-0.1l0.3,0l0.1,0l0.2,0l0.5,0l0.2,0c0.1,0,0.1,0,0.2,0
					c0.2,0.1,0.4,0.1,0.7,0.1c0.5,0.1,1,0.3,1.5,0.5c1,0.4,2,0.9,3,1.4c0.5,0.3,0.9,0.5,1.4,0.8c0.5,0.3,0.9,0.6,1.4,0.9
					c0.5,0.3,0.9,0.6,1.4,1c0.5,0.3,0.9,0.7,1.4,1c0.9,0.7,1.8,1.4,2.6,2.2c0.9,0.7,1.7,1.5,2.5,2.3l0.1,0.1l0,0l0.1,0.1l0.3,0.3
					l0.3,0.3c0.1,0.1,0.2,0.2,0.3,0.3l0.4,0.6l0.2,0.3l0.2,0.3l0.4,0.7c0.2,0.2,0.3,0.5,0.4,0.7c0.1,0.2,0.2,0.5,0.4,0.7l0.3,0.7
					c0.1,0.2,0.2,0.5,0.3,0.8l0.3,0.8c0.2,0.5,0.3,1,0.5,1.6c0.2,0.7,0.4,1.5,0.6,2.3c-0.3-0.1-0.7-0.1-1.1-0.1
					c-0.4,0-0.8,0.2-1.1,0.3c-0.7,0.3-1.1,0.7-1.5,1.1c-0.2,0.2-0.3,0.4-0.5,0.6c-0.1,0.2-0.3,0.4-0.4,0.6l-1.3,2.1l-2.6,4.3
					c-0.4,0.7-0.9,1.5-1.3,2.2l-1.3,2.2l-0.2,0.4l0,0.5c0,0.2,0,0.5,0,0.8c0,0.3,0,0.5-0.1,0.8c0,0.2-0.1,0.4-0.2,0.6c0,0,0,0,0,0
					l-0.3,0.1l-0.9,0.2l-1.8,0.4l-7.2,1.8l-14.3,3.5l-29.7,7.3l-0.1,1.1c-0.1,1.4-0.2,2.8-0.3,4.2c0,1.4,0,2.8,0,4.1
					c0.1,1.4,0.1,2.8,0.3,4.1c0.1,0.9,0.2,1.8,0.3,2.7c-0.1,0-0.2-0.1-0.3-0.1c-1.9-0.5-3.6,0.3-4.8,1.7c-2,2.3-2.2,5.5-1.9,8.6
					c-1.8,0.2-3.5,0.8-5.1,2c-2.8,2.2-3.4,5.6-2.9,9c-1.5,0-3.3-0.3-4.7,0.2c-1,0.4-2.5,1.4-3.3,2
					C195.7,257.3,198.6,264.4,198.6,264.4z M201.8,267.3c-2-3.4-2.5-6.7-1.1-10.4c0.4-1.1,2.1-0.5,1.7,0.5c-1.2,3.3-0.8,6,1,9
					C204,267.4,202.4,268.3,201.8,267.3z M205.1,276.9l-2.2-0.7c-2.3-0.8-5-2-6.5-3.4l-0.4-0.4c0,0-0.2-0.3-0.2-0.4c0,0,0,0,0,0
					c0-0.1,0.1-0.1,0.1-0.2c0,0,0.1-0.1,0.2-0.2c0.6-0.6,1.2-0.9,2-1.3c1-0.5,2.1-0.9,3.2-1.1c0,0.1,0.1,0.1,0.1,0.2l3,4
					c1.5,1.7,3.1,3.2,5,4.3c-0.6-0.1-1.1-0.1-1.7-0.2c-0.1,0-0.3-0.1-0.4-0.1c-0.2,0-0.3-0.1-0.5-0.1
					C206.2,277.2,205.6,277.1,205.1,276.9L205.1,276.9z M214.6,273.5c0.1,0.1,0.2,0.2,0.2,0.2c0,0,0,0,0,0.1
					c-0.2,0.2-0.7,0.2-0.7,0.2c0,0-0.4-0.1-0.5-0.1c-0.2-0.1-0.4-0.1-0.6-0.2c-0.5-0.2-0.8-0.4-1.5-0.8c-1.4-0.9-2.7-2.1-3.9-3.4
					c0.7,0.2,1.5,0.5,2.1,0.8c1.2,0.6,2.4,1.2,3.5,2C213.8,272.8,214.2,273.1,214.6,273.5z M213.4,266.3c-3-1.6-6.3-2.5-9.7-2.6
					c-0.2-0.4-0.3-0.8-0.4-1c-0.1-0.2-0.1-0.4-0.2-0.7c0-0.1,0-0.2-0.1-0.2c0,0,0,0,0,0c-0.1-1.1,0.2-2.3,0.6-3
					c0.4-0.6,0.9-0.8,1.8-1c0.6-0.1,0.5-0.1,1.3,0c0.4,0,1.2,0.1,1.4,0.1c0.4,0.9,0.7,1.8,1.1,2.5
					C210.4,262.6,211.8,264.6,213.4,266.3z M211.6,246.2c-1.5,2-2.5,4.4-1.6,7c0.4,1.1-1.4,1.5-1.7,0.4c-1-3,0.1-5.9,1.8-8.4
					C210.8,244.3,212.3,245.3,211.6,246.2z M217.3,243.7c-0.9-2.8-0.8-5.7,0.2-8.5c0.4-1.1,2.1-0.5,1.7,0.5c-0.9,2.5-0.9,5-0.2,7.6
					C219.4,244.4,217.7,244.8,217.3,243.7z M331.4,104.4c-0.1,0.2-0.2,0.4-0.3,0.5c0-0.2,0-0.3-0.1-0.5
					C331.2,104.4,331.3,104.3,331.4,104.4C331.5,104.3,331.4,104.4,331.4,104.4z M249.9,177.4c0,0.4-0.2,0.8-0.3,1.2
					c-0.2,0.4-0.3,0.8-0.5,1.1c-0.1,0.2-0.2,0.4-0.3,0.5l-0.3,0.5l-0.2,0.3c0,0.1-0.1,0.2-0.2,0.3l-0.5,0.6l-0.1,0.1l0,0l-0.1,0
					l-0.2,0.2c-0.1,0.1-0.3,0.3-0.4,0.4c-0.2,0.1-0.3,0.2-0.5,0.3c-0.2,0.1-0.3,0.2-0.5,0.3c-0.7,0.4-1.5,0.6-2.3,0.7
					c-0.6,0.1-1.1,0.1-1.7,0c-0.4-0.6-0.9-1-1.3-1.5c-0.1-0.1-0.1-0.2-0.2-0.3c0.5-0.2,1.1-0.4,1.6-0.6c0.6-0.3,0.3-1.1-0.3-1.1
					c-0.7-0.1-1.3-0.2-1.9-0.4l0-0.1c-0.2-1.9,0.9-3.7,0.8-5.6c0,0,0,0,0,0c-1.7,0.7-2.8,3.2-3.3,5.1c0,0,0,0-0.1,0
					c-0.1,0-0.2,0-0.2,0c0-0.2-0.1-0.3-0.1-0.4c-0.1-0.8-0.1-1.6,0.1-2.5c0.1-0.9,0.4-1.6,0.7-2.3c0.4-0.7,0.9-1.3,1.4-1.8
					c0.6-0.5,1.3-0.9,2.1-1.1c0.8-0.3,1.6-0.4,2.5-0.5c0.5,0,0.9,0,1.3,0l0.3,0c0,0.1,0.1,0.1,0.2,0.2c0.5,0.4,1.1,0.6,1.6,0.8
					c0.6,0.3,1.3,0.7,1.9,1c0.2,0.1,0.4,0.2,0.7,0.2c0,0,0,0,0,0.1c0.1,0.2,0.1,0.4,0.2,0.6c0.1,0.2,0.1,0.4,0.1,0.6l0.1,0.6
					C250.1,175.8,250.1,176.6,249.9,177.4z M220.9,242.4C220.8,242.4,220.8,242.3,220.9,242.4c-0.4-1.7-0.6-3.3-0.5-4.9
					c0-0.4,0.1-0.8,0.3-1.2c0.5,0.7,1.4,1,2.2,0.8c0.3,1.3,0.7,2.7,1.2,4c0.1,0.4,0.3,0.7,0.4,1l0.4,1c0.2,0.5,0.4,0.9,0.6,1.3
					C223.9,243.6,222.4,242.9,220.9,242.4z M230.8,256.4c-0.1,0-0.1-0.1-0.2-0.1c-0.5-0.3-0.9-0.6-1.3-0.9c-0.7-0.5-1.6-1.4-2.4-2.3
					c-0.8-0.9-1.6-1.8-2.3-2.7c-0.4-0.4-0.7-0.8-1-1.3c0,0-0.2-0.2-0.3-0.4c0.9,0.5,1.7,1,2.5,1.5c1.8,1.2,4.2,3.1,4.8,4.9
					C230.8,255.8,230.9,256,230.8,256.4z M232.2,260.6c-0.4,0-0.8-0.2-1.1-0.5c-0.4-0.3-0.3-1,0.1-1.3c0.3-0.3,0.8-0.3,1.1-0.1
					c0.5,0,0.9,0.4,0.8,0.9C233.1,260.2,232.7,260.6,232.2,260.6z M276.5,232.5l-0.3,0.2l-0.3,0.2l-2.6,1.7l-0.3,0.2l-0.2,0.1
					l-0.1,0l-0.1,0.1l-0.7,0.5c-0.4,0.3-0.9,0.7-1.3,1.1c-0.8,0.7-1.6,1.5-2.4,2.3c-0.4,0.4-0.7,0.8-1.1,1.2c-0.3,0.4-0.7,0.8-1,1.3
					c-0.7,0.9-1.3,1.7-2,2.6c-0.6,0.9-1.3,1.8-1.8,2.7c-0.6,0.9-1.2,1.8-1.7,2.7c-1.1,1.9-2.1,3.7-3.1,5.6c-0.5,0.9-1,1.9-1.4,2.9
					l-0.7,1.5c-0.2,0-0.4,0-0.6,0c-0.3-0.1-0.5-0.1-0.8-0.1l-0.9-0.2c-0.3-0.1-0.6-0.2-0.9-0.3c-0.6-0.1-1.2-0.4-1.8-0.6
					c-0.6-0.2-1.2-0.5-1.8-0.7c-0.6-0.2-1.2-0.5-1.8-0.8c-0.6-0.3-1.2-0.5-1.8-0.8c-0.6-0.3-1.2-0.6-1.8-0.9l-1.7-0.9
					c-0.6-0.3-1.2-0.7-1.7-1l-0.9-0.5l-0.4-0.3l-0.2-0.1l-0.1,0l0,0l-0.1-0.1l-0.8-0.5c-0.3-0.2-0.5-0.3-0.8-0.5l-0.7-0.5
					c-0.1-0.1-0.3-0.2-0.4-0.3l-0.4-0.3l-0.7-0.6c-0.2-0.2-0.4-0.4-0.7-0.6c-0.2-0.2-0.4-0.4-0.6-0.7l-0.6-0.7
					c-0.4-0.4-0.8-1-1.1-1.4c-0.4-0.5-0.7-1-1-1.6c-0.3-0.6-0.6-1.1-0.9-1.6c-0.3-0.6-0.6-1.1-0.8-1.7l-0.4-0.9
					c-0.1-0.3-0.2-0.6-0.4-0.9c-0.5-1.2-0.9-2.4-1.3-3.7c-0.4-1.2-0.7-2.5-0.9-3.8c-0.3-1.3-0.5-2.6-0.7-3.9
					c-0.2-1.3-0.3-2.6-0.4-3.9c-0.1-1.3-0.2-2.6-0.2-4c0-0.9,0-1.9,0-2.8l27.5-6.7l14.3-3.5l3.3-0.8c-0.9,1-1.7,2.1-2.2,3.3
					c-0.7,1.7-0.6,3.6,0.4,5.1c0.9,1.3,2.2,2,3.7,2.4c-0.5,0.4-0.9,0.8-1.2,1.1c-1.7,2-2.1,4.9-1.9,7.4c0.1,0.6,0.2,1.1,0.4,1.6
					c-0.8,0.4-1.5,0.8-2,1.1c-2.2,1.3-4.1,3.2-5.8,5.1c-3.2,3.7-5.6,8-7.6,12.6c-0.2,0.4,0.4,0.6,0.6,0.3c2.5-3.6,5-7.2,7.8-10.5
					c1.6-1.8,3.3-3.5,5.3-4.9c0.9-0.6,1.9-1.1,2.9-1.5c0.5,0.4,0.9,0.8,1.5,1.2c-1.3,0.7-2.6,1.4-3.8,2.3c-2.5,1.8-4.8,3.9-6.8,6.1
					c-4,4.5-7.3,10.2-8.8,16.1c-0.1,0.3,0.4,0.6,0.5,0.2c2.7-5.1,5.7-9.8,9.6-14.1c2-2.2,4.3-4.2,6.7-5.9c1.1-0.8,2.3-1.4,3.5-2.1
					c0.9-0.5,2.1-0.7,2.7-1.5c0.7,0.1,1.3,0.1,2,0.1L276.5,232.5z M273,227.8c-0.1-0.2-0.2-0.5-0.4-0.6c-0.1-0.1-0.2-0.1-0.3-0.2
					c-0.3-0.4-0.5-0.9-0.7-1.5c-0.5-1.6-0.1-3.5,0.5-5c0.6-1.6,1.9-2.2,3-3.4c0,0,0-0.1,0-0.2c0-0.1-0.1-0.1-0.1-0.2
					c0.1-0.6-0.2-1.3-1-1.3c-3.3-0.1-5.9-1.8-4.8-5.4c0.6-2,2-3.4,3.7-4.3l0.6-0.2l1.8-0.4l0.9-0.2l0.1,0c0.2,1.3,0.7,2.5,1.8,3.6
					c1,0.9,2.1,1.6,3.3,2.1c-0.3,0.9-0.6,2-0.8,2.9c-0.5,2-0.8,4.1-0.7,6.1c0,2.4,0.6,5.4,2.1,7.5
					C279.4,227.8,275.4,229.4,273,227.8z M287.3,227c-0.1-0.2-0.2-0.4-0.3-0.5c-1.1-1.2-2.4-1.8-3.2-3.3c-0.8-1.4-1.1-3-1.3-4.6
					c-0.2-1.7-0.1-3.4-0.1-5.1c0-0.8,0.1-1.6,0.2-2.4c1.6,0.4,3.4,0.5,5.1,0.4c-0.1,0.2-0.1,0.5-0.2,0.7c-0.7,2.8-0.9,5.5-0.6,8.4
					c0.2,2,0.8,4,1.7,5.9L287.3,227z M341.7,229.1l-1.2,0.7c-0.3-0.5-0.7-0.9-1.1-1.2c1.2-0.4,2.3-1.2,2.9-2.2
					C341.9,227.3,341.7,228.1,341.7,229.1C341.7,229.1,341.7,229.1,341.7,229.1z M353.2,201.4l-0.1,0.9c0,0.3-0.1,0.6-0.1,0.9
					c-0.1,0.3-0.1,0.6-0.2,0.9l-0.2,0.9c-0.1,0.3-0.2,0.6-0.2,0.8c-0.1,0.3-0.2,0.6-0.3,0.8c-0.1,0.1-0.1,0.3-0.2,0.4
					c0,0.1-0.1,0.3-0.1,0.3l-0.2,0.4l0,0.5c0,0.2,0,0.4,0,0.6l0,0.7c0,0.5,0,0.9-0.1,1.4l-0.1,0.7l-0.1,0.7
					c-0.1,0.5-0.2,0.9-0.2,1.3c-0.1,0.4-0.2,0.9-0.4,1.3c-0.1,0.2-0.1,0.4-0.2,0.6l-0.2,0.6c-0.1,0.4-0.3,0.8-0.5,1.3
					c-0.2,0.4-0.4,0.8-0.6,1.2c-0.1,0.2-0.2,0.3-0.3,0.5c0,0-0.1,0-0.1,0.1c-1,0.6-2.1,1.1-3,1.9c-0.2-0.3-0.4-0.6-0.7-0.7
					c0,0-0.1,0-0.1,0c-0.9,0.9-1.2,2.7-1.6,3.9c-0.1,0.2-0.2,0.5-0.3,0.7c0.5-1.5,0.7-3.1,1-4.6c0.5-2.4,1.7-4.4,2.2-6.8
					c0.1-0.3,0.1-0.6,0.1-1c0,0.1,0.1,0.1,0.2,0.1c2.2-0.2,3.3-1.9,3.9-3.8c0.7-0.9,1.2-2,1.5-3c0.9-2.3,1.1-5.2,0.9-7.6
					c-0.1-1.3-0.5-3-1.3-4.2c0.5-0.3,1.1-0.6,1.6-0.9l0,0.2l0.1,3.8l0,1.9c0,0.3,0,0.6,0,0.9l0,0.9
					C353.3,200.8,353.3,201.1,353.2,201.4z M342.1,201.2C342.1,201.2,342.2,201.2,342.1,201.2c0.2-0.2,0.4-0.3,0.7-0.3
					c0.2,0,0.4,0.1,0.6,0.3c0.1,0.2,0.3,0.4,0.2,0.6c-0.1,0.2-0.1,0.3-0.1,0.5c-0.1,0.1-0.2,0.2-0.3,0.3c-0.2,0.1-0.3,0.1-0.5,0.1
					c-0.5,0-0.8-0.4-0.8-0.9c0-0.1,0-0.2,0.1-0.3c-0.3-0.5-0.6-1.1-0.8-1.6c2.8-1.8,5.6-3.5,8.6-5.1c0.6,0.9,1.2,1.7,1.5,3
					c0.4,2,0.1,4-0.7,5.9c-0.6,1.6-1.3,3.2-2.6,4.4c-0.7,0.6-1.4,0.7-2.1,0.6c-0.3-0.9-0.7-1.7-1.1-2.5c0,0,0,0,0,0
					c0.2-0.1,0.4-0.1,0.6-0.2c1.3-0.7,1.9-1.9,2.1-3.2c0.2-1.4-0.4-3.1-1.9-3.4l-0.1,0c0,0,0,0,0,0c-1-0.3-1.9,0.1-2.5,0.9
					c-0.2,0.3-0.5,0.7-0.6,1.1C342,201.3,342.1,201.3,342.1,201.2z M349,210.1c-0.6,0.9-1.3,1.6-2.5,1.8c-0.1,0-0.1,0.1-0.2,0.1
					c0-0.4-0.1-0.9-0.1-1.3c0.6,0.1,1.3,0,1.9-0.2C348.4,210.4,348.7,210.3,349,210.1z M352.5,180.8l1.4,1.3
					c-0.8,0.2-1.6,0.5-2.2,0.7c-2.3,1-4.2,2.5-5.9,4.4c-0.2,0.2,0,0.7,0.3,0.5c1.6-1.1,3.3-2,5-2.8c0.9-0.4,1.9-0.7,2.9-0.9
					c0.6-0.1,1.2-0.1,1.7,0l2.7,2.6c-5.2,2.5-10.3,5.1-15.1,8.2c-0.1-1.1-0.2-2.1-0.6-3.1c-0.1-0.3-0.6-0.1-0.6,0.1
					c-0.1,1.5-0.5,2.9-0.9,4.2c0,0.1,0,0.1,0,0.2c-0.2,0.1-0.4,0.3-0.6,0.4c-0.3-4.5-1.3-10.8-5.2-9.9c-0.3,0.1-0.3,0.4,0,0.5
					c2.1,0.9,2.4,4,2.6,5.9c0.2,1.8,0.1,3.6,0,5.4c-0.4,0.4-0.4,1.1-0.1,1.7c0,0.1,0.1,0.2,0.1,0.3c0,0.1,0.1,0.2,0.1,0.2
					c0.9,1.9,2.1,3.7,3.2,5.5c1.1,2,2.7,4.5,2.2,6.8c-0.4,2-1.6,3.8-2,5.8c-0.4,1.7-0.8,3.4-1.4,5c-0.2,0-0.3,0-0.5,0
					c-1.5,0.3-1.7-1.2-2-2.3c-0.3-1.1-0.4-2.2-0.9-3.2c-0.9-2.1-2.3-3.3-4.4-4c-0.1,0-0.1,0.1,0,0.1c2.8,1.8,3.9,4.1,4.3,7.4
					c0.2,1.6,0.4,3.2,1.4,4.1c-0.5,0.2-1,0.2-1.1,0.1c-0.7-1.8-1-3.6-1.5-5.5c-1.2-3.5-4.3-5.4-7.7-6.2c1.3-2.2,3.5-3.9,4.4-6.4
					c0.1-0.3-0.3-0.4-0.5-0.2c-1.8,2.6-4.7,4-6.3,6.8c-0.3,0.5-0.1,1.4,0.5,1.5c2.6,0.5,5.2,1.5,6.6,3.8c1.1,1.8,1.3,4.4,1.6,6.4
					c0,0.1,0.1,0.2,0.1,0.3c-1.9-1-3.7-2.1-5.8-3c-6.9-2.8-14.3-3.8-21.4-6c1-0.8,1.8-1.6,2.3-2.8c0-0.1-0.1-0.3-0.2-0.3
					c-1.5,0.1-3,0.9-4.3,1.6c-1.3,0.7-2.8,1.5-3.7,2.7c-2.4,2.9-1.5,6.6,0.1,9.7c0.8,1.4,3.3,0.6,2.7-1c-0.8-2.4-1.7-4.8-0.2-6.9
					c0.6,2.9,1.6,5.7,2.2,8.6c0.4,1.8,0.7,3.6,1,5.5c0.3,2,0.7,3.9,1.2,5.8c0.4,1.5,0.9,3.2,2.1,4.3c1.3,1.1,3.2,0,4.5-0.7
					c2.1-1.1,3.9-2.4,6.1-3.4c3.1-1.4,6.2-2.5,9.5-3.4c1.4-0.4,2.9-0.8,4.4-0.9c1.1-0.1,2.2,0.2,3.2,0.2l1.2,4.1
					c-1.1,0-2.3,0.3-3.2,0.4c-2.2,0.3-4.4,1-6.5,1.8c-3.1,1.2-7.8,3.5-8.9,7c-0.1,0.2,0.1,0.3,0.3,0.2c1.5-0.7,2.8-1.6,4.3-2.3
					c1.7-0.9,3.6-1.4,5.5-1.9c1.5-0.4,3-0.7,4.5-0.9c0,0.1,0,0.1-0.1,0.2c0,0.1-0.1,0.2-0.1,0.3c-1.5-0.5-3.5,0.4-4.8,1.1
					c-1.8,0.8-3.3,2-4.7,3.3c-0.1,0.1,0,0.2,0.1,0.2c1.7-0.7,3.4-1.4,5.2-1.9c1.2-0.3,2.6-0.3,3.8-0.6c-0.1,0.6-0.1,1.2-0.1,1.8
					c0,1.8,0.2,3.5,0.6,5.2c0.2,0.8,0.4,1.7,0.7,2.5l0.2,0.6l0.2,0.6l0,0.2l0.1,0.2l0.2,0.4c0,0.1,0.1,0.2,0.2,0.4l0.2,0.3
					c0.3,0.5,0.6,0.9,1,1.2c-1.6-0.4-3.1-1.1-4.4-2.4c-0.2-0.2-0.6,0.1-0.4,0.4c3,3.7,7.2,4.3,11.6,4.2l0,0c0.8,0,1.6,0,2.4-0.1
					c-0.3,0.2-0.6,0.4-0.9,0.5c-0.4,0.2-0.8,0.5-1.2,0.7l-1.2,0.7l-1.2,0.6c-0.4,0.2-0.8,0.4-1.2,0.6l-1.2,0.6l-1.2,0.6
					c-0.8,0.4-1.6,0.7-2.4,1.1c-0.4,0.2-0.7,0.3-1.1,0.4l-0.6,0.2l-0.1,0l-0.2,0.1l-0.3,0.1l-1.3,0.4c0,0,0,0,0,0c0,0,0,0-0.1,0
					c0,0-0.1,0-0.1,0c-0.3,0-1-0.2-1.6-0.6c-0.7-0.3-1.3-0.8-2-1.2c-1.4-1-2.7-2.1-4-3.3c-1.3-1.2-2.6-2.5-3.9-3.8
					c-1.3-1.3-2.5-2.7-3.8-4c-1.2-1.4-2.5-2.8-3.7-4.2c-2.4-2.8-4.8-5.7-7.2-8.6c-2.3-2.9-4.7-5.8-7-8.7l-1.3-1.6c0,0,0,0,0,0
					c-0.1-0.3-0.2-0.6-0.4-0.9c-1.1-1.4-2.2-2.9-3.3-4.3c-1.6-2.2-3.5-4.3-4.2-6.9c-1.6-5.7,0.8-11.4,0.6-17.1
					c-0.2,0-0.3,0.1-0.4,0.3c-0.5,0.9-0.9,2-1.2,3.1c-0.3,0-0.5,0-0.8,0c-2.4,0.3-5.4,0.2-7.4-1.5c-2-1.7-1.6-3.9-1.6-6.2l1-1.7
					c0.4-0.7,0.8-1.5,1.3-2.2l2.6-4.3l1.3-2.1c0.1-0.1,0.2-0.3,0.3-0.4c0.1-0.1,0.2-0.3,0.3-0.4c0.2-0.2,0.4-0.4,0.5-0.4
					c0.1,0,0.1-0.1,0.2,0c0.1,0,0.3,0.1,0.4,0.3c0.2,0.2,0.4,0.4,0.6,0.7c0.1,0.1,0.2,0.3,0.3,0.4l0.1,0.2l0.1,0.2l3.4,6.7l-0.2-3.5
					c1.2,0.2,2.5,0.1,3.6,0c2-0.1,3.9-0.5,5.7-1.2c0.8-0.3,1.5-0.5,2-1.1c0.5-0.7,0.6-1.5,1-2.3c1-2,2.8-3.6,4.6-4.9
					c1.9-1.4,4-2.6,6.1-3.7c1.5-0.8,3.4-2.4,5.2-2.5c1.6-0.1,2.8,3.7,3.4,4.8c0.5,0.9,1,2.1,1.6,3.2c-0.2-0.1-0.5-0.2-0.7-0.3
					c0-0.2-0.2-0.5-0.4-0.6c-4-2-8.5-1.1-12.3,0.8c-0.2,0.1-0.1,0.4,0.2,0.4c2-0.6,3.8-0.8,5.7-0.7c-0.9,0.2-1.8,0.5-2.6,0.8
					c-5.6,1.9-9.3,7.9-9.2,13.8c0,3.2,1.4,6.1,3.4,8.3c-1.2-0.3-2.4-0.8-3.4-1.7c-2.3-2.1-2.3-5.5-1.7-8.3c0,0-0.1,0-0.1,0
					c-1.1,2.9-1.3,5.8,0.8,8.3c1.5,1.7,4.1,3,6.5,3.5c2.1,1.4,4.5,2.1,7.1,2c-2.8,1.1-5.6,1.1-8.4-0.2c-0.1,0-0.2,0.1-0.1,0.1
					c2.7,1.6,5.8,2.3,8.9,1.4c2.3-0.7,4.6-2,6.4-3.8c1.7-1.2,3.1-2.6,4.2-4c1.1-1.4,1.8-2.8,2.3-4.3c1.2,2.1,3.7,3.6,5.6,4.6
					c0.2,0.1,0.5-0.1,0.3-0.3c-0.9-1-2-1.9-2.7-3.1c-0.5-0.8-0.7-1.6-0.8-2.5c0.8-0.5,1.4-1.5,0.7-2.5c-1.7-2.8-3.1-5.8-4.5-8.7
					c0-0.2,0-0.3,0-0.5c-0.2-0.8-0.7-1.5-1.1-2.2c1.5-0.3,2.9-0.9,4.4-1.4c2.2-0.6,4.5-1.3,6.7-1.8c2.3-0.5,4.5-1,6.8-1.3
					C348.4,181.1,350.5,181,352.5,180.8z M335.8,232c0.2,0.2,0.4,0.3,0.7,0.4l0.3,0.9l0.1,0.3c-1.6-0.2-3.4,0-4.7,0.2
					c-3.1,0.5-6.2,1.7-9.1,2.8c-2.4,0.9-4.8,1.8-6.9,3.1c-0.9,0.5-1.7,1.1-2.6,1.6c-0.6,0.3-1.4,1-2.1,1.1c0.3-0.1-0.2-0.5-0.3-0.9
					c-0.3-0.8-0.5-1.7-0.7-2.6c-0.5-1.9-0.7-3.8-1.1-5.8c-0.4-2.8-1.2-5.7-2.2-8.5c0-1.3-0.2-2.6-0.4-3.9c1.1,0.3,2.2,0.6,3.3,0.9
					c-0.9,0.5-1.6,1.3-1.7,2.4c0,0.1,0.1,0.2,0.2,0.1c1-1.3,2.4-1.7,3.8-1.9c4.2,1.1,8.5,2,12.7,3.1c3.3,0.9,6.3,2.4,9.5,3.8
					c1.1,0.5,2.2,0.6,3.4,0.8c0.4,0.1,0.6,0.5,0.7,1l-1.1,0.7l-0.8,0.5c-0.2-0.1-0.5-0.3-0.7-0.4C335.8,231.6,335.7,231.9,335.8,232
					z M326.2,189.5c0.1,0.1,0.2,0.1,0.3,0c0,0.1,0.1,0.2,0.1,0.3c0,0.2,0.1,0.3,0.2,0.5c0.1,0.2,0.2,0.3,0.2,0.5
					c0.5,1.2,1,2.4,1.5,3.6c0.6,2.1,0.7,4.3,0,6.5c-1.2,3.6-4.7,6.3-8,7.8c-6.3,2.8-13.3-1.4-13.7-8.3c-0.3-4.9,2.5-10.3,7.1-12.4
					c2.1-1,4.6-1.5,7-1.4c1.1,0,2.3,0.2,3.4,0.7C325.1,187.8,325.6,188.7,326.2,189.5z M375.5,141.3l-0.4-0.3l-0.1-0.1l0,0l0,0
					c-0.2-0.1-0.3-0.2-0.4-0.2l-0.3-0.1c-0.1,0-0.2-0.1-0.3-0.1l-0.4-0.1c-3.6-3-10-2.9-14.2-2.2c-4.9,0.8-11.7,3.2-13,8.5
					c0,0,0,0,0,0c3.2-3.9,8.3-5.6,13.2-6.1c1.1-0.1,2.2-0.2,3.2-0.2l-0.1,0l-0.5,0.1c-0.3,0.1-0.7,0.1-1,0.2c-0.7,0.2-1.4,0.4-2,0.7
					c-0.3,0.1-0.7,0.3-1,0.4l-0.9,0.5c-0.3,0.1-0.6,0.3-0.9,0.5l-0.4,0.3c-0.2,0.1-0.3,0.2-0.4,0.3c-0.3,0.2-0.6,0.4-0.8,0.6
					l-0.8,0.7l-0.8,0.7c-0.2,0.2-0.5,0.5-0.7,0.7c-0.2,0.2-0.5,0.5-0.7,0.8c-0.2,0.3-0.5,0.5-0.7,0.8c-0.2,0.3-0.4,0.6-0.6,0.9
					c-0.1,0.1-0.2,0.3-0.3,0.4c0,0.1-0.1,0.1-0.1,0.2c0,0.1-0.1,0.1-0.2,0.3l-0.2,0.4l0,0.4l1.3,24.6c0-0.1-0.1-0.2-0.1-0.3
					c-0.8-1.9-1.3-3.9-1.8-5.9c-1-4.2-1.5-8.5-2.1-12.7c0-0.3-0.5-0.3-0.5,0.1c0,4.2,0,8.3,0.6,12.5c0.3,2,0.6,4.2,1.4,6.1
					c0.3,0.9,0.7,2,1.1,3c-0.2,0-0.3,0-0.5,0c-0.3-0.7-0.8-1.3-1.2-1.9c-0.6-1-1.1-2.1-1.4-3.2c-0.1-0.3-0.6-0.2-0.5,0.1
					c0.2,1.2,0.4,2.4,0.7,3.6c0.1,0.6,0.3,1.2,0.6,1.7c-2.6,0.5-5.1,1.1-7.6,1.7c-2.5,0.6-4.9,1.4-7.3,2.2c-1.6,0.6-3.4,1.1-4.9,2
					c-0.2-0.3-0.3-0.6-0.4-0.9c0.7-0.3,1.4-0.7,2-1c1.3-0.6,2.6-1.1,3.9-1.5c2.5-0.9,5.1-1.5,7.7-1.9c0.5-0.1,0.4-0.8-0.1-0.9
					c-2.7-0.4-5.4,0.2-8,1c-1.3,0.4-2.6,0.9-3.9,1.4c-0.8,0.3-1.8,0.6-2.6,1.1c-0.4-0.8-0.9-1.6-1.3-2.4c-0.8-1.4-1.7-2.8-3-3.7
					c-1.3-0.8-2.7-0.6-4.1,0c-0.5,0.2-1,0.3-1.4,0.6c-2.2,1-4.3,2.3-6.3,3.5c-0.7,0.4-1.4,0.8-2.1,1.3c-1.3,1.3-2.5,2.6-3.7,4
					c-1.2,1.5-2.3,3.1-3.9,4.4c0,0,0,0.1,0,0.1c-0.5,1.7-2.5,2-4.2,2.4c-0.2,0.1-0.4,0.1-0.6,0.1c1.2-7.2-2.5-14.7-5.4-21.1
					c-0.1-0.3-0.6-0.1-0.4,0.2c1.3,3.4,2.6,6.8,3.5,10.3c0.9,3.7,0.8,7,0.2,10.6c0,0.1,0,0.2,0,0.3c-0.7,0.1-1.4,0.2-2.1,0.3
					l-0.2-2.3c0-0.7-0.1-1.3-0.2-1.9l-0.1-0.9l-0.2-0.9c-0.2-1.2-0.5-2.4-0.8-3.5c-0.2-0.6-0.4-1.2-0.6-1.7l-0.3-0.9
					c-0.1-0.3-0.2-0.6-0.4-0.9l-0.4-0.8c-0.1-0.3-0.3-0.6-0.4-0.8c-0.2-0.3-0.3-0.6-0.5-0.8l-0.5-0.8l-0.2-0.4l-0.3-0.4l-0.6-0.8
					c-0.1-0.2-0.2-0.2-0.3-0.4l-0.3-0.3l-0.3-0.3l-0.2-0.2l-0.1-0.1l0,0l0,0l-0.1-0.1c-0.9-0.8-1.7-1.6-2.6-2.4
					c-0.9-0.8-1.8-1.5-2.8-2.3c-0.5-0.4-1-0.7-1.4-1.1c-0.5-0.3-1-0.7-1.5-1c-0.5-0.3-1-0.7-1.5-1c-0.5-0.3-1.1-0.6-1.6-0.9
					c-1.1-0.6-2.2-1.1-3.4-1.6c-0.6-0.2-1.2-0.4-1.8-0.6l-1-0.2l-0.2,0l-0.2,0l-0.4,0l-0.2,0l-0.3,0l-0.6,0c-0.3,0-0.7,0.1-1.1,0.2
					c-0.7,0.1-1.3,0.3-1.9,0.6c-1.2,0.5-2.3,1.1-3.3,1.7c-1,0.6-2,1.4-3,2.1c-1,0.7-1.9,1.5-2.8,2.3c-0.8,0.7-1.5,1.3-2.2,2.1
					c-0.6-0.3-1.4-0.6-2.1-0.8l8.5-25.4c0.1,0,0.3-0.1,0.4-0.1l1.2-0.2c0.8-0.1,1.6-0.2,2.4-0.3c0.4,0,0.8-0.1,1.2-0.1l1.3-0.1
					c0.4,0,0.8-0.1,1.2-0.1l1.1,0c-1.4,0.4-2.7,1-3.9,2c-3.1,2.3-4.1,6.1-6,9.3c0,0,0,0.1,0.1,0c2.3-2.8,3.7-5.9,6.9-7.9
					c3.1-1.9,7.2-1.7,10.7-1.4c7.8,0.7,15.5,2.4,22.9,5.1c0.6,0.2,1.1,0,1.5-0.3c0.6,0,1.2-0.4,1.2-1.1c0.3-2.7-0.2-5.4-0.1-8.1
					c0-1.5,0.2-2.9,0.3-4.4l0.6-2.4l0.8-2.7c0.1-0.4,0.3-0.9,0.4-1.4l0.5-1.4l0.9-2.8l0-0.1l0,0l0,0l0.1-0.2l0.1-0.3l0.3-0.6
					c0.2-0.4,0.3-0.9,0.5-1.3l0.6-1.2l0.1-0.3l0.2-0.3l0.3-0.6c0.4-0.8,1-1.6,1.5-2.3c0.3-0.4,0.6-0.8,0.8-1.1l0.4-0.5l0.5-0.5
					c0.3-0.4,0.6-0.7,0.9-1.1l1-1l1-1c0.3-0.3,0.7-0.6,1.1-0.9c0.3-0.3,0.7-0.6,1.1-0.9c0.4-0.3,0.7-0.6,1.1-0.8
					c0.4-0.3,0.8-0.5,1.2-0.8c0.2-0.1,0.4-0.2,0.6-0.4c0.1-0.1,0.2-0.1,0.3-0.2l0.3-0.1l1.2-0.7l-0.5-1.2l-0.8-2.1
					c0-0.1,0-0.3,0-0.4c0.1-0.2,0.1-0.5,0.1-0.7c0.1-0.5,0.2-1,0.3-1.5c0.3-1,0.6-2,1-2.9c0.4-0.9,0.9-1.8,1.5-2.5
					c0.3-0.4,0.6-0.7,0.9-1c0.3-0.3,0.7-0.6,1.1-0.8c0.4-0.2,0.8-0.4,1.2-0.6l0.3-0.1l0.2-0.1l0.1,0l0.1,0l0.4-0.1l0.2,0l0,0l0.1,0
					c1-0.2,1.9-0.2,2.9-0.1c0.9,0.1,1.9,0.3,2.7,0.7c0.4,0.2,0.8,0.4,1.2,0.7c0.4,0.3,0.7,0.5,1,0.9c0.3,0.3,0.5,0.7,0.7,1.1
					c0.2,0.4,0.3,0.8,0.4,1.2c0.2,0.8,0.2,1.8,0,2.7c0,0.1-0.1,0.3-0.1,0.5c-0.1,0-0.1,0-0.2,0c-0.5,0.1-1,0.2-1.5,0.3
					c-0.7-2.3-2.2-4.5-3.8-5.9c-0.1-0.1-0.2,0-0.1,0.1c1.4,1.8,2,4,2.1,6.2c-1.5,0.3-2.9,0.5-4.3,0.1c-0.1,0-0.2,0.1-0.1,0.2
					c1.3,1.1,2.8,1.5,4.3,1.5c-0.2,1-0.6,1.9-1.1,2.8c-3.1,0.7-6.4,0.5-9.2-1.4c-0.1-0.1-0.3,0.1-0.2,0.2c2.3,2.3,5.6,2.8,8.7,2.1
					c0,0.1-0.1,0.1-0.1,0.2c-0.6,0.2-1.2,0.4-1.8,0.5c-1,0.1-2,0.2-3,0.1c-0.5,0-1-0.1-1.5-0.2c-0.3,0-0.5-0.1-0.7-0.1l-0.3-0.1
					l-0.3-0.1l-1.3-0.3l-0.6,1.2l-2.6,5.6l-0.7,1.4l-0.1,0.3l-0.2,0.4c-0.1,0.3-0.2,0.6-0.3,0.8c-0.2,0.6-0.3,1.2-0.4,1.7
					c0,0.3-0.1,0.6-0.1,0.9c0,0.3,0,0.6-0.1,0.9c0,0.6,0,1.2,0.1,1.7c0.1,0.6,0.1,1.1,0.3,1.7c0.1,0.6,0.3,1.1,0.4,1.6
					c0.2,0.5,0.3,1,0.5,1.6c0.4,1,0.9,2,1.4,3c0.3,0.5,0.5,0.9,0.8,1.4c0,0,0,0,0.1,0.1c-0.4,0.4-0.9,0.8-1.2,1.3
					c-7.5-5.8-3.3-14.9-0.1-22c0-0.1-0.1-0.2-0.2-0.1c-5.6,7-8.2,17.4-0.9,24.2c0.3,0.3,0.7,0.4,1,0.3c0.1,0,0.1,0,0.2,0.1
					c1.1,0.1,2.2-0.5,3.2-1.2l0.1,0.1l0.4-0.4c0.1-0.1,0.3-0.2,0.4-0.3c1.2-0.9,2.3-1.6,3-2.8c2.2-1.1,4.2-2.5,6.3-3.8
					c3.2-2,6.5-3.4,10.3-4.1c1.3-0.3,2.7-0.6,4-0.8c0.5,0,1.1,0,1.6,0l1.1,0l1.1,0l2.2,0.1l1.1,0.1l1.1,0.1l1.1,0.1l2.1,0.3
					c0.3,0.1,0.7,0.1,1.1,0.2l1.1,0.2l0.3,0.1l0,0l0.1,0l0.1,0l0.5,0.1c0.3,0.1,0.7,0.2,1,0.3l0.5,0.1l0.5,0.2
					c1.3,0.5,2.6,1.1,3.8,1.9c1.2,0.7,2.4,1.6,3.5,2.5c2.2,1.8,4.3,3.9,6.1,6.2c0.9,1.1,1.8,2.3,2.7,3.5c0.4,0.6,0.8,1.2,1.2,1.8
					c0.4,0.6,0.8,1.2,1.1,1.8L375.5,141.3z M392.2,148.8c-0.1-0.2-0.3-0.3-0.6-0.4c-0.1,0-0.3-0.1-0.4-0.1c-0.1-1.3-0.5-2.6-1.1-3.6
					c-0.5-0.8-1.8-0.4-1.6,0.6c0.2,0.8,0.3,1.6,0.3,2.5c-0.6-0.1-1.2-0.2-1.9-0.4c-1.1-0.2-2,1.3-0.9,1.9c0.7,0.4,1.4,0.7,2.1,0.9
					c0,0,0.1,0,0.1,0c-0.4,0.9-1.2,1.7-1.9,2.3c-0.6,0.1-1.2,0.3-1.8,0.4c-0.9,0.1-1.9,0.2-2.8,0.1c-0.2,0-0.4-0.1-0.6-0.1l-0.3-0.1
					l-0.1,0l-0.1,0l-0.1,0c0,0-0.1,0-0.1,0l-0.4-0.2l-0.1,0l-0.1-0.1c-0.1,0-0.1-0.1-0.2-0.2c-0.6-0.4-1-1-1.2-1.8
					c-0.2-0.7-0.2-1.6,0-2.5c0.1-0.4,0.2-0.9,0.3-1.3c0.1-0.2,0.1-0.5,0.2-0.7l0.1-0.3c0-0.1,0.1-0.2,0.1-0.3l0.5-1.2l-0.3-0.2
					l0.8-1c0,0,0.1-0.1,0.2-0.2l0.2-0.3c0.2-0.2,0.3-0.4,0.5-0.5c0.3-0.4,0.7-0.7,1-1c0.4-0.3,0.8-0.6,1.1-0.8
					c0.4-0.2,0.8-0.4,1.2-0.6c0.4-0.2,0.8-0.3,1.2-0.3c0.4,0,0.8-0.1,1.1,0c0.8,0.1,1.5,0.5,2.2,1c0.7,0.5,1.3,1.2,1.8,2l0.4,0.7
					l0.1,0.1l0,0l0,0l0.1,0.1l0.2,0.3l0.2,0.3c0.1,0.1,0.1,0.2,0.2,0.3c0.1,0.2,0.2,0.4,0.3,0.6c0.3,0.8,0.5,1.7,0.4,2.4
					C392.6,147.7,392.5,148.3,392.2,148.8z"/>
				<path d="M275.9,201.9C275.9,201.9,275.9,201.9,275.9,201.9L275.9,201.9L275.9,201.9z"/>
				<path d="M230.6,257c0-0.1,0-0.1,0-0.1c0,0,0,0,0,0C230.6,256.9,230.6,257,230.6,257z"/>
				<path d="M256.1,259.5C256.1,259.5,256.1,259.5,256.1,259.5C256.1,259.5,256.1,259.5,256.1,259.5
					C256.1,259.5,256.1,259.5,256.1,259.5z"/>
				<path d="M346.1,222.6C346.1,222.6,346.1,222.6,346.1,222.6L346.1,222.6C346.1,222.6,346.1,222.6,346.1,222.6z"/>
				<path d="M286.4,196.1c-0.5-0.4-1.2-0.3-1.7-0.1c-0.1,0.1-0.2,0.2-0.4,0.3c0.3,0.8,0.5,1.6,0.6,2.4c0,0.2,0,0.4-0.1,0.5
					c0.2,0.2,0.4,0.3,0.6,0.5c-0.1,0.1-0.2,0.1-0.2,0.2c-0.5,0.5-0.8,1.1-1.1,1.7c-0.3,0.6-0.3,1.4-0.3,2.1c0,0.7,0.9,0.8,1.1,0.2
					c0.4-0.9,1.1-1.7,1.9-2.3c0.1-0.1,0.2-0.2,0.3-0.3c0.5,0.7,0.9,1.4,1.3,2.2c0.2,0.3,0.7,0.3,0.8-0.1
					C290,201,288.3,197.5,286.4,196.1z"/>
				<path d="M321.2,199.3C321.2,199.3,321.2,199.3,321.2,199.3c0.1-1.9-0.4-3.7-1.3-4.8c-0.8-0.9-2.1-1-3.2-0.5
					c-1.6,0.7-2.4,2-2.7,3.5c0,0,0.1,0,0.1,0l0,0c0,0,0,0,0,0c0,0,0,0,0,0l0,0c0,0,0.1,0,0.1-0.1c0.1,0,0.3-0.1,0.4,0l0,0
					c0.2,0,0.4,0,0.6,0.2c0.1,0.1,0.2,0.1,0.3,0.2c0,0,0,0,0,0c0.3,0.2,0.3,0.7,0.2,1c-0.1,0.4-0.3,0.8-0.6,1.1
					c-0.3,0.3-0.7,0.4-1.1,0.5c-0.1,0-0.1,0-0.2,0c0.1,0.5,0.2,1,0.4,1.5c0.2,0.6,0.7,1.2,1.2,1.5c0.4,0.4,0.9,0.6,1.5,0.7
					c0.4,0.1,0.9,0.1,1.3,0C320.5,203.6,321.5,201.4,321.2,199.3z"/>
				<path d="M334.1,230.9c-2.2-0.7-4.5-0.3-6.7-0.2c-1.1,0-2.1-0.1-3.2-0.2c-0.9-0.1-0.9,0.4-1.4-0.5c-0.7-1.1-2.1-1.2-3.1-0.5
					c-1,0.7-1.4,1.7-2,2.7c-1.2-0.9-1.9-2.3-2.5-3.7c-0.3-0.5-0.9-0.5-1.3-0.2c-1,0.8-1.7,1.9-2,3.2c-1-0.6-1.6-1.8-2-2.9
					c-0.1-0.2-0.5-0.1-0.4,0.2c0.5,1.6,1.3,2.6,2.4,3.8c0.2,0.2,0.6,0.2,0.8-0.1c0.4-0.8,0.8-1.5,1.4-2.2c0.7,1.8,1.7,3.4,3.4,4.5
					c0.6,0.4,1.2,0.1,1.6-0.3c0.6-0.8,1-2.2,1.8-2.9c0,0,0.1,0.1,0.1,0.1c0.2,0.3,0.3,0.5,0.5,0.8c0.4,0.5,1.2,0.6,1.8,0.6
					c0.6,0,1-0.2,1.7-0.1c0.8,0.1,1.7,0,2.6-0.1c2.2-0.3,4.4-0.5,6.5-0.9C334.6,231.9,334.6,231.1,334.1,230.9z"/>
				<path d="M347.2,151.4c0-0.5,0-1-0.1-1.4c-0.1-0.4-0.8-0.3-0.7,0.2c0.1,0.4,0.1,0.8,0.1,1.3C346.5,151.8,347.2,151.8,347.2,151.4
					z"/>
				<path d="M288.5,167c-0.1-0.2-0.3-0.4-0.6-0.6c-0.3-0.2-0.7-0.1-0.9,0.2c-0.2,0.3-0.1,0.7,0.2,0.9c0,0,0,0,0,0
					c0,0,0.1,0.1,0.1,0.1c0,0,0.1,0.1,0.1,0.1c0,0,0,0,0,0c0,0,0.1,0.1,0.1,0.1c0.2,0.2,0.3,0.3,0.5,0.5c0.4,0.3,1.1-0.3,0.8-0.7
					C288.7,167.4,288.6,167.2,288.5,167z"/>
			</g>
		</g>
	</g>
	<path d="M260.2,287.9l-42.8-7l-24.4-4l-7.3-1.2l-13.1-3.8l-2.2-3.4l-0.9-3.4l-4.9-18.1l-4.2-15.6c0,0,0,0,0,0
		c1.1-0.9,0.3-2.3-0.8-2.7l0-0.1l-0.7-0.1l-91.5-8.3l-1.7-0.2l-0.6,1.4l-8.3,19.7l-0.2,0.5l0.3,0.4L90.5,300l5,34.3
		c0.6-0.2,1.3-0.3,2-0.5l-4.5-31c0.1,0,0.3,0,0.4,0c4.2-1.9,8.3-4,12.4-6c0.6,0,1.2-0.3,1.6-0.8c1.5-0.7,3-1.4,4.5-2.1
		c0.7-0.3,1.5-0.6,2.2-1c0.7-0.3,1.4-0.6,2.1-0.9c0.3-0.2,0.7-0.3,1-0.4c0,0,0.1,0,0.1,0c1.4-0.6,2.7-1.1,4.1-1.7h0
		c0.5-0.2,1-0.4,1.6-0.6c2.7-1.1,5.4-2.1,8.1-3.1c0.8-0.3,1.6-0.6,2.4-0.9c1.2-0.5,2.5-0.9,3.7-1.3c0.8-0.3,1.5-0.5,2.3-0.8
		c0.9-0.3,1.8-0.6,2.7-0.9c0.7-0.2,1.4-0.5,2-0.7c0.2-0.1,0.4-0.1,0.6-0.2c7.7-2.4,15.6-4.4,23.6-5.6c1.4,11-0.8,22-0.4,33
		c0,0.3,0.4,0.3,0.4,0c0-11,1.8-22.1,0.6-33.1c0.9-0.1,1.8-0.3,2.7-0.4l29.8,5.9l55.4,11l-0.1,1.1l-0.2,2.7l-0.9,12.6l-0.4,5.2
		l-2.2,29.5l-0.7,9.3l-2.9,38.1l-75.4,12.3h-0.1c-1.5-13.9-1.7-27.9-2.1-41.9c-0.2-7.3-0.8-14.6-1.4-21.9c-0.6-7.5-1.8-15-2.2-22.6
		c0,0-0.1,0-0.1,0c-0.4,7.3-0.9,14.6-0.9,21.9c0.1,7.3,0.4,14.6,0.6,21.9c0.5,14,0.7,28,2.2,42L106,392.2l-6.8-46.9
		c-0.7,0.2-1.3,0.5-1.9,0.8l6.7,45.8l0.2,1.3l0.1,0.7l0.7,0.2l68.9,14.5l0.5,0.1l0.5-0.1l76-15.8l0.8-0.2l0.1-0.8l0.1-1l2-19.6v0
		l0.6-5.8l0.2-1.8v0l0.6-6.4l1.4-13.7l0.9-8.6l0.1-1.4v-0.1l0.9-8.5l1-9.3l0.2-1.5l0.6-5.6l0.2-1.6l0.4-3.6l0.4-3.5l0.6-6.1l0.2-2
		l0.1-1.1l0.2-2.3L260.2,287.9z M155.9,230.3c-1.7,1.1-3.3,2.4-5,3.5c-1.2,0.7-2.4,1.4-3.8,1.8c-1.5,0.4-3.4,0.1-4.9-0.1
		c-3.5-0.4-6.8-0.7-10.3-0.7c-4.2,0-8.4-0.1-12.6-0.1c-8.1-0.1-16.3,0.2-24.4-0.4c-4.1-0.3-8.2-0.8-12.3-0.9
		c-3.3-0.1-6.6,0.2-9.8-0.5c-1.2-2.7-2.3-5.4-3.9-7.9L155.9,230.3z M92.8,301.9l-0.3-2.3l0-0.2l-0.1-0.2l-33.5-57.6l8.8-15.3
		c2,5,3.6,10.2,5.7,15.2c2.6,6.3,6.5,12.1,9.8,18.1c6.7,11.9,13.2,23.9,20.5,35.4C99.8,297,96.1,299.2,92.8,301.9z M143.7,279
		c-0.2,0-0.3,0.1-0.5,0.2c-0.7,0.2-1.4,0.5-2,0.7c-2.4,0.8-4.7,1.6-7.1,2.5c-0.5,0.2-1.1,0.4-1.6,0.6c-0.7,0.2-1.4,0.5-2,0.8
		c-0.5,0.2-1.1,0.4-1.6,0.6c-0.1,0-0.2,0.1-0.3,0.1c-0.9,0.3-1.8,0.7-2.7,1c-1,0.4-2,0.8-3,1.2c-2,0.8-4,1.6-5.9,2.4
		c-0.3,0.1-0.7,0.3-1,0.4c-0.7,0.3-1.4,0.6-2.1,0.9c-0.9,0.4-1.8,0.8-2.7,1.2c-1.4,0.6-2.8,1.2-4.2,1.9
		c-7.4-11.6-13.9-23.7-20.8-35.5c-3.5-6-7.3-11.8-10.3-18c-0.9-1.8-1.7-3.7-2.5-5.5c2.3,1,4.9,1,7.4,1.2c4.3,0.4,8.5,0.9,12.8,1.3
		c8.7,0.9,17.6,0.7,26.3,0.8c4.2,0.1,8.4,0.2,12.6,0.3c3.6,0.1,7.1,0.5,10.7,0.9c1.5,0.2,3,0.2,4.3-0.1c0.6,2.8,1.4,5.6,2,8.4
		c0.8,3.5,1.4,7.1,2.2,10.6c0.7,3.3,1.6,6.6,2.7,9.8c0.5,1.6,1.2,3.2,1.9,4.7c0.4,0.8,0.8,1.8,1.3,2.6
		C152.9,276.2,148.3,277.6,143.7,279z M159.6,274c-0.5-1-1.1-2-1.6-2.9l-1.6-3.9c0,0-2.6-8.9-3.1-11c-0.8-3.4-1.5-6.7-2.5-10
		c-0.8-2.7-1.6-5.6-3.1-8.1c1.2-0.3,2.5-0.8,3.7-1.5c2.3-1.3,4.3-2.9,6.3-4.5l4.6,17l3,11.2c0,0.1,0.1,0.1,0.1,0.2l1.8,6.7l1.2,4.5
		C166.2,272.2,161.9,273.4,159.6,274z"/>
	<path d="M209.1,294.5c2,0.7,4,1.2,6.1,1.6L209.1,294.5z"/>
	<path d="M250,301.8c0.3-0.5,0.1-1.1-0.4-1.5c-0.2-0.2-0.4-0.3-0.6-0.3h0c-0.9-0.4-2-0.4-3-0.5c-0.4,0-0.8-0.1-1.2-0.1
		c0,0-0.1,0-0.1,0c-1-0.4-2.1-0.6-3.2-0.8c-1.7-0.4-3.3-0.7-5-1c-3.2-0.6-6.4-1.1-9.5-1.6c-3.1-0.5-6.1-0.9-9.2-1.4
		c-3.4-0.5-6.7-1.1-10.1-1.2c-0.3,0-0.4,0.4-0.1,0.5c0.5,0.2,1,0.4,1.6,0.6l6.1,1.6c-2.1-0.4-4.1-0.9-6.1-1.6l-7.2-1.9
		c-0.1-0.6-0.7-0.7-1.2-0.5c0,0-0.1-0.1-0.2-0.1c-3.7-1.2-8-1.6-12-2c-3.7-0.4-7.5-0.8-11.3-0.9c-0.1-0.6-0.9-0.6-1.1,0
		c-0.3,0.1-0.3,0.4-0.1,0.6c-0.8,8.5-1.2,17-1.6,25.5c-0.4,8.9-0.5,17.7-0.5,26.6c0.1,8.5,0.5,17,0.9,25.4c0.4,8.2,0.7,16.5,2,24.7
		c0.2,1,1.4,1.3,2.2,0.9c2.2-1.2,4.8-1.9,7.2-2.6c2.5-0.6,4.7-1.5,7.3-1.8c5-0.5,10-0.6,14.9-1.1c10.9-1.2,21.8-2.6,32.8-3.8
		c0.7,0.8,2.4,0.5,2.3-0.9v-0.3c0-0.2,0-0.5,0-0.7c-0.1-6.8,0.9-13.6,1.7-20.4c1-7.4,2-14.8,2.3-22.3c0.2-4.1,0.4-8.2,0.8-12.2
		c0,0,0,0,0,0c0.2-2.6,0.5-5.3,0.9-7.9c0,0,0-0.1,0-0.2c0.5-3.2,0.9-6.3,1-9.5C250.7,306.7,250.8,304.1,250,301.8z M247.9,309.8
		c-0.3,1.6-0.6,3.1-0.9,4.7c0,0,0,0,0,0c-0.3,1.6-0.7,3.2-1,4.8c-1.3,6.5-1.7,13-2.1,19.6c-0.5,7.2-0.3,14.5-1.1,21.6
		c-0.7,6.8-1.3,13.7-1.6,20.5c-11.2,1.2-22.4,2.8-33.7,4c-5.1,0.5-10.3,0.7-15.5,1.2c-4.1,0.5-8.5,1.2-12.4,2.8
		c-1.2-7.5-2.2-15.1-2.6-22.7c-0.5-8.2-0.7-16.5-0.7-24.8c0-17.2,2.9-34.5,0.9-51.7c3.6,1.1,7.2,1.6,10.9,2.3
		c3.8,0.6,7.7,1.6,11.5,2.1l31,4.5l-13.7-2.4c2.9,0.5,5.9,0.9,8.7,1.3c1.7,0.3,3.5,0.5,5.2,0.8c0,0.1,0,0.2,0,0.3l2.9,0.4
		c2.2,0.8,4.5,1.3,6.8,1.8c1.4,0.3,2.9,0.6,4.3,0.8c0,0,0.1,0,0.1,0c0.7,0.1,1.4,0.3,2.1,0.4c0.3,0.1,0.7,0.1,1.1,0.1
		c-0.1,1.8-0.1,3.6-0.3,5.3c0,0,0,0,0,0C248,308.5,248,309.2,247.9,309.8z"/>
	<path d="M166.6,388.8c-1.4-3.8-1.4-8.1-1.5-12.1c-0.1-4.4-0.4-8.7-0.8-13c-0.8-8.8-1.7-17.5-1.7-26.3c0-8.3,0.6-16.7,0.6-25
		c0-3.9,0.1-7.9,0-11.8c-0.1-3.7-0.3-7.7-1.5-11.2c-0.3-0.8-1.3-0.8-1.6-0.1c-10.2,2.5-20.7,4.9-30.4,8.9c-4.8,2-9.5,4.3-14.1,6.5
		c-4.5,2.2-9,4.2-13.4,6.7c-0.1-0.3-0.3-0.4-0.6-0.4c-0.3,0-0.6,0.2-0.6,0.6c0.3,5.8,1.4,11.7,1.9,17.5c0.1,1.3,0.2,2.6,0.3,4
		c0.6-0.1,1.3-0.2,1.9-0.2c-0.2-1.5-0.3-2.9-0.5-4.4c-0.6-5.4-1-11-2.4-16.3c4.5-1.3,8.7-3.3,12.9-5.3c4.9-2.3,9.9-4.5,14.9-6.6
		c9.6-4,19.9-6.1,29.8-9c0,3.2,0.2,6.3,0.2,9.5c0,3.9-0.2,7.9-0.3,11.8c-0.2,8.5-0.4,17.1-0.1,25.6c0.3,8.5,1.4,16.9,2.7,25.3
		c0.7,4.5,1.4,8.9,1.5,13.4c0.1,3.9,0.3,7.7,0.5,11.5c-4.6-0.6-9.2-1.2-13.7-2.2c-4.8-1.1-9.9-1.5-14.8-2.2
		c-4.7-0.7-9.4-1.4-14.1-2.3c-3.7-0.7-7.4-2-11.2-1.7c-0.9-5.4-2-10.7-2.5-16.3c-0.6-5.9-1.1-11.7-1.6-17.6
		c-0.1-1.1-0.2-2.1-0.3-3.2c-0.8,0.3-1.5,0.5-2.2,0.8c0.1,1,0.1,2,0.2,3c0.4,5.9,0.8,11.8,1.5,17.6c0.6,6,0.9,12,2,17.9
		c0.2,0.9,1.2,1.4,2.1,1.2c4-1,8.6,0.8,12.6,1.5c4.7,0.8,9.4,1.5,14.1,2.2c4.7,0.7,9.3,1.4,14,1.7c2.4,0.1,4.8,0,7.1,0.3
		c2.4,0.2,4.9,0.5,7.3,0.9C165.4,390.5,167,389.9,166.6,388.8z"/>
	<path class="st3" d="M374.3,292c0-0.2-0.3-0.2-0.3,0"/>
	<g>
		<g id="XMLID_1_">
			<path d="M123.2,345.4c-0.1,0.1-0.1,0.1-0.2,0.2c0,0-0.1-0.1-0.1-0.1C123,345.4,123.1,345.4,123.2,345.4z"/>
			<path d="M119.5,339.5c-0.1,0-0.3-0.1-0.3-0.2c0.3,0,0.6-0.1,0.8-0.3h0c0.1,0,0.2,0,0.3,0c0.2,0,0.2-0.2,0.2-0.3
				c0.9-0.8,1.1-1.9,1.2-3.1c0-0.3,0.1-0.7,0.1-1.2C121.8,336.1,121.4,339.6,119.5,339.5z"/>
			<path d="M118.4,347.4c-0.1,0-0.2,0-0.2,0c-0.2,0-0.3-0.1-0.3-0.2C118,347.3,118.2,347.4,118.4,347.4z"/>
			<path d="M120.5,338.7c0,0.1,0,0.2-0.2,0.3c-0.1,0-0.2,0-0.3,0c0.1,0,0.2-0.1,0.3-0.2C120.4,338.8,120.5,338.8,120.5,338.7z"/>
			<path d="M120.5,338.7c0,0-0.1,0.1-0.1,0.1c-0.1,0.1-0.2,0.1-0.3,0.2h0c-0.3,0-0.6,0.1-0.9,0.2c0-0.1-0.1-0.2-0.1-0.3
				c0.3-0.1,0.6-0.2,0.8-0.4h0.4C120.4,338.5,120.5,338.6,120.5,338.7z"/>
			<path d="M119.1,339.2c0.3-0.1,0.6-0.1,0.9-0.2c-0.2,0.2-0.5,0.3-0.8,0.3C119.2,339.3,119.1,339.3,119.1,339.2z"/>
			<path d="M119.8,338.5c-0.2,0.2-0.5,0.3-0.8,0.4c0-0.1,0-0.3,0-0.3C119.3,338.5,119.6,338.5,119.8,338.5z"/>
			<path d="M119.2,339.4c-0.6,0.2-1.2,0.2-1.8,0.2c0,0,0,0,0-0.1c0.6-0.1,1.2-0.2,1.7-0.3C119.1,339.3,119.2,339.3,119.2,339.4z"/>
			<path d="M119,338.5c0,0.1,0,0.2,0,0.3c-0.3,0.1-0.5,0.1-0.8,0.1c0.1-0.1,0.2-0.1,0.3-0.2c0.1-0.1,0.2-0.2,0.3-0.3h0
				C118.9,338.5,119,338.5,119,338.5z"/>
			<path d="M118.2,339c-0.1,0.1-0.3,0.1-0.5,0.2c-0.2,0-0.3,0-0.3-0.1C117.6,339.1,117.9,339,118.2,339z"/>
			<path d="M117.9,338.6c-0.2,0.1-0.4,0.1-0.6,0.2c0-0.1,0.1-0.1,0.2-0.2l0,0l0,0C117.7,338.6,117.8,338.6,117.9,338.6z"/>
			<path d="M117.4,339.6c-0.2,0-0.4,0-0.6,0C117,339.6,117.2,339.5,117.4,339.6C117.4,339.6,117.4,339.6,117.4,339.6z"/>
			<path d="M117.5,338.6c-0.1,0.1-0.2,0.1-0.2,0.2c-0.3,0.1-0.6,0.2-0.9,0.3c0,0-0.1,0,0-0.1c0.2-0.1,0.5-0.2,0.7-0.4
				C117.2,338.6,117.4,338.6,117.5,338.6z"/>
			<path d="M127.7,322.6c-1.6-2-5.3-1.3-7.6-0.3c-0.9-0.3-2.1-0.1-3.1,0.6c-2.6,1.9-3.3,5.8-3.3,8.8c-2.8,0.4-5.7,0.6-8.5,1
				c-0.6,0.1-1.3,0.2-1.9,0.2c-0.4,0-0.8,0.1-1.1,0.2c-1.5,0.2-3.1,0.5-4.6,0.8c-0.7,0.2-1.3,0.3-2,0.5c-3,0.8-5.9,2.1-8.2,4.1
				c-4.5,3.8-3.3,10.7-3.4,15.9c0,4,1.1,9.7-3.3,11.7c-3,1.3-6.4,1.4-9.5,2.3c0.2,0.5,0.3,1,0.5,1.6c2.5,0,5-0.8,7.3-1.4
				c2.2-0.6,4.5-1.3,5.8-3.3c1.5-2.2,1.1-5.4,1.1-8c0.1-3.6,0-7.3,0.2-10.9c0.2-4.6,2.5-6.9,6.5-8.8c1.1-0.5,2.2-0.9,3.4-1.3
				c0.6-0.2,1.3-0.4,2-0.6c1.3-0.3,2.6-0.6,3.9-0.8c0.6-0.1,1.2-0.2,1.8-0.3c0.6-0.1,1.3-0.2,2-0.3c4.5-0.6,9.1-1.1,13.4-2.6
				c0.1,0.1,0.2,0.1,0.3,0c0.3-0.2,1,0.6,1.1,0.9c0.2,0.4,0.1,0.9,0.1,1.2c0,0.2,0,0.3,0,0.5v0c-0.2,0.9-0.3,1.8-0.8,2.6
				c-0.5,0.9-1.4,1.3-2.3,1.7c0.1,0,0.3,0,0.4,0l0,0l0,0c0.1,0,0.2,0,0.3,0c-0.2,0.1-0.4,0.1-0.6,0.2c-0.3,0.1-0.6,0.2-0.9,0.3
				c0,0-0.1,0,0-0.1c0.2-0.1,0.5-0.2,0.7-0.4c-3.8,0.2-7.5,1-11.1,2c-0.7,0.2-1.4,0.5-2.2,0.7c-0.4,0.1-0.8,0.2-1.1,0.4
				c-1.2,0.4-2.6,0.8-3.9,1.3c-0.7,0.2-1.3,0.5-1.9,0.8c-2.6,1.2-4.9,2.8-5.9,5.7c-1,2.8-0.6,6-0.5,8.9c0.1,3.6,1.4,9.2-1.3,11.9
				c-3.7,3.7-10.6,5.2-16,5.4c0.1,0.5,0.2,1.1,0.2,1.6c4.7,0.1,9-0.8,13.3-3c1.8-0.9,4-2,5.3-3.8c1.6-2.3,0.9-5.7,0.8-8.4
				c-0.2-3.4-0.7-7.3-0.1-10.7c0.5-2.8,2.3-4.3,4.5-5.4c0.6-0.3,1.3-0.6,1.9-0.8c0.6-0.3,1.3-0.5,2-0.8c0.9-0.3,1.9-0.7,2.8-1
				c0.7-0.3,1.5-0.5,2.2-0.8c2.9-1,5.8-1.9,8.7-2.6c0.2,0.7,0.4,1.3,0.6,2c0.4,1.9,1.2,4.2,2.4,5.1c0,0,0,0,0,0
				c0.2,0.1,0.3,0.2,0.5,0.2c0.1,0,0.3,0,0.4,0c0,0,0.1,0,0.1,0c2.8,0.3,7-0.8,8.7-3c2.2-2.7,3.2-7.3,3.4-10.7
				C131.2,329.8,130.2,325.7,127.7,322.6z M121.4,344.9c-1.3-0.5-2.3-1-3.1-2.6c-0.4-0.8-0.7-1.7-0.9-2.7c-0.2,0-0.4,0-0.6,0
				c0.2,0,0.4-0.1,0.6-0.1c0.6-0.1,1.2-0.2,1.7-0.3c0-0.1-0.1-0.2-0.1-0.3c-0.3,0.1-0.5,0.1-0.8,0.1c-0.1,0.1-0.3,0.1-0.5,0.2
				c-0.2,0-0.3,0-0.3-0.1c0.2,0,0.5-0.1,0.8-0.1c0.1-0.1,0.2-0.1,0.3-0.2c0.1-0.1,0.2-0.2,0.3-0.3h0c0.1,0,0.2,0,0.2,0
				c0.3,0,0.5,0,0.8,0h0.4c0.1,0,0.2,0.1,0.2,0.2c0.9-0.8,1.1-1.9,1.2-3.1c0-0.3,0.1-0.7,0.1-1.2c0-0.2,0-0.3,0-0.4
				c0-1.5-0.3-3.3-1.6-3.3c0-0.1-0.2-0.2-0.3-0.2c-1.2,0.3-2.3,0.5-3.5,0.7c0.1-3.8,1.1-7.8,4.9-7.1h0.1c2.9,2.5,4.5,6.7,4.5,10.4
				C125.9,336.9,124.2,343.8,121.4,344.9z M130,334.3c-0.2,2.8-1,7-2.9,9.1c-0.9,1.1-2.4,1.6-3.9,2c-0.1,0.1-0.1,0.1-0.2,0.2
				c0,0-0.1-0.1-0.1-0.1c0.1,0,0.2,0,0.3-0.1c2-2,3.8-5.6,4.2-7.2c1.2-5-0.4-12.2-5.2-14.8c0.5-0.1,1-0.1,1.5-0.2
				c2.1,0,2.8,0.5,3.8,2.2C129.1,328.1,130.2,331,130,334.3z"/>
			<path d="M73.2,379.9c-0.3,1.6-0.9,2.6-2.5,3c-1.3,0.4-3.3,0.8-4.4-0.3c-0.5-0.5-0.8-1.3-1-2.1c0.4-0.2,0.9-0.4,1.3-0.6
				c0.3-0.1,0.4-0.4,0.4-0.7l0.3-0.1c0.2,0.7,0.3,1.3,0.6,1.5c1,0.7,2.3-0.7,2.6-1.4c0.3-0.7,0.3-1.4,0.2-2.3
				c0.1,0.1,0.2,0.1,0.4,0.2c0.8,0.1,1.5,0.1,2.3,0.1C73.5,378.2,73.4,379.1,73.2,379.9z"/>
			<path d="M73.4,377.4c-0.7,0-1.5,0-2.2-0.1c-0.2,0-0.3-0.1-0.4-0.2c0-0.3-0.1-0.7-0.2-1.1c0.2-0.1,0.3-0.2,0.6-0.2
				c0.6,0,1.3,0,2.1,0C73.3,376.3,73.4,376.8,73.4,377.4z"/>
			<path d="M73.2,375.7c-0.7,0-1.4,0.1-2.1,0c-0.3,0-0.4,0.1-0.6,0.2c-0.4-1.9-1.2-3.8-1.5-5.3c-0.3-1.4-0.5-2.8-0.3-4.2
				c-0.3,0.2-0.6,0.3-1,0.2c-2.8-1.4-1.6,5.8-1.4,6.6c0.2,1.1,0.4,2.2,0.6,3.3c0.1,0.4,0.2,1.7,0.5,2.8l-0.3,0.1
				c-0.1-0.4-0.5-0.8-0.9-0.6c-0.3,0.1-0.7,0.2-1,0.3c-0.1-0.7-0.2-1.4-0.3-2c-0.5-2.6-1.1-5.4-1.1-8c0-0.2,0-0.5,0.1-0.7
				c0,0,0,0,0,0c0.1-0.2,0.2-0.3,0.1-0.5c0.5-2.2,2.2-4,4.6-2.7c0.2,0.1,0.3,0.2,0.3,0.3c0,0,0-0.1,0-0.1c0.2-0.6,1.1-0.6,1.2,0
				c0.2,0.9,0.5,1.9,0.8,2.9c-0.4,0.1-0.8,0.2-1.1,0.4c-0.5,0.2-0.6,1,0,1.1c0.5,0.1,1.1,0.1,1.7,0.1
				C72.2,371.8,72.9,373.8,73.2,375.7z"/>
			<path d="M70.6,376c0.1,0.4,0.1,0.8,0.2,1.1C70.4,376.8,70.3,376.3,70.6,376z"/>
			<path d="M71.5,369.9c-0.5,0-1.1,0-1.7-0.1c-0.6-0.1-0.5-0.9,0-1.1c0.4-0.1,0.8-0.3,1.1-0.4C71.2,368.8,71.4,369.3,71.5,369.9z"/>
			<path d="M67.1,379.3c0,0.2-0.1,0.5-0.4,0.7c-0.4,0.2-0.9,0.4-1.3,0.6c-0.1-0.5-0.2-1.1-0.3-1.6c0.3-0.1,0.7-0.2,1-0.3
				C66.6,378.6,67,378.9,67.1,379.3z"/>
			<path d="M65.1,378.9c0.1,0.5,0.2,1.1,0.3,1.6c-4.9,2.2-10.5,3-15.7,4c-1.4,0.3-3.3,1.1-4.6,0.1c-1.3-1.1-1.7-4.2-2-5.7
				c-0.3-1.7-1.2-5-0.2-6.6c1-1.5,4-1.9,5.5-2.4c4.6-1.6,10.3-3.6,15.2-2.4c0.2,0,0.2,0.1,0.3,0.2c-0.1,0.2-0.1,0.3-0.1,0.5
				c0,0,0,0,0,0c-0.1,0.1-0.1,0.1-0.2,0.1c-3.7,1.4-7.7,1.9-11.4,3c-1.7,0.5-3.7,0.9-5.2,1.7c-2.5,1.3-2,3.2-1.5,5.7
				c0.4,2.6,0.6,4.3,3.6,3.8c1.9-0.3,3.7-0.6,5.5-1C58.2,380.9,61.7,379.8,65.1,378.9z"/>
			<path d="M64,367.8c0,0.1,0,0.3-0.1,0.5C63.9,368.1,63.9,367.9,64,367.8z"/>
		</g>
	</g>
	<path d="M152.8,355.4c0-0.3-0.2-0.6-0.2-0.9c-0.1-0.8,0-1.5-0.1-2.4c0-0.5-0.4-0.8-0.5-1.2c0.3-0.5,0.4-3,0.3-3.4
		c0-0.5-0.3-0.8-0.3-1.2c0-0.3-0.1-0.7,0-0.9c0.1-0.3,0-0.8,0-1.3c0-0.6-0.4-0.7-0.5-1.1c0-0.3-0.3-2.8-0.1-3l-0.2-1.7
		c0-0.3-0.2-0.6-0.2-0.9c-0.4-0.3-0.3-2.8-0.3-3.1c0-0.6-0.3-1.1-0.4-1.7c-0.1-1.3,0.1-2.3,0-3.6c0-0.2-0.2-0.5-0.3-0.6h0.1
		c0-0.1-0.3-0.5-0.3-0.6c-0.1-0.8,0.5-1.2,0.4-2c-0.1-0.8-0.8-1.8-0.9-3.1c-0.1-1.3-0.1-4.6-0.2-5.9c-0.1-0.6,0.1-0.9,0.1-1.5
		c-0.1-0.8-0.4-1.6-0.5-2.5c0-0.1,0.2-0.5,0.2-0.6l-0.1,0c0.3-0.4,0.1-2.6,0.1-3.1c0-0.3,0.2-0.8,0.1-1.2c0.1-0.1,0.2-0.4,0.5-0.5
		h-0.1c0.6-0.3,0.8-0.6,0.7-1.1c-0.1-0.5-0.3-1-0.8-1c-0.2,0-0.3,0-0.5,0.2l-0.3-0.1V305c-0.4-0.1-0.6-0.2-0.8-0.2
		c-0.8,0.1-1,0.5-1.4,0.5l-0.1,0c-0.4-0.1-0.9,0.8-1.5,0.9c-0.5,0-0.9,0.2-1.5,0.3c-0.9,0.1-2-0.3-3.1-0.2c-0.8,0.1-1.6,1.4-2.2,1.4
		c-0.5,0-0.6,1.2-0.9,1.3c-0.5,0-0.9,0.4-1,0.5c-0.5,0-0.7-0.4-1.2-0.4c-0.5,0.1-1.1,0.8-1,1.3c0,0.6,0.6,0.7,1,1.1l0-0.1
		c1,0.8,0.8,1,0.9,2.2c0.1,0.9,0.5,1.8,0.6,2.6c0.1,0.8-0.2,1.5-0.1,2.3c0.1,0.9,0.3,1.7,0.4,2.6c0,0.5,0.1,0.8,0.2,1
		c0,0.3,0.2,0.5,0.2,0.8c0.1,0.5-0.3,0.4-0.2,1.2c0.1,1.3,0.6,2.3,0.7,3.6c0.1,1.3,0,2.1,0.1,3.4c0,0.5,0.2,1,0.3,1.5
		c0.1,0.8-0.1,1.3,0,1.9c0.1,0.8,0.3,1,0.4,1.8c0.1,0.8,0.1,1.8,0.2,2.6c-0.1,0.1-0.1,0.2-0.1,0.5c0,0.6,0.3,1,0.4,1.8
		c0.1,0.6,0,0.9-0.2,1.2c0.2,1.4,0.4,2.9,0.5,4.3c0.2,1.5,0.8,9.8,0.2,11.1c-0.3,1.1-1.1,1.5-1.9,2.4c-0.4,0.5-0.7,0.9-1.1,1.1v-0.1
		c-0.1,0.1-0.8-0.2-1.2-0.1c-3.1,0.3-3.3,0.1-5.2-2c0-0.1-0.5-0.8-0.7-0.9h0.1c-0.1,0-2-3.6-2-3.7c0-0.3,0.1-0.7,0.2-0.8
		c0.1-0.3,0.2-0.6,0.2-0.9c0-0.2-0.2-0.5-0.4-0.5l0,0.1c-0.4-0.3-0.7-0.8-1-0.7c-0.5,0-1.1,1-1.4,1.4h0.1c-0.1,0.1-0.3,0.3-0.7,0.3
		c-0.6,0-1,0.9-1.2,1.4c-0.5,0-0.8,0.2-1,0.5l0-0.1c-1.2,1-2.3,2.3-3.7,3c-0.1,0.1-0.3,0.4-0.5,0.8h0.1l-0.2,0.4
		c-0.8,0.4-2.4,1.4-2.3,2.2c0.2,2.4,4,5.2,4.1,5.8l2.3,2.3c0.5,0.9,2.3,1.9,3.3,2.1c0.7,0.9,1.7,1.1,2.7,1.5l0.7,0.3
		c0.1,0.1,0.5,0.2,0.4,0.1c1.4,0.4,3.6,0.9,5.1,0.8l5.8-0.6c0.5,0,2.7-0.8,3.1-1.2c0.9-0.7,1.7-1.3,3-1.8c0.6-0.2,1.1-1.2,1.8-1.6
		c0.4-0.4,0.6-0.6,0.9-1c0.3-0.4,0.5-0.5,0.6-0.6c1.3-0.9,3.5-7.3,3.3-9C152.6,357.4,152.9,356.4,152.8,355.4z M149.8,358.4
		c-0.3,0.8-0.2,2.9-0.6,3.4l0-0.1c-0.9,0.5-1.3,2.2-1.8,3.1c-0.9,1.6-2.4,2.7-3.8,3.8c-1,0.7-1.6,1.4-2.8,1.9
		c-1.2,0.5-2.2,0.3-3.5,0.5c-0.8,0.1-1.5,0.4-2.3,0.5c-0.9,0.1-1.8-0.3-2.8-0.2c-0.8,0.1-2.7-0.3-3.4-0.8h0.1
		c-0.6-0.8-1.7-0.9-2.7-1.1c-0.1,0-0.1,0-0.1-0.1l0.1,0.1l0-0.1c-0.2-0.3-0.9-1.1-1.3-1.1c-1-0.3-5.8-4.9-5.9-6.2
		c0-0.1,0.1-0.4,0.2-0.5l-0.1,0l0.1-0.1l0,0.1c0.3-0.4,0.4-0.4,0.8-0.5c0.5-0.4,1-0.7,1.1-1c0-0.3,3.7-3.1,4-3.1
		c0.3,0,0.3,0.2,0.4,0.3c0,0.1,0,0.2,0.2,0.3l0.3,0.5l0.5,1c0.2,0.6,0.5,1,0.7,1.3c0,0.1,0.7,0.9,0.8,1.2c1,1.7,2.4,2,4.2,2.4
		c0.4,0.3,1,0.8,1.4,0.8c0.3,0,0.9-0.4,1-0.6l0.4,0.1h-0.1c0.6,0.3,1.3,0.1,1.9,0c0.3,0,0.8-0.3,1.2-0.5c1.5-0.5,3.5-2.3,4.2-3.9
		c0.4-0.9-0.2-1.9,0.3-3c1.1-2.3,0.1-6.7-0.1-9c0-0.1,0.2-0.5,0.2-0.6h-0.1c0.4-0.5,0-2.3,0-2.9c-0.1-1.1-0.6-2-0.7-3.1l-0.2-1.6
		c0.2-0.4,0.3-0.7,0.2-1.1c0-0.5-0.3-0.7-0.3-1.1c0-0.3-0.1-0.6,0-0.7v0.1c0.1-0.1,0.1-0.4,0.1-0.6c0-0.5-0.3-0.9-0.4-1.4
		c0-0.3,0.1-0.4,0-0.7l0,0.1c0.3-0.9-0.1-2.1-0.2-3s-0.5-1.9-0.6-2.8c-0.1-0.9-0.1-2-0.2-2.9l-0.4-3.8c-0.1-0.8-0.4-1.4-0.1-2.2
		l-0.1-0.9c0-0.5-0.3-0.9-0.4-1.4c-0.1-0.8,0.4-1,0.3-1.4c0-0.5-0.4-0.8-0.5-1.4c-0.1-0.8,0-1.6-0.1-2.4c0.3,0,0.9-1.2,1.3-1.2
		c0.8-0.1,1-1.3,1.9-1l0.9-0.1c0.8-0.1,1.9-1.3,2.7-1.4l-0.1,0.6c0,0.3,0,0.3,0.2,0.5c0,0.2,0,0.3,0.2,0.5l0,3.2
		c0.1,1.3-0.1,2.7,0,4.1c0.1,0.6,0.5,3.3,0.5,3.9c0,0.5-0.2,0.8-0.1,1.3c0,0.6,0.4,0.8,0.5,1.1c0,0.5-0.3,0.8-0.2,1.3
		c0.1,0.8,0.4,1.6,0.5,2.4c0.2,1.5,0.2,3,0.3,4.5c0.1,0.8,0.5,1.5,0.6,2.3c0.1,0.8-0.2,1.6-0.1,2.3c0.1,0.8,0.4,1.5,0.5,2.3l0.3,2.6
		c-0.3,0.4-0.2,0.6-0.1,0.9c0.1,0.6,0.3,1,0.4,1.6c0.3,2.6,0.4,7.5,0.7,10.1c0.1,0.9,0.4,1.7,0.5,2.6
		C150.1,356.9,150.1,357.9,149.8,358.4z"/>
	<path d="M149.8,358.4c-0.3,0.8-0.2,2.9-0.6,3.4l0-0.1c-0.9,0.5-1.3,2.2-1.8,3.1c-0.9,1.6-2.4,2.7-3.8,3.8c-1,0.7-1.6,1.4-2.8,1.9
		c-1.2,0.5-2.2,0.3-3.5,0.5c-0.8,0.1-1.5,0.4-2.3,0.5c-0.9,0.1-1.8-0.3-2.8-0.2c-0.8,0.1-2.7-0.3-3.4-0.8h0.1
		c-0.6-0.8-1.7-0.9-2.7-1.1l0-0.1c-0.2-0.3-0.9-1.1-1.3-1.1c-1-0.3-5.8-4.9-5.9-6.2c0-0.1,0.1-0.4,0.2-0.5c0.3-0.4,0.4-0.4,0.8-0.5
		c0.5-0.4,1-0.7,1.1-1c0-0.3,3.7-3.1,4-3.1c0.3,0,0.3,0.2,0.4,0.3c0,0.1,0,0.2,0.2,0.3l0.3,0.5l0.5,1c0.2,0.6,0.5,1,0.7,1.3
		c0,0.1,0.7,0.9,0.8,1.2c1,1.7,2.4,2,4.2,2.4c0.4,0.3,1,0.8,1.4,0.8c0.3,0,0.9-0.4,1-0.6l0.4,0.1h-0.1c0.6,0.3,1.3,0.1,1.9,0
		c0.3,0,0.8-0.3,1.2-0.5c1.5-0.5,3.5-2.3,4.2-3.9c0.4-0.9-0.2-1.9,0.3-3c1.1-2.3,0.1-6.7-0.1-9c0-0.1,0.2-0.5,0.2-0.6h-0.1
		c0.4-0.5,0-2.3,0-2.9c-0.1-1.1-0.6-2-0.7-3.1l-0.2-1.6c0.2-0.4,0.3-0.7,0.2-1.1c0-0.5-0.3-0.7-0.3-1.1c0-0.3-0.1-0.6,0-0.7v0.1
		c0.1-0.1,0.1-0.4,0.1-0.6c0-0.5-0.3-0.9-0.4-1.4c0-0.3,0.1-0.4,0-0.7l0,0.1c0.3-0.9-0.1-2.1-0.2-3s-0.5-1.9-0.6-2.8
		c-0.1-0.9-0.1-2-0.2-2.9l-0.4-3.8c-0.1-0.8-0.4-1.4-0.1-2.2l-0.1-0.9c0-0.5-0.3-0.9-0.4-1.4c-0.1-0.8,0.4-1,0.3-1.4
		c0-0.5-0.4-0.8-0.5-1.4c-0.1-0.8,0-1.6-0.1-2.4c0.3,0,0.9-1.2,1.3-1.2c0.8-0.1,1-1.3,1.9-1l0.9-0.1c0.8-0.1,1.9-1.3,2.7-1.4
		l-0.1,0.6c0,0.3,0,0.3,0.2,0.5c0,0.2,0,0.3,0.2,0.5l0,3.2c0.1,1.3-0.1,2.7,0,4.1c0.1,0.6,0.5,3.3,0.5,3.9c0,0.5-0.2,0.8-0.1,1.3
		c0,0.6,0.4,0.8,0.5,1.1c0,0.5-0.3,0.8-0.2,1.3c0.1,0.8,0.4,1.6,0.5,2.4c0.2,1.5,0.2,3,0.3,4.5c0.1,0.8,0.5,1.5,0.6,2.3
		c0.1,0.8-0.2,1.6-0.1,2.3c0.1,0.8,0.4,1.5,0.5,2.3l0.3,2.6c-0.3,0.4-0.2,0.6-0.1,0.9c0.1,0.6,0.3,1,0.4,1.6
		c0.3,2.6,0.4,7.5,0.7,10.1c0.1,0.9,0.4,1.7,0.5,2.6C150.1,356.9,150.1,357.9,149.8,358.4z"/>
	<path d="M216.1,346.3c0-2.1-0.8-1.9-0.7-4.3c-0.3-0.8-0.7-0.9-0.6-1.7c0-0.8-0.4-1.7-0.8-2.5c-0.3-0.6-0.2-1.2-0.2-2
		c0-0.8-0.6-1.4-0.9-2.2v-0.3c0-0.8-0.7-1.2-0.5-1.8v-0.6c0-0.8,0-1.5-0.4-2.1c-0.8-1.1-0.8-2.7-1.1-4c-0.1-0.6-0.2-2.7-0.6-2.7
		c-0.1,0-0.2,0.1-0.5,0.3h0.1c-0.1,0.1-0.3,0.3-0.3,0.5s0.1,0.3,0.2,0.7c-1.3,1.7-2,4.7-2,6.7h0.1c-0.1,0.3-0.7,0.7-0.7,1
		c-0.5,2.7-1,4.9-1.9,7.3c-0.6,0.6-1.1,4.8-1.5,5.4c-0.4,1.3-0.9,2-0.9,3.2c0,0.5-0.5,0.6-0.5,1l0.2,0.2c0.8,0.1,1.3,0.3,1.6,0.3
		c1.7,0,3-0.3,4.8-0.3c0.9,0,2,0.3,2.9,0.3c1.3,0,2.2-0.2,3.5-0.2c0.1,0,0.2,0.1,0.3,0.2c0.4,0,0.3,0.1,0.7,0.1
		c0.2,0,0.3-0.1,0.3-0.5C216.9,347.3,216.1,346.9,216.1,346.3z M212.3,346.3c-0.1,0-0.3-0.1-0.5-0.1h0.1c-0.5-0.1-0.8-0.2-0.9-0.3
		c-0.2,0-0.6,0.1-1.1,0.2c-0.8,0-1.4-0.4-2-0.4c-0.6,0-1.3-0.2-1.7,0.3c1-3.1,2.5-8.2,3.2-11.4c0-0.3,0.2-2.2,0.5-2.2
		c0.1,0,0.1,0.6,0.1,0.7c0,0.3,0.1,0.7,0.2,0.8h-0.1c0.8,1.3,0.4,2.5,0.8,3.7c0.2,0.2,0.3,0.6,0.3,1.2c0,0.9,0.7,1.4,0.6,2.3
		c0,0.8,0.4,1.5,0.9,2.3h-0.1c0.1,0.3,0.2,0.6,0.2,0.7c0,0.1-0.1,0.3-0.1,0.5v-0.1c-0.1,0.1-0.1,0.2-0.1,0.5l0.2,0.2l0.3,0.6
		C213.1,346.1,212.9,346.3,212.3,346.3z M216.1,346.3c0-2.1-0.8-1.9-0.7-4.3c-0.3-0.8-0.7-0.9-0.6-1.7c0-0.8-0.4-1.7-0.8-2.5
		c-0.3-0.6-0.2-1.2-0.2-2c0-0.8-0.6-1.4-0.9-2.2v-0.3c0-0.8-0.7-1.2-0.5-1.8v-0.6c0-0.8,0-1.5-0.4-2.1c-0.8-1.1-0.8-2.7-1.1-4
		c-0.1-0.6-0.2-2.7-0.6-2.7c-0.1,0-0.2,0.1-0.5,0.3h0.1c-0.1,0.1-0.3,0.3-0.3,0.5s0.1,0.3,0.2,0.7c-1.3,1.7-2,4.7-2,6.7h0.1
		c-0.1,0.3-0.7,0.7-0.7,1c-0.5,2.7-1,4.9-1.9,7.3c-0.6,0.6-1.1,4.8-1.5,5.4c-0.4,1.3-0.9,2-0.9,3.2c0,0.5-0.5,0.6-0.5,1l0.2,0.2
		c0.8,0.1,1.3,0.3,1.6,0.3c1.7,0,3-0.3,4.8-0.3c0.9,0,2,0.3,2.9,0.3c1.3,0,2.2-0.2,3.5-0.2c0.1,0,0.2,0.1,0.3,0.2
		c0.4,0,0.3,0.1,0.7,0.1c0.2,0,0.3-0.1,0.3-0.5C216.9,347.3,216.1,346.9,216.1,346.3z M212.3,346.3c-0.1,0-0.3-0.1-0.5-0.1h0.1
		c-0.5-0.1-0.8-0.2-0.9-0.3c-0.2,0-0.6,0.1-1.1,0.2c-0.8,0-1.4-0.4-2-0.4c-0.6,0-1.3-0.2-1.7,0.3c1-3.1,2.5-8.2,3.2-11.4
		c0-0.3,0.2-2.2,0.5-2.2c0.1,0,0.1,0.6,0.1,0.7c0,0.3,0.1,0.7,0.2,0.8h-0.1c0.8,1.3,0.4,2.5,0.8,3.7c0.2,0.2,0.3,0.6,0.3,1.2
		c0,0.9,0.7,1.4,0.6,2.3c0,0.8,0.4,1.5,0.9,2.3h-0.1c0.1,0.3,0.2,0.6,0.2,0.7c0,0.1-0.1,0.3-0.1,0.5v-0.1c-0.1,0.1-0.1,0.2-0.1,0.5
		l0.2,0.2l0.3,0.6C213.1,346.1,212.9,346.3,212.3,346.3z M231.6,364.4c0-0.9-0.6,0.5-0.6-0.3c-0.1-1.4-1.6-2-1.6-3.4
		c0-0.6-0.1-1.2-0.3-1.8c-0.9-1.9-2.8-11.3-2.8-11.3c-0.6-0.8-0.1-0.9-0.4-1.8v0.1c-0.1-0.4-0.1-1.1-0.4-1.4c-0.3-0.8-0.5-1.2-0.4-2
		c0-1.4-0.9-2.8-0.8-4.2c-0.5-1.4-0.9-1.3-0.9-3c-0.9-1-0.8-1.4-0.9-2.7c-0.1-0.8-0.1-1.5-0.4-2.1c-0.6-1.4-0.7-4.7-1.1-5.1
		l-0.9-1.9c-0.3-0.8,0-1.3-0.3-2.1c-0.3-1.5-0.9-1.1-1.2-2.9c-0.1-1.3-1-2.1-1-3.4c0-0.2,0-0.3,0.1-0.5v0.1c0.5-0.3,0.7-0.8,0.7-1.4
		c0-0.6-0.2-0.9-0.7-1.1l-0.1-0.4c-5-0.1-9.5-2.2-14.5-2.3c-0.6,0-1.2,0.7-1.2,1.2c0,0.8,1,0.6,1,1.4c0,0.3-0.2,0.9-0.4,1.3
		c-0.4,1.7-0.7,4.2-1.3,5.7c-0.5,1.3-1.3,2.6-1.4,3.9c0,0.6-0.2,1-0.4,1.3h0.1c-0.8,0.8-0.3,1.4-0.8,2.2c-0.8,0.9-0.4,2.1-0.8,3.4
		v-0.1c-0.4,0.9-2,5.2-2,5.4c0,0.1,0.1,0.2,0.1,0.4c0,0.2,0,0.3,0.1,0.5l0.1-0.1c-0.2,0.5-0.5,0.8-0.8,1.1c-0.4,1.5-0.9,4.3-1.3,5.7
		c-0.1,0.3-0.4,0.7-0.5,1c-0.3,0.5-1.3,4.7-1.3,5.2c0,0.4-1,1.9-1.1,2.7c-0.5,1.7-0.8,3.6-1.4,5.3c-0.4,1.3-0.4,4.4-1,5.4
		c-0.1,0.3-0.1,0.6-0.1,0.9c0,1-0.3,3.5-0.6,4.5c-0.4,0.8-0.5,1.7-0.9,2.5c-0.1,0.3-0.3,0.6-0.4,0.9c0,0.1,0,0.3-0.1,0.5v0.1
		l-1.1,0.8c-0.3,0.6-0.8,1.1-0.9,2c0,0.5,0.9,0.6,1.3,0.6c0.6,0,1.1-0.2,1.6-0.2c0.8,0,1.2,0.1,2,0.2c2.8,0.1,5.7-2.1,8.5-2.1
		c0.6,0,2.8,0.2,2.8-0.6c0-0.2-0.1-0.5-0.4-0.8l0.1,0c-0.1-0.1-0.3-0.4-0.7-0.6c-0.3-0.1-0.2-0.5-0.6-0.8c0-1.1,0.8-1,0.9-3.5
		c0-0.6,0.5-0.6,0.5-1.1c0.1-0.2,0.1-0.6,0.2-1.2c0.4-1.7,1.4-4.6,1.5-6.3c0-0.8,0.9-0.5,1.4-0.4c0.6,0,1.1-0.2,1.5-0.2
		c0.1,0.1,0.9,0.2,1.1,0.2c0.6,0,1.2-0.2,1.6-0.2c0.4,0,0.6,0.1,0.9,0.2c0.2,0.2,3.4,0.2,3.6,0.2c0.8,0,1.4-0.2,2.2-0.2
		c1.7,0,2.3,5.5,2.6,6.9c0.3,1.1,0.8,0.2,0.7,1.5c0,1-1.4,1.4-1.4,2.2c0,1.3,1.9,1.1,2.7,1.1c0.8,0,1.5,0.3,2.3,0.3
		c3.1,0.1,7.1-0.9,10.3-0.9c0.6,0,1.5-0.3,1.5-1.1C233.8,366.7,231.6,366.5,231.6,364.4z M227.5,365.8c-1.3,0-3.2,1-4.4,1
		c-2.8-0.1-1.3-0.7-1.8-2.2l0,0.1c-0.6-0.8-0.2,0.9-0.5,0c-0.3-0.8-0.8-3.4-1.1-4.2l0-1.2c-0.1-0.1-0.3-0.6-0.5-0.7
		c-0.1-0.1-0.2-0.2-0.2-0.5c0-0.3,0.1-0.3,0.1-0.7c0-0.5-0.6-0.9-0.5-1.8c0-0.6-0.2-0.8-0.7-0.8c-0.6,0-1.1,0.3-1.6,0.3
		c-1.4,0-2.7-0.4-3.9-0.4c-0.8,0-1.7,0.4-2.3,0.1l-1.1,0c-0.6,0-1.2,0.2-1.7,0.2c-0.6,0-4.7-0.5-5.2-0.1c-0.3,0-0.6-0.2-0.9-0.3
		c-0.8,0-1.3,2.2-1.3,2.8s-0.1,1-0.4,1.5c0,0.8-0.4,3.6-0.4,4.4c0,0.6-0.6,1.1-1,1.6l0,1.2c0,1.3-0.7,1.9-0.8,3.1
		c0,0.5-0.1,0.8-0.3,1.2c-0.1,0.3-1.7,0.1-2.1,0.1c-0.1,0-0.2,0.1-0.3,0.1c-0.1,0-0.9,1-1.1,1c-0.9-0.4-2.9,0.8-3.7,0.7
		c1.6-2.4,1.1-5.8,2-8.1c0.4-0.8,0.5-3.8,0.9-4.6c0.4-0.9,0.6-2,1-3c0.1-0.4,0.1-0.9,0.3-1.3c0.1-0.6,0.3-1,0.6-1.6
		c0-0.8,0-1.2,0.2-2v0.1c1-2.2,2.1-6.1,2.6-8.3c0.4-1.7,1.1-3.2,1.3-5c0-0.2,0.1-0.6,0.3-1c0.4-0.8,0.4-1.4,0.9-2.2
		c0.4-0.6,0.2-1.2,0.3-1.7c0.4-1.4,1.3-2.9,1.4-4.3c0-0.6,0.3-1.2,0.6-1.7c0.4-0.8,0.2-2.1,0.6-2.9l0.4-0.7h-0.1
		c0.6-0.6,0.6-2,1-2.8c0-0.3,0.5-1.6,0.6-2c0.5-1.4,1-2.8,1-4.2c0-0.8,0.5-2.3,1.3-2.3c0.6,0,1.3,0.3,1.9,0.3c0.8,0,1.3,1.8,2.1,1.9
		c0.5,0,1-0.1,1.5,0.3c0.8,0,1.5-0.1,2.3-0.1c0.3,1.4,0.7,2.9,1.2,4.3v-0.1c0.3,1.5,0.4,1.6,1.2,2.9c0.6,0.9,1.1,3.4,1.1,4.4
		c0,0.8,0.4,1.4,0.8,2.2c0,1.7,0.8,3.2,0.7,3.6c0,0.5,0.2,0.9,0.6,1.3l-0.1,0c0.3,0.8,0.2,1.5,0.5,2.3c0.5,0.8,0.4,1.5,0.4,2.3
		c0,0.8,0.5,1.8,0.9,2.6c0,0.3-0.2,0.5-0.2,0.8c0,0.3,0.6,1.1,0.9,1.4h-0.1c0.3,0.8-0.2,1.9,0.2,2.3c0.3,0.8,0.6,1.3,0.9,2.1
		c0,0.9,0.5,1.7,0.6,2.7c0,0.6,0,2.2,0.3,2.6c0.5,0.5,0.5,0.2,0.4,1.1c0,0.9,0.7,4.9,1.3,5.5c0.8,0.9,1.3,0.7,1.2,2
		c0,0.6,2,2.3,2,4.7C228.6,366,228,365.8,227.5,365.8z M215.4,342c-0.3-0.8-0.7-0.9-0.6-1.7c0-0.8-0.4-1.7-0.8-2.5
		c-0.3-0.6-0.2-1.2-0.2-2c0-0.8-0.6-1.4-0.9-2.2v-0.3c0-0.8-0.7-1.2-0.5-1.8v-0.6c0-0.8,0-1.5-0.4-2.1c-0.8-1.1-0.8-2.7-1.1-4
		c-0.1-0.6-0.2-2.7-0.6-2.7c-0.1,0-0.2,0.1-0.5,0.3h0.1c-0.1,0.1-0.3,0.3-0.3,0.5s0.1,0.3,0.2,0.7c-1.3,1.7-2,4.7-2,6.7h0.1
		c-0.1,0.3-0.7,0.7-0.7,1c-0.5,2.7-1,4.9-1.9,7.3c-0.6,0.6-1.1,4.8-1.5,5.4c-0.4,1.3-0.9,2-0.9,3.2c0,0.5-0.5,0.6-0.5,1l0.2,0.2
		c0.8,0.1,1.3,0.3,1.6,0.3c1.7,0,3-0.3,4.8-0.3c0.9,0,2,0.3,2.9,0.3c1.3,0,2.2-0.2,3.5-0.2c0.1,0,0.2,0.1,0.3,0.2
		c0.4,0,0.3,0.1,0.7,0.1c0.2,0,0.3-0.1,0.3-0.5c0-1.4-0.8-1.8-0.8-2.3C216.2,344.2,215.3,344.5,215.4,342z M212.3,346.3
		c-0.1,0-0.3-0.1-0.5-0.1h0.1c-0.5-0.1-0.8-0.2-0.9-0.3c-0.2,0-0.6,0.1-1.1,0.2c-0.8,0-1.4-0.4-2-0.4c-0.6,0-1.3-0.2-1.7,0.3
		c1-3.1,2.5-8.2,3.2-11.4c0-0.3,0.2-2.2,0.5-2.2c0.1,0,0.1,0.6,0.1,0.7c0,0.3,0.1,0.7,0.2,0.8h-0.1c0.8,1.3,0.4,2.5,0.8,3.7
		c0.2,0.2,0.3,0.6,0.3,1.2c0,0.9,0.7,1.4,0.6,2.3c0,0.8,0.4,1.5,0.9,2.3h-0.1c0.1,0.3,0.2,0.6,0.2,0.7c0,0.1-0.1,0.3-0.1,0.5v-0.1
		c-0.1,0.1-0.1,0.2-0.1,0.5l0.2,0.2l0.3,0.6C213.1,346.1,212.9,346.3,212.3,346.3z"/>
	<path d="M227.2,361.3c0-1.3-0.4-1-1.2-2c-0.6-0.6-1.3-4.6-1.3-5.5c0-0.8,0-0.6-0.4-1.1c-0.3-0.4-0.3-2-0.3-2.6
		c-0.1-0.9-0.6-1.8-0.6-2.7c-0.3-0.8-0.6-1.3-0.9-2.1c-0.3-0.5,0.2-1.5-0.2-2.3h0.1c-0.3-0.3-0.9-1.1-0.9-1.4c0-0.3,0.2-0.5,0.2-0.8
		c-0.3-0.8-0.9-1.8-0.9-2.6c0-0.8,0-1.5-0.4-2.3c-0.3-0.8-0.2-1.5-0.5-2.3l0.1,0c-0.3-0.4-0.6-0.8-0.6-1.3c0-0.5-0.8-1.9-0.7-3.6
		c-0.3-0.8-0.8-1.4-0.8-2.2c0-1.1-0.5-3.5-1.1-4.4c-0.8-1.3-0.9-1.4-1.2-2.9v0.1c-0.5-1.4-0.9-2.9-1.2-4.3c-0.8,0-1.5,0.1-2.3,0.1
		c-0.5-0.4-1.1-0.3-1.5-0.3c-0.8,0-1.3-1.8-2.1-1.9c-0.6,0-1.3-0.3-1.9-0.3c-0.8,0-1.3,1.5-1.3,2.3c0,1.4-0.5,2.8-1,4.2
		c-0.1,0.3-0.6,1.6-0.6,2c-0.4,0.8-0.4,2.2-1,2.8h0.1l-0.4,0.7c-0.5,0.8-0.3,2.1-0.6,2.9c-0.3,0.6-0.6,1.2-0.6,1.7
		c0,1.4-1,2.9-1.4,4.3c-0.1,0.6,0.1,1.2-0.3,1.7c-0.5,0.8-0.5,1.4-0.9,2.2c-0.1,0.5-0.2,0.8-0.3,1c-0.2,1.7-0.9,3.2-1.3,5
		c-0.5,2.2-1.6,6.1-2.6,8.3v-0.1c-0.1,0.8-0.2,1.2-0.2,2c-0.3,0.6-0.5,1.1-0.6,1.6c-0.1,0.3-0.2,0.9-0.3,1.3c-0.4,1-0.6,2.1-1,3
		c-0.4,0.8-0.5,3.8-0.9,4.6c-0.9,2.3-0.4,5.8-2,8.1c0.8,0,2.8-1.1,3.7-0.7c0.1,0,0.9-1,1.1-1c0.1,0,0.2-0.1,0.3-0.1
		c0.3,0,2,0.3,2.1-0.1c0.1-0.3,0.3-0.7,0.3-1.2c0-1.3,0.8-1.8,0.8-3.1l0-1.2c0.4-0.5,0.9-1,1-1.6c0-0.8,0.4-3.6,0.4-4.4
		c0.3-0.5,0.4-0.9,0.4-1.5s0.5-2.8,1.3-2.8c0.3,0,0.6,0.3,0.9,0.3c0.6-0.3,4.7,0.1,5.2,0.1c0.6,0,1.2-0.2,1.7-0.2l1.1,0
		c0.6,0.4,1.5-0.1,2.3-0.1c1.3,0,2.5,0.4,3.9,0.4c0.6,0,1.1-0.3,1.6-0.3c0.5,0,0.7,0.2,0.7,0.8c0,0.8,0.5,1.3,0.5,1.8
		c0,0.3-0.1,0.3-0.1,0.7c0,0.2,0.1,0.4,0.2,0.5c0.1,0.1,0.3,0.6,0.5,0.7l0,1.2c0.3,0.8,0.7,3.4,1.1,4.2c0.3,0.8,0-0.9,0.5,0l0-0.1
		c0.5,1.5-1,2.2,1.8,2.2c1.3,0,3.2-1,4.4-1c0.5,0,1.1,0.3,1.6,0.3C229.2,363.6,227.2,361.9,227.2,361.3z M216.5,349.1
		c-0.4,0-0.3-0.1-0.7-0.1c-0.1-0.1-0.2-0.2-0.3-0.2c-1.3,0-2.2,0.2-3.5,0.2c-0.9,0-2-0.3-2.9-0.3c-1.7,0-3,0.3-4.8,0.3
		c-0.3,0-0.8-0.2-1.6-0.3l-0.2-0.2c0-0.5,0.5-0.6,0.5-1c0-1.3,0.5-2,0.9-3.2c0.4-0.7,0.9-4.9,1.5-5.4c0.9-2.4,1.4-4.6,1.9-7.3
		c0-0.3,0.6-0.7,0.7-1h-0.1c0-2,0.7-5,2-6.7c-0.1-0.4-0.2-0.6-0.2-0.7s0.1-0.3,0.3-0.5h-0.1c0.2-0.2,0.4-0.3,0.5-0.3
		c0.5,0,0.5,2.1,0.6,2.7c0.3,1.3,0.3,2.9,1.1,4c0.5,0.6,0.4,1.3,0.4,2.1v0.6c-0.1,0.6,0.6,0.9,0.5,1.8v0.3c0.3,0.8,0.9,1.4,0.9,2.2
		c0,0.8-0.2,1.4,0.2,2c0.3,0.8,0.8,1.7,0.8,2.5c0,0.8,0.3,0.9,0.6,1.7c0,2.5,0.8,2.2,0.7,4.3c0,0.6,0.8,0.9,0.8,2.3
		C216.9,349,216.7,349.1,216.5,349.1z"/>
	<path d="M306.2,356.4l0-0.1c0-0.2-0.1-0.4-0.2-0.5c-0.4-0.3-0.3-2-0.3-2.3c-0.1-0.5-0.3-1.1-0.4-1.6c-0.1-0.8,0-1.7-0.1-2.4
		c-0.1-0.8-0.5-1.2-1-1.1c-0.5,0.1-0.8,0.3-1.4,0.4c-1,0.1-2,0-3.2,0.2s-2.3,0.5-3.4,0.7c-0.8,0.1-1.4,0-2.2,0.1
		c-0.9,0.1-2.2,0.5-2,1.7c0.2,1.3,1.7,0.1,2,2.5c0.1,0.8,0.1,1.3-0.2,1.9c-0.1,0.3-0.1,0.8,0,1.3c0.2,1.4-0.3,2.1-1.1,3.1
		c-0.8,0.9-0.9,1.4-2,2c-0.2,0.3-0.5,0.7-1,1l0-0.1c-0.5,0.1-1.1,0-1.6,0.1c-0.8,0.1-1.2,0.3-1.9,0.4c-4.2,0.6-6.5-1-8-5.1
		c0-0.3-0.1-0.2-0.2-0.5c-0.1-0.4,0.2-0.8,0.2-1.1c0-0.4-0.4-0.7-0.5-1.1l-0.7-5.4c-0.1-0.6,0.1-1,0-1.6c0-0.3-0.2-0.3-0.2-0.6
		c-0.5-0.8-0.1-1.7-0.6-2.6c-0.1-0.1-0.1-0.2-0.2-0.5c-0.1-0.5,0.1-1.1,0-1.6c-0.1-0.8-0.4-1.2-0.5-1.7c-0.1-0.8,0-1.4-0.1-2.2
		c-0.2-1.5-1-5.3,0.5-6.4c0.7-0.5,0.6-0.9,0.9-1.7c0.3-1.1,1-1.8,2-2c0.3,0,0.7-0.3,1.1-0.4l0.3-0.2l0.2,0c0.3-0.2,0.5-0.3,0.8-0.3
		c1.2-0.2,5.5-0.2,6.5,0.6c0.8,0.2,0.9,1,1.4,1.4c0.1,0,0.5,0.6,0.5,0.7c0.4,0.7,1.1,1.4,1.2,2.2c0,0.1-0.5,0.8-0.5,1.2l-0.2,0.5
		c-0.1,0-0.1,0-0.1,0.1l0,0.1c-0.2,0.2-0.3,0.5-0.2,0.7c0.1,0.8,1.7,0.5,2.2,0.5c1-0.1,1.7-0.6,2.9-0.7c0.5-0.1,1.1,0.2,1.7,0.1
		c0.4-0.1,0.7-0.3,1.2-0.4c0.5-0.1,0.8,0.1,1.2,0c0.8-0.1,3.7-0.4,4.2-1.2h-0.1c0.2-0.2,0.2-0.6,0.2-0.9c-0.1-0.5-0.5-1.1-0.5-1.7
		c-0.6-4.7-1.4-9-5.4-12c-1.4-1-2.5-1.8-3.9-2.3l0.1,0c-0.8-0.2-3-0.9-3.8-0.9c-1.2-0.2-3,0.4-4-0.2c-0.7,0.1-3.2,0.8-3.6,0.2
		c-0.1-0.1-0.1-0.1-0.2-0.1l-0.2,0c-0.4,0-0.7,0.2-0.9,0.5l-0.1-0.1c-1.2,0.2-2.1,0.2-3.3,0.3c-0.1,0-1.4,0.6-1.5,0.6h0.1l-0.8,0.3
		c-0.1,0-0.2,0.1-0.3,0.2l-1,0.1l-1,0.1v-0.1c-0.9,1.1-2.2,1.5-3.4,1.8c-0.5,0.2-1.2,1-1.5,1.4c-0.3,0.4-0.6,0.5-0.9,0.7
		c-0.5,0.4-1.8,1.7-2,2c-0.4,1.2,0.1,0.9-1,1.9c-0.5,1.7-1.4,4.8-1.2,6.6c0.1,0.9-0.2,1.6-0.1,2.3l0.1,1.1c0,0.3-0.1,0.7-0.1,1.1
		c0.1,0.8,0.6,1.3,0.7,2.1c0.1,0.9,0,1.7,0.1,2.4c0.1,0.8,0.4,1.3,0.5,2c0.1,0.4-0.4,0.6-0.3,1.1c0,0.4,0.1,0.8,0.2,0.9
		c0.2,1.2,0.6,2.2,0.8,3.4c0.5,3.6,0.6,7.2,1.1,10.8c0,0.3,0.2,0.4,0.2,0.7c0.4,0.4,0.3,2.1,0.3,2.5c0.1,0.6,0.2,1,0.5,1.4
		c0.4,0.5,0.1,1,0.6,1.7c0.5,0.9,0.9,1.4,1,2.6c0.1,1,1.5,1.8,2.1,2.5h-0.1l1.1,0.9h-0.1c1.3,1.5,7.4,4,9.1,3.8
		c0.1,0.1,0.2,0.1,0.3,0.1c0.1,0,0.2-0.2,0.3-0.2c0.1-0.1,0.2-0.2,0.4-0.2c1.9,0.4,1.6,0.3,3.3,0.1c0.8-0.1,1.2,0.3,2,0.2
		c0.3,0,0.6-0.2,1.1-0.4c0.1-0.1,0.2-0.1,0.4-0.2c0.8-0.1,1.2,0.1,1.8,0c0.5-0.1,1-0.6,1.4-0.5l0.6-0.1c2.1-0.3,5.9-2.2,7.9-3.3
		c1.2-0.6,2.9-3,4-4l0,0.1c0.9-0.9,0.6-1.4,1-2.5c0.4-1.3,1-1.8,0.8-3.1C305.7,360.3,306.4,358.5,306.2,356.4z M303,364
		c-0.3,0.2-0.2,0.4-0.5,0.5c-0.1,0.3,0,0.8-0.1,1.1c-0.7,0.9-1.4,1.5-2,2.4l0-0.1c-0.5,0.4-3.2,2.8-3.3,2.8
		c-0.3,0.2-0.9,0.2-1.6,0.3c-2,1.1-4.5,1.8-6.8,2.1c-1.6,0.2-3,0.2-4.6,0.4c-0.4,0.1-0.9,0-1.4-0.2c-0.9-0.4-2,0.2-3-0.2
		c-0.6-0.2-1.1-0.3-1.5-0.3l0.1,0l-1.7-0.3l-0.2-0.1c-0.1-0.1-0.8-0.5-0.8-0.2l-0.6-0.5l0.1,0c-0.4-0.7-1.8-0.9-2.7-1.7
		c-1.8-1.9-3.7-7.7-4-10.5c-0.1-0.8,0.3-1.4,0.2-2.1c-0.1-0.8-0.5-1.3-0.6-2c-0.2-1.2-0.1-2.1-0.2-3.1c-0.1-0.5-0.4-1.1-0.4-1.6
		c0-0.3-0.1-0.6,0-0.9l0,0.1c0.2-1-0.3-2.2-0.4-3.1c-0.1-0.8-0.1-1.4-0.2-2.2c-0.1-0.8-0.7-1.7-0.5-2.5l-0.1,0
		c0.2-0.2,0.3-0.5,0.2-0.7c0-0.4-0.3-0.8-0.4-1.3c0-0.3,0-0.6,0-0.9l-0.4-2.8c-0.1-0.1-0.1-0.2-0.2-0.5c0-0.3-0.1-0.5,0-0.7l0,0.1
		c0.2-0.6,0-1.1-0.1-1.5c-0.1-0.8,0.4-5.5,0.8-6.1c0.3-0.4,0.8-0.9,0.7-1.2c0-0.1,0.1-0.3,0.1-0.7l0.5-0.6l0,0.1
		c1-1.4,1.5-1.9,3.1-2.6l-0.1,0c1.7-0.7,3.1-1.5,4.8-2.1c2-0.6,4.1-0.9,6.1-1.1c0.9-0.1,1.7,0,2.5-0.1l3.2-0.4l-0.1-0.1
		c0.3,0.1,1.2,0.7,1.3,0.7c0.1,0,0.3-0.2,0.6-0.3l0.2,0c1.7,0.5,1.7,0.3,3,1.1c1.2,0.3,1.5,0.2,1.9,0.5l1.5,1.1h-0.1
		c0.4,0.3,0.8,0.9,1.3,1.2l0-0.1l0.5,0.3l-0.1,0c0.4,0.4,0,0.9,0.4,1.2c2.2,3.3,1.8,2.9,2.3,6.1c0.1,0.4,0.3,0.8,0.4,1.3
		c0.1,0.4,0,0.7-0.3,0.7c-0.4,0.1-1-0.1-1.4,0c-0.8,0.1-1.1,0.6-1.9,0.7c-0.4,0.1-0.9,0-1.3,0.1c-0.3,0-1.5,0.3-1.4,0
		c0-0.1,0.1-0.2,0.1-0.3c-0.1-0.8-0.7-1.2-0.8-2c-0.1-0.5-1.4-1.8-1.8-2.2l0.1,0c-0.6-0.7-0.9-1.2-1.9-1.5c-0.6-0.3-0.9-0.5-1.5-0.8
		c-0.8-0.3-3.1-0.8-3.9-0.7c-0.9-0.2-3,0.2-3.7,0.3c-1.2,0.2-2.2,0.8-3.3,1.4h0.1c-3.3,1.3-1.5,1.4-3.5,3.7
		c-0.3,0.6-0.1,1.1-0.3,1.6l0.1,0l-0.3,0.4V333c-0.7,0.4-0.6,3.5-0.5,4.3c0,0.4,0.2,0.7,0.2,1.1c0.1,0.9-0.1,1.8,0,2.5l0.9,6.6
		c0.1,0.5,0.1,0.9,0.3,1.1l0-0.1c0.1,0.1,0.2,0.4,0.2,0.7c0.1,0.8,0,1.4,0.1,2.2c0,0.3,0.2,0.6,0.2,0.9c0.1,0.8-0.1,1.5,0,2.2
		c0,0.4,0.4,0.8,0.5,1.4c0.1,0.8,0,1.2,0.1,2c0,0.1,0.2,0.3,0.4,0.5l-0.1,0l0.4,0.6c0.8,4.9,5.2,7.6,9.9,7.3c1,0,1.9,0.2,3.1,0
		c0.4-0.1,0.9-0.2,1.2-0.5h-0.1c1.1-0.6,0.9-0.5,2.2-0.6c1.9-2.5,3.7-3.7,4.2-6.8c0.3-1.9,0-3.4,0.1-5.2c0.1-0.5,0.3-0.7,0.5-0.6
		l0.4,0c0.5-0.1,0.7-0.3,1.1-0.4c0.5-0.1,1,0.1,1.4,0c0.9-0.1,1.5-0.4,2.4-0.5c0.3,0,0.5-0.1,0.7,0c0.2,1.3,0.1,2.6,0.3,4
		c0.1,0.8,0.5,1.5,0.6,2.2c0.1,0.4-0.2,0.9,0,1.3l0.1,0.8C303.7,360.5,303.3,363.7,303,364z"/>
	<path d="M303.7,360.1c0,0.4-0.4,3.6-0.7,4c-0.3,0.2-0.2,0.4-0.5,0.5c-0.1,0.3,0,0.8-0.1,1.1c-0.7,0.9-1.4,1.5-2,2.4l0-0.1
		c-0.5,0.4-3.2,2.8-3.3,2.8c-0.3,0.2-0.9,0.2-1.6,0.3c-2,1.1-4.5,1.8-6.8,2.1c-1.6,0.2-3,0.2-4.6,0.4c-0.4,0.1-0.9,0-1.4-0.2
		c-0.9-0.4-2,0.2-3-0.2c-0.6-0.2-1.1-0.3-1.5-0.3l0.1,0l-1.7-0.3l-0.2-0.1c-0.1-0.1-0.8-0.5-0.8-0.2l-0.6-0.5l0.1,0
		c-0.4-0.7-1.8-0.9-2.7-1.7c-1.8-1.9-3.7-7.7-4-10.5c-0.1-0.8,0.3-1.4,0.2-2.1c-0.1-0.8-0.5-1.3-0.6-2c-0.2-1.2-0.1-2.1-0.2-3.1
		c-0.1-0.5-0.4-1.1-0.4-1.6c0-0.3-0.1-0.6,0-0.9l0,0.1c0.2-1-0.3-2.2-0.4-3.1c-0.1-0.8-0.1-1.4-0.2-2.2c-0.1-0.8-0.7-1.7-0.5-2.5
		l-0.1,0c0.2-0.2,0.3-0.5,0.2-0.7c0-0.4-0.3-0.8-0.4-1.3c0-0.3,0-0.6,0-0.9l-0.4-2.8c-0.1-0.1-0.1-0.2-0.2-0.5c0-0.3-0.1-0.5,0-0.7
		l0,0.1c0.2-0.6,0-1.1-0.1-1.5c-0.1-0.8,0.4-5.5,0.8-6.1c0.3-0.4,0.8-0.9,0.7-1.2c0-0.1,0.1-0.3,0.1-0.7l0.5-0.6l0,0.1
		c1-1.4,1.5-1.9,3.1-2.6l-0.1,0c1.7-0.7,3.1-1.5,4.8-2.1c2-0.6,4.1-0.9,6.1-1.1c0.9-0.1,1.7,0,2.5-0.1l3.2-0.4l-0.1-0.1
		c0.3,0.1,1.2,0.7,1.3,0.7c0.1,0,0.3-0.2,0.6-0.3l0.2,0c1.7,0.5,1.7,0.3,3,1.1c1.2,0.3,1.5,0.2,1.9,0.5l1.5,1.1h-0.1
		c0.4,0.3,0.8,0.9,1.3,1.2l0-0.1l0.5,0.3l-0.1,0c0.4,0.4,0,0.9,0.4,1.2c2.2,3.3,1.8,2.9,2.3,6.1c0.1,0.4,0.3,0.8,0.4,1.3
		c0.1,0.4,0,0.7-0.3,0.7c-0.4,0.1-1-0.1-1.4,0c-0.8,0.1-1.1,0.6-1.9,0.7c-0.4,0.1-0.9,0-1.3,0.1c-0.3,0-1.5,0.3-1.4,0
		c0-0.1,0.1-0.2,0.1-0.3c-0.1-0.8-0.7-1.2-0.8-2c-0.1-0.5-1.4-1.8-1.8-2.2l0.1,0c-0.6-0.7-0.9-1.2-1.9-1.5c-0.6-0.3-0.9-0.5-1.5-0.8
		c-0.8-0.3-3.1-0.8-3.9-0.7c-0.9-0.2-3,0.2-3.7,0.3c-1.2,0.2-2.2,0.8-3.3,1.4h0.1c-3.3,1.3-1.5,1.4-3.5,3.7
		c-0.3,0.6-0.1,1.1-0.3,1.6l0.1,0l-0.3,0.4V333c-0.7,0.4-0.6,3.5-0.5,4.3c0,0.4,0.2,0.7,0.2,1.1c0.1,0.9-0.1,1.8,0,2.5l0.9,6.6
		c0.1,0.5,0.1,0.9,0.3,1.1l0-0.1c0.1,0.1,0.2,0.4,0.2,0.7c0.1,0.8,0,1.4,0.1,2.2c0,0.3,0.2,0.6,0.2,0.9c0.1,0.8-0.1,1.5,0,2.2
		c0,0.4,0.4,0.8,0.5,1.4c0.1,0.8,0,1.2,0.1,2c0,0.1,0.2,0.3,0.4,0.5l-0.1,0l0.4,0.6c0.8,4.9,5.2,7.6,9.9,7.3c1,0,1.9,0.2,3.1,0
		c0.4-0.1,0.9-0.2,1.2-0.5h-0.1c1.1-0.6,0.9-0.5,2.2-0.6c1.9-2.5,3.7-3.7,4.2-6.8c0.3-1.9,0-3.4,0.1-5.2c0.1-0.5,0.3-0.7,0.5-0.6
		l0.4,0c0.5-0.1,0.7-0.3,1.1-0.4c0.5-0.1,1,0.1,1.4,0c0.9-0.1,1.5-0.4,2.4-0.5c0.3,0,0.5-0.1,0.7,0c0.2,1.3,0.1,2.6,0.3,4
		c0.1,0.8,0.5,1.5,0.6,2.2c0.1,0.4-0.2,0.9,0,1.3L303.7,360.1z"/>
	<path d="M379.2,317.5c-0.3,0-0.5,0.2-0.8,0.2c-0.3,0-0.8-0.4-1.2-0.4c-0.2,0-0.5,0.1-0.7,0.3v-0.1c-0.8,0.3-1.3-0.2-2.1-0.2
		c-0.8,0-1.1,0.2-1.9,0.1l-2.1-0.1c-1,0-2-0.3-2.8-0.3c-0.8,0-1.2,0-2,0c-0.6,0-1.1,0.3-1.5,0.9c0,0.4,0.3,0.9,0.8,1.4
		c0.3,0.2,0.6,0.5,1,0.6c0,0.1-1.2,1.1-1.5,1.2c-0.6,1.6-1.7,2.3-2.9,3.5c-0.6,0.5-0.6,1.1-1.7,2.2l0-0.1c-1,0.7-1.4,1.1-1.8,2.3
		c-0.1,0.2-0.3,0.4-0.6,0.5c-1,0.7-0.7,1.3-1.5,2.1l-0.8,0.8v-0.1l-0.6,0.5c-0.1,0.2-0.4,0.4-0.6,0.5h0.1c-0.3,0.3-0.6,0.9-1,1.2
		l0.1-1.9c0-0.8,0.4-1.4,0.4-2.2c0-0.9-0.4-1.7-0.3-2.6c0.1-1.4,0.6-7,0.6-8.7c-0.1-0.4-0.2-0.8-0.2-1c0-0.6,0.4-3.5,0.7-3.8
		c0.3-0.3,0.9-0.6,0.9-1.1c0-0.3-0.1-0.5-0.1-0.6c-0.3-0.3-0.3-0.5-0.8-0.5c-2.5-0.1-5-0.6-7.5-0.7c-0.8,0-5.7-0.3-6.1,0
		c-0.1,0.1-0.2,0.2-0.2,0.5c-0.1,1.2,1.2,2.1,1.2,2.6c0,0.6,0,0.9-0.2,1.1v-0.1c-0.1,0.1-0.1,0.4-0.2,0.9c0,0.8,0.2,1.4,0.1,2.2
		c-0.1,1.7,0,7.2-0.1,8.8c0,0.8-0.3,1.4-0.3,2.2l-0.1,1.3c0,0.3-0.1,0.5-0.2,0.9c0,0.6,0.3,0.7,0.3,1.1c0,0.3-0.3,0.8-0.3,1.1
		c0,0.6,0.3,1,0.3,1.6c-0.1,1.6-0.5,3.3-0.6,4.9c0,0.8,0.3,1.1,0.2,1.7c0,0.5-0.2,1-0.3,1.5v-0.1c-0.4,0.8-0.3,1.5-0.3,2.3
		c0,0.5,0.4,1.1,0.4,1.6c0,0.3-0.5,0.5-0.5,1.1c-0.1,1.6,0.2,3,0.1,4.4c0,0.3-0.3,0.6-0.4,1.2c0,1,0.3,2,0.3,3c0,0.8-0.4,1-0.4,1.7
		c0,0.5,0.2,5.2,0.2,5.5c0,0.4-0.3,1-0.3,1.5c0,0.3,0.1,0.3,0.1,0.7c0,0.6-0.3,1.1-0.3,1.6c0,0.3,0,0.5,0.1,0.7c0.3,1,0.1,3.8,0,4.8
		c0,0.3-0.1,0.3-0.1,0.6c0,0.2,0,0.5,0.1,0.6l0-0.1c0,0.3,0.1,0.3,0.1,0.6c-0.1,1.4-2,1.1-2.1,2.6c-0.1,1.2,1.8,1.2,2.6,1.2
		c0.8,0,1.3-0.2,1.9-0.1c1.6,0.1,3.2-0.7,4.8-0.6c0.8,0,1.2-0.3,1.8-0.3c0.3,0,0.6,0.3,1,0.3c0.9,0,3.1,0.3,3.1-1.1
		c0.1-1.8-1.6-1.2-1.5-2.9c0.1-1.2,0.4-2.2,0.5-3.4c0-0.5,0-0.9-0.1-1.1c-0.1-0.4,0-1,0-1.4c0.1-0.1,0.2-0.4,0.3-1
		c0.1-1.2-0.1-2.4,0-3.6c0.1-1.3,0.3-6.9,0.4-8.2c0-0.8-0.3-1.3-0.2-1.9c0-0.3,0.2-0.4,0.6-0.7c0.6-0.3,0.5-1,0.8-1.4
		c0.1-0.3,0.5-0.3,0.6-0.6h-0.1c0.9-0.8,2.2-2.8,2.8-3.2c0.1,0.6,0.2,2.4,0.5,2.9v-0.1c0.3,1.6,2.2,5.9,2.2,6.2
		c-0.1,1.9,0.5,1.6,0.9,3.3c0.7,2.1,1,4.2,1.7,6.3c0,0.2,0.8,4.1,1.3,4.7l-0.1,0c0.2,0.2,0.3,0.5,0.3,0.7l-0.1,0.2h0.1
		c-0.6,0.3-1.7,0.5-1.7,1.2c0,0.9,0.4,1.3,1.4,1.4c0.8,0,1.4-0.2,2.2-0.1c0.6,0,1.1,0.4,1.6,0.4c0.4,0,0.8-0.2,1.2-0.2
		c2.2,0.1,3-0.9,5.2-0.8c0.3,0,0.8,0.3,1.1,0.3c0.6,0,0.9-0.2,1.4-0.2c0.3,0,0.3,0.1,0.6,0.1c0.8,0,1.1-0.4,1.2-1.1v-0.2
		c-0.9-1-2.1-1.9-2-3.5c0-0.5-0.4-1.1-0.7-1.4h0.1c-0.8-1.2-0.3-1.8-1.1-3l0,0.1c-0.3-0.8-0.6-1.3-0.9-2.1c-0.5-1.7-0.4-3.3-1.5-4.6
		c-0.4-0.5-0.6-1.4-0.7-2c-0.1-1,0.9-0.7,0.5-1.1c-0.5-0.6-0.4-1.2-0.7-2c-0.1-0.3-0.3-0.6-0.4-0.9c-0.4-0.9-0.3-1.8-0.7-2.7
		c-0.3-0.6-0.4-1.1-0.7-1.7c-0.7-1.4-0.5-2.4-1.7-3.7v-0.1c0-0.6-0.2-1.2-0.2-2c-0.1-0.1-0.3-0.6-0.4-0.7c-0.3-0.1-0.4-0.6-0.4-0.9
		c-0.3-1.2-1.2-2.3-1.2-3.1c0-0.8,0.6-1.3,1.2-1.7v0.1c0.6-0.4,0.7-1.1,1.1-1.6l0,0.1l0.2-0.4c0.1-0.3,0.3-0.4,0.3-0.4l-0.1,0
		c1.2-1.2,2.4-2.6,3.6-4.2l1.2-1.5l0.2-0.2c0.1-0.1,0.3-0.4,0.3-0.5c0.4-0.9,5.7-7.2,6.3-7.7v0.1c0.3-0.3,1-0.8,1.1-1.3
		C380.5,317.9,380,317.5,379.2,317.5z M369.2,328c-1,0.9-1.6,2.6-2.5,3.3c-0.6,0.5-1,1-1.4,1.8c-0.5,1.2-2,2.5-3,3.4
		c0,0.1-0.1,0.3-0.1,0.4c0,0.8,0.5,1.6,0.9,2h-0.1c0.3,0.6,0.5,1.6,0.6,2.1l0.5,0.6h-0.1c0.5,1,1.3,2.9,1.2,4.1c0.3,0.8,0.7,1.2,1,2
		l1.8,5.8c0,0.1-0.1,0.1-0.1,0.2c0,0.3,0.5,0.7,0.6,0.8c0.3,0.3,0.1,0.9,0.4,1.2c0.9,1.8,1,3.4,1.7,5.3v-0.1
		c0.3,1.4-0.1,0.9-0.2,2.6c0,0.3,0.3,0.6,0.6,0.7c0.4,0.3,0.5,1.4,0.6,2c0.1,1,0.6,1.8,1,2.7c0,0.5,0.7,2.3,1,2.8
		c-0.2-0.1-0.6-0.3-1.2-0.3c-1.7-0.1-2.6,1.2-4.4,1.1c-2.1-0.1-1-1-1.8-1.8c-0.4-0.9-0.3-2.4-0.8-3.2c-0.4-0.8-0.2-1.2-0.5-2
		c-0.5-1.4-1.6-3.6-1.5-5.2c0-0.6-0.7-0.7-0.7-1.5c-0.3-0.6-0.2-1.4-0.2-2.2c-0.1-0.5-0.4-0.6-0.5-0.9c-0.4-1.2-0.6-2-0.8-3.2
		c-0.4-1.2-0.9-1.4-0.9-2.8c0-0.7-0.2-1.3-0.7-2c-0.4-0.8-0.2-1.4-0.6-2.2v0.1c-0.1-0.8-0.6-1.4-0.6-2.1c0-0.6,0.3-1-0.5-1h-0.1
		c-0.8,0-0.4,0.7-0.7,1.2v-0.1c-1.4,1.8-2.9,3.4-4.3,5.1c-0.3,0.4-0.8,1.7-1.3,2c-1.2,0.5-1.9,2.1-1.9,3.3l-0.4,11.6
		c0,0.5,0.2,0.8,0.2,1.1c0,0.3-0.1,0.2-0.1,0.5c-0.1,0.1-0.1,0.3-0.2,0.6c-0.1,2.2,0,4.5-0.1,6.7c0,0.3-0.1,1.3-0.4,1.3
		c-1.2-0.1-2.1,0.8-3.3,0.7c-0.9,0-1.6,0.4-2.3,0.3c-0.8,0-0.7-0.8-0.7-1.2c0-0.8,0.3-1.2,0.3-1.7c0-0.8-0.3-1.3-0.2-1.9
		c0.1-0.4,0.3-0.8,0.3-0.9c0-0.4-0.1-2.1,0-2.5c0.1-1.2,0.2-2.2,0.3-3.4c0.1-1.3,0-7,0.1-8.4c0-0.3,0-0.4,0.1-0.5
		c0-0.3,0.1-0.4,0.2-0.8c0-0.4-0.2-0.8-0.2-1.2c0-0.5,0.2-1.1,0.2-1.6c0-0.5-0.2-1.2-0.1-1.8c0.1-1.2,0.3-2.1,0.4-3.3
		c0-0.3-0.1-0.2-0.1-0.5v-0.2c0-0.6,0.4-1,0.4-1.5c0-0.3-0.2-0.7-0.2-1c0.1-2.2,0.3-4.5,0.4-6.7c0-0.4-0.2-0.8-0.2-1.1
		c0-0.4,0.3-0.8,0.3-1.1c0-0.6-0.3-0.9-0.3-1.3c0-0.8,0.4-1.5,0.4-2.4c0-0.8-0.3-1.6-0.2-2.4c0.1-1.2,0.5-2,0.6-3
		c0-0.8-0.1-1.3-0.2-1.6c0-0.6,0.3-5.2,0.3-5.7l0.1-1.6c0-0.9-0.3-1.9-0.3-2.6c0-0.6,3-0.4,3.4-0.4c0.6,0,0.9,0.4,1.6,0.4
		c0.4,0,0.8,0,1-0.1c0.3,0,0.3-0.1,0.7-0.1c0.1,0.8,0.1,1.7,0.1,2.4c-0.4,0.9-0.3,1.1-0.3,2c0,0.3-0.1,0.3-0.2,0.6
		c-0.1,0.3-0.2,4.7-0.2,4.8c0,0.5,0.3,1,0.2,1.8c0,0.5-0.2,1.1-0.2,1.6c0,1,0.1,2,0.1,3c0,1-0.3,2.1-0.4,3c0,0.8-0.1,1.3,0,2.1
		c0.1,0.6-0.2,1.5-0.2,2.1c0,0.6,0.2,1.2,0.1,1.8c0,0.6-0.3,1.1-0.3,1.5c0,0.3,0.3,1,0.6,1l0.2-0.2c0.4-1.6,2.1-2.5,3-3.9l-0.1,0
		c0.3-0.3,1.6-1.4,1.6-1.8c0.1-0.5,0.3-0.6,0.6-0.8c0.8-0.3,0.6-0.6,0.9-1.4c0.5-0.7,1.1-1.5,1.9-2v0.1c0.3-0.1,0.2-0.2,0.6-0.5
		c0.3-0.3,0.5-0.6,0.8-0.9l0.2-0.3v-0.1c0.8-0.7,1.4-1.8,2-2.6c1.2-0.7,1.7-1.7,2.2-2.9c0.4-0.5,0.8-0.5,1.1-0.9h-0.1
		c0.3-0.3,0.2-0.3,0.6-0.6h-0.1c0.1-0.3,2.3-3,2.5-3c0.3-0.1,0.7-0.2,0.7-0.5l0-0.1l-0.6,0l-0.2-0.2c0-0.1,0.1-0.2,0.2-0.2
		c0.3,0.1,0.4,0.3,0.5,0.5c0.4,0,0.9-0.1,1.2,0c0.8,0,1,0.3,1.7,0.3c0.8,0,1.3-0.2,2.1-0.1c0.4,0,0.8,0,1,0.2
		C373.1,322.6,371.6,325.6,369.2,328z"/>
	<path d="M372.5,368.9c0,0.5,0.7,2.3,1,2.8c-0.2-0.1-0.6-0.3-1.2-0.3c-1.7-0.1-2.6,1.2-4.4,1.1c-2.1-0.1-1-1-1.8-1.8
		c-0.4-0.9-0.3-2.4-0.8-3.2c-0.4-0.8-0.2-1.2-0.5-2c-0.5-1.4-1.6-3.6-1.5-5.2c0-0.6-0.7-0.7-0.7-1.5c-0.3-0.6-0.2-1.4-0.2-2.2
		c-0.1-0.5-0.4-0.6-0.5-0.9c-0.4-1.2-0.6-2-0.8-3.2c-0.4-1.2-0.9-1.4-0.9-2.8c0-0.7-0.2-1.3-0.7-2c-0.4-0.8-0.2-1.4-0.6-2.2v0.1
		c-0.1-0.8-0.6-1.4-0.6-2.1c0-0.6,0.3-1-0.5-1h-0.1c-0.8,0-0.4,0.7-0.7,1.2v-0.1c-1.4,1.8-2.9,3.4-4.3,5.1c-0.3,0.4-0.8,1.7-1.3,2
		c-1.2,0.5-1.9,2.1-1.9,3.3l-0.4,11.6c0,0.5,0.2,0.8,0.2,1.1c0,0.3-0.1,0.2-0.1,0.5c-0.1,0.1-0.1,0.3-0.2,0.6
		c-0.1,2.2,0,4.5-0.1,6.7c0,0.3-0.1,1.3-0.4,1.3c-1.2-0.1-2.1,0.8-3.3,0.7c-0.9,0-1.6,0.4-2.3,0.3c-0.8,0-0.7-0.8-0.7-1.2
		c0-0.8,0.3-1.2,0.3-1.7c0-0.8-0.3-1.3-0.2-1.9c0.1-0.4,0.3-0.8,0.3-0.9c0-0.4-0.1-2.1,0-2.5c0.1-1.2,0.2-2.2,0.3-3.4
		c0.1-1.3,0-7,0.1-8.4c0-0.3,0-0.4,0.1-0.5c0-0.3,0.1-0.4,0.2-0.8c0-0.4-0.2-0.8-0.2-1.2c0-0.5,0.2-1.1,0.2-1.6
		c0-0.5-0.2-1.2-0.1-1.8c0.1-1.2,0.3-2.1,0.4-3.3c0-0.3-0.1-0.2-0.1-0.5v-0.2c0-0.6,0.4-1,0.4-1.5c0-0.3-0.2-0.7-0.2-1
		c0.1-2.2,0.3-4.5,0.4-6.7c0-0.4-0.2-0.8-0.2-1.1c0-0.4,0.3-0.8,0.3-1.1c0-0.6-0.3-0.9-0.3-1.3c0-0.8,0.4-1.5,0.4-2.4
		c0-0.8-0.3-1.6-0.2-2.4c0.1-1.2,0.5-2,0.6-3c0-0.8-0.1-1.3-0.2-1.6c0-0.6,0.3-5.2,0.3-5.7l0.1-1.6c0-0.9-0.3-1.9-0.3-2.6
		c0-0.6,3-0.4,3.4-0.4c0.6,0,0.9,0.4,1.6,0.4c0.4,0,0.8,0,1-0.1c0.3,0,0.3-0.1,0.7-0.1c0.1,0.8,0.1,1.7,0.1,2.4
		c-0.4,0.9-0.3,1.1-0.3,2c0,0.3-0.1,0.3-0.2,0.6c-0.1,0.3-0.2,4.7-0.2,4.8c0,0.5,0.3,1,0.2,1.8c0,0.5-0.2,1.1-0.2,1.6
		c0,1,0.1,2,0.1,3c0,1-0.3,2.1-0.4,3c0,0.8-0.1,1.3,0,2.1c0.1,0.6-0.2,1.5-0.2,2.1c0,0.6,0.2,1.2,0.1,1.8c0,0.6-0.3,1.1-0.3,1.5
		c0,0.3,0.3,1,0.6,1l0.2-0.2c0.4-1.6,2.1-2.5,3-3.9l-0.1,0c0.3-0.3,1.6-1.4,1.6-1.8c0.1-0.5,0.3-0.6,0.6-0.8
		c0.8-0.3,0.6-0.6,0.9-1.4c0.5-0.7,1.1-1.5,1.9-2v0.1c0.3-0.1,0.2-0.2,0.6-0.5c0.3-0.3,0.5-0.6,0.8-0.9l0.2-0.3v-0.1
		c0.8-0.7,1.4-1.8,2-2.6c1.2-0.7,1.7-1.7,2.2-2.9c0.4-0.5,0.8-0.5,1.1-0.9h-0.1c0.3-0.3,0.2-0.3,0.6-0.6h-0.1c0.1-0.3,2.3-3,2.5-3
		c0.3-0.1,0.7-0.2,0.7-0.5l0-0.1c0.4,0,0.9-0.1,1.2,0c0.8,0,1,0.3,1.7,0.3c0.8,0,1.3-0.2,2.1-0.1c0.4,0,0.8,0,1,0.2
		c-2.3,2.4-3.9,5.4-6.3,7.8c-1,0.9-1.6,2.6-2.5,3.3c-0.6,0.5-1,1-1.4,1.8c-0.5,1.2-2,2.5-3,3.4c0,0.1-0.1,0.3-0.1,0.4
		c0,0.8,0.5,1.6,0.9,2h-0.1c0.3,0.6,0.5,1.6,0.6,2.1l0.5,0.6h-0.1c0.5,1,1.3,2.9,1.2,4.1c0.3,0.8,0.7,1.2,1,2l1.8,5.8
		c0,0.1-0.1,0.1-0.1,0.2c0,0.3,0.5,0.7,0.6,0.8c0.3,0.3,0.1,0.9,0.4,1.2c0.9,1.8,1,3.4,1.7,5.3v-0.1c0.3,1.4-0.1,0.9-0.2,2.6
		c0,0.3,0.3,0.6,0.6,0.7c0.4,0.3,0.5,1.4,0.6,2C371.6,367.2,372.1,368,372.5,368.9z"/>
	<line class="st4" x1="257.8" y1="390.8" x2="250.5" y2="390.8"/>
	<polygon points="275,209.4 277.3,209.3 276,211.2 276.8,213.4 274.6,212.7 272.8,214.2 272.7,211.9 270.8,210.6 273,209.8 
		273.6,207.6 	"/>
	<polygon points="276.8,222.3 279.1,222.1 277.8,224.1 278.7,226.2 276.4,225.6 274.6,227.1 274.6,224.7 272.6,223.5 274.8,222.7 
		275.4,220.4 	"/>
	<path d="M119.3,246.8l10.4,12.2l15.9-1.7l-8.4,13.7l4,8.9c0.7-0.2,1.4-0.5,2-0.7l-3.6-8.1l10.1-16.4l-19.1,2l-12.5-14.6l-4,18.8
		l-17.8,7.3l16.6,9.6l0.9,12.3c0.7-0.3,1.4-0.6,2.1-0.9l-1-12.8l-13.8-8l14.8-6.1L119.3,246.8z M122.9,286.6c1-0.4,2-0.8,3-1.2
		c0.9-0.3,1.8-0.7,2.7-1l0.2-0.2l0.2,0c0.5-0.2,1.1-0.4,1.6-0.6c0.7-0.3,1.4-0.5,2-0.8l-4.4-1.1L122.9,286.6z"/>
	<path class="st4" d="M104.3,391.9c-11.3-0.5-27.3-0.6-38.6-1.1c-5.2-0.2-10.3-0.9-15.5-1.1c-4.1-0.1-8.6-0.1-12.6,1"/>
	<path class="st4" d="M395.8,390c11.3,0,27.3,0.7,38.6,0.7c5.2,0,10.4-0.4,15.5-0.4c4.1,0,8.6,0.3,12.6,1.6"/>
</g>
</svg>
