<?xml version="1.0" encoding="utf-8"?>
<!-- Generator: Adobe Illustrator 23.0.2, SVG Export Plug-In . SVG Version: 6.00 Build 0)  -->
<svg version="1.1" id="Layer_1" xmlns="http://www.w3.org/2000/svg" xmlns:xlink="http://www.w3.org/1999/xlink" x="0px" y="0px"
	 viewBox="0 0 500 500" style="enable-background:new 0 0 500 500;" xml:space="preserve">
<style type="text/css">
	.st0{fill:url(#SVGID_1_);}
	.st1{fill:url(#SVGID_2_);}
	.st2{fill:url(#SVGID_3_);}
	.st3{fill:none;}
	.st4{fill:none;stroke:#000000;stroke-width:2.1539;stroke-miterlimit:10;}
	.st5{fill:none;stroke:#CC0000;stroke-width:2.1951;stroke-miterlimit:10;}
	.st6{font-family:'TimesNewRomanPSMT';}
	.st7{font-size:41.5683px;}
</style>
<linearGradient id="SVGID_1_" gradientUnits="userSpaceOnUse" x1="-15882" y1="-15073.3574" x2="-15382" y2="-15073.3574" gradientTransform="matrix(1 0 0 1 15882 15323.3574)">
	<stop  offset="0" style="stop-color:#696B6C"/>
	<stop  offset="1" style="stop-color:#F2F2F2"/>
</linearGradient>
<polygon class="st0" points="0,500 500,500 500,0 0,0 "/>
<g>
	<text transform="matrix(1 0 0 1 37.5 377.8083)" class="st6 st7">A RANGER &amp; A RABBI</text>
	<path d="M434.2,308.4c-7.3-4.6-15.9-14-26-28.1l-44.1-61.2c18-4,31.2-10.8,39.8-20.5c8.6-9.7,12.9-21.1,12.9-34.2
		c0-12.3-3.8-22.9-11.3-31.7c-7.5-8.9-16.6-15-27.4-18.3c-10.8-3.3-27.5-4.9-50.2-4.9H172.2c-22.7,0-39.4,1.7-50.2,4.9
		c-10.7,3.3-19.9,9.4-27.4,18.3c-7.5,8.9-11.3,19.5-11.3,31.7c0,13.1,4.2,24.5,12.8,34.2c8.6,9.6,21.8,16.5,39.8,20.5l-44.1,61.2
		c-10.1,14.1-18.8,23.4-26,28.1c-7.2,4.6-16.7,7.6-28.3,8.8v5.8h52.8c2.6,0,5.1-1.3,6.7-3.4l69.8-96.4c5.4,0.2,9.7,0.3,13.1,0.3
		c1.4,0,2.9,0,4.4-0.1c1.6-0.1,3.2-0.1,4.9-0.2v62c0,13.5-1.5,21.8-4.4,25c-4,4.6-10,7-18,7h-8.3v5.8h183.1v-5.8h-8.4
		c-8,0-14-2.3-18-7c-3-3.2-4.4-11.6-4.4-25v-62c1.7,0.1,3.3,0.1,4.9,0.2c1.5,0,3,0.1,4.4,0.1c3.4,0,7.7-0.1,13.1-0.3l69.9,96.4
		c1.5,2.1,4,3.4,6.7,3.4h52.8v-5.8C450.9,315.9,441.4,313,434.2,308.4z M189.2,213.2c-2,0-3.7,0-5.2,0.1c-1.4,0.1-2.6,0.1-3.6,0.1
		c-20.4,0-35.7-4.4-46.1-13.2c-10.3-8.8-15.5-20.1-15.5-33.7c0-13.4,4.1-24.2,12.5-32.6c8.3-8.3,19.4-12.5,33.2-12.5
		c6.1,0,14.3,1,24.7,3V213.2z M280.7,285.2c0,12.2-1.1,19.9-3.3,23.2c-3.9,5.8-10.4,8.8-19.4,8.8H242c-9,0-15.5-3-19.4-8.8
		c-2.2-3.2-3.3-11-3.3-23.2v-42.3c0.3,0.3,0.6,0.6,0.9,0.8c3.2,2.9,7.6,4.4,13.2,4.4c3.8,0,7.3-0.7,10.7-2.1c3.3-1.4,7.1-4,11.2-7.7
		c3.3,3.5,6.4,6.1,9.3,7.6c2.8,1.5,5.6,2.2,8.4,2.2c2.9,0,5.5-0.7,7.9-2.2V285.2z M243.4,222.2c1.7,2.8,4.8,7.2,9.2,13.2
		c-3.4,2.8-6.1,4.6-8,5.4c-2,0.8-4,1.3-6.1,1.3c-3.9,0-7-1.4-9.3-4.1c-2.3-2.7-3.5-5.9-3.5-9.5c0-3.2,1-6.3,3-9c2-2.8,5-5.3,9.1-7.6
		C239.8,216,241.7,219.4,243.4,222.2z M240.6,189.5c0-1.9,0.8-3.9,2.2-5.9c1.5-2,3.7-3,6.6-3c2.2,0,4.1,0.8,5.5,2.3
		c1.5,1.6,2.2,3.6,2.2,6c0,3.1-1,5.9-3.1,8.4c-2.1,2.5-5.2,4.7-9.3,6.7c-1.7-4-2.8-6.9-3.4-9C240.9,193,240.6,191.2,240.6,189.5z
		 M280.7,239.8c-1.1,0.4-2.2,0.6-3.5,0.6c-2.4,0-4.7-0.7-7.1-2.1c-2.3-1.4-5-3.8-8-7.3c3.7-4.6,7-9.6,9.9-14.9
		c2.9-5.3,5.1-8.5,6.5-9.6c0.6-0.4,1.3-0.8,2.1-1.1V239.8z M280.7,202.7H264v1.9c1.4,0.2,2.4,0.7,3.2,1.6c1,1.2,1.5,2.6,1.5,4.1
		c0,4.8-2.9,10.8-8.9,17.8c-4.6-6.3-9-13.2-13.3-20.8c6.2-3.2,10.5-6.1,12.9-8.8c2.4-2.7,3.6-5.8,3.6-9.3c0-3.5-1.2-6.4-3.8-8.7
		c-2.5-2.3-5.8-3.5-9.7-3.5c-4.2,0-7.9,1.2-11.2,3.5c-4.2,3-6.3,7.4-6.3,13.1c0,2,0.3,4.2,0.9,6.4c0.6,2.2,1.6,5.1,3.2,8.6
		c-8,4.3-13.5,8.5-16.4,12.5c-0.1,0.2-0.2,0.3-0.3,0.5v-74.3c0-13.4,1.5-21.8,4.4-25c4.1-4.6,10.2-7,18.3-7H258
		c8.1,0,14.2,2.3,18.3,7c2.9,3.2,4.4,11.6,4.4,25V202.7z M319.6,213.4c-0.9,0-2.2,0-3.6-0.1c-1.5,0-3.2-0.1-5.2-0.1v-88.8
		c10.4-2,18.6-3,24.7-3c13.8,0,24.8,4.1,33.2,12.5c8.3,8.4,12.5,19.2,12.5,32.6c0,13.7-5.2,24.9-15.5,33.7
		C355.4,209,340,213.4,319.6,213.4z"/>
</g>
</svg>
