<?xml version="1.0" encoding="utf-8"?>
<!-- Generator: Adobe Illustrator 23.0.2, SVG Export Plug-In . SVG Version: 6.00 Build 0)  -->
<svg version="1.1" id="Layer_1" xmlns="http://www.w3.org/2000/svg" xmlns:xlink="http://www.w3.org/1999/xlink" x="0px" y="0px"
	 viewBox="0 0 500 500" style="enable-background:new 0 0 500 500;" xml:space="preserve">
<style type="text/css">
	.st0{fill:url(#SVGID_1_);}
	.st1{fill:url(#SVGID_2_);}
	.st2{fill:url(#SVGID_3_);}
	.st3{fill:url(#SVGID_4_);}
	.st4{fill:url(#SVGID_5_);}
	.st5{fill:url(#SVGID_6_);}
	.st6{fill:none;}
	.st7{fill:none;stroke:#000000;stroke-width:2.1539;stroke-miterlimit:10;}
	.st8{fill:none;stroke:#CC0000;stroke-width:2.1951;stroke-miterlimit:10;}
	.st9{fill:#0C0C0C;}
	.st10{font-family:'Cochin';}
	.st11{font-size:52.3533px;}
	.st12{font-family:'Optima-Regular';}
	.st13{font-size:42.7398px;}
</style>
<linearGradient id="SVGID_1_" gradientUnits="userSpaceOnUse" x1="-15882" y1="-15073.3574" x2="-15382" y2="-15073.3574" gradientTransform="matrix(1 0 0 1 15882 15323.3574)">
	<stop  offset="0" style="stop-color:#696B6C"/>
	<stop  offset="1" style="stop-color:#F2F2F2"/>
</linearGradient>
<polygon class="st0" points="0,500 500,500 500,0 0,0 "/>
<g>
	<text transform="matrix(1 0 0 1 37.5 300.5062)"><tspan x="0" y="0" class="st10 st11">RINA SHACHOR</tspan><tspan x="75.5" y="51.3" class="st12 st13">Interior Design</tspan></text>
	<path d="M319,201.1c-1.7-3.3-3.9-6.3-6.7-8.8c-2.8-2.5-6-4.7-9.5-6.5c-3.6-1.8-7.2-3.5-10.9-5.1c-3.7-1.6-7.3-3.1-10.9-4.6
		c-3.6-1.5-6.7-3.2-9.5-5c-2.8-1.8-5-3.9-6.7-6.3c-1.7-2.4-2.5-5.2-2.5-8.4c0-5.5,1.8-9.3,5.6-11.4c3.7-2.1,8.4-3.2,14.2-3.2
		c4,0,7.6,0.8,11,2.3c3.3,1.5,6.4,3.5,9.1,6c2.7,2.5,5.1,5.3,7.2,8.5c2.1,3.2,3.8,6.4,5.1,9.7h2.1c-0.5-4.4-0.8-8.7-1-13
		c-0.2-4.3-0.2-8.7-0.2-13.3c-3.2,0-6.3-0.3-9.1-0.8c-2.8-0.6-5.7-1.1-8.7-1.7c-2.8-0.6-5.8-1.2-8.7-1.7c-3-0.5-6.4-0.8-10.1-0.8
		c-3.9,0-7.5,0.6-10.9,1.8c-3.4,1.2-6.4,3-9,5.2c-1.8,1.6-3.3,3.4-4.6,5.4c-1.5-1.5-3.1-2.8-4.8-4c-3.6-2.4-7.8-4.2-12.3-5.3
		c-4.6-1.1-9-1.7-13.4-1.7c-1.9,0-4.1,0.1-6.5,0.2c-2.4,0.2-4.8,0.3-7.2,0.5c-2.4,0.2-4.6,0.4-6.8,0.5c-2.1,0.2-3.9,0.2-5.3,0.2
		c-3.2,0-6.5-0.1-9.7-0.2c-3.2-0.1-6.5-0.3-9.7-0.5v1.8c3.7,0.3,6.5,0.9,8.5,1.7c2,0.8,3.6,2.1,4.6,3.8c1.1,1.7,1.7,4,2,6.8
		c0.3,2.8,0.4,6.3,0.4,10.6v50.8c0,4.3-0.1,7.8-0.4,10.6c-0.3,2.8-0.9,5-2,6.8c-1.1,1.7-2.6,3-4.6,3.8c-2,0.8-4.9,1.4-8.5,1.7v1.8
		c3.7-0.2,7.3-0.4,11-0.5c3.6-0.1,7.3-0.2,11.1-0.2c3.9,0,7.7,0,11.6,0.2c3.9,0.1,7.7,0.3,11.6,0.5v-1.8c-3.8-0.3-6.7-0.9-8.8-1.7
		c-2.1-0.8-3.7-2.1-4.8-3.8c-1.1-1.7-1.7-4-2-6.8c-0.3-2.8-0.4-6.3-0.4-10.6v-23.7c1,0.3,2.3,0.6,3.9,1c1.6,0.4,3.2,0.7,4.9,0.9
		c1.7,0.3,3.3,0.5,4.9,0.7c1.6,0.2,2.9,0.3,3.9,0.3c4.3,8.2,9.1,16,14.5,23.3c1.9,2.5,5.8,8.5,11,12.7c2.7,2.2,9.7,6.5,17.1,8.8
		c8.9,2.7,18.3,3,19.7,3c4.7,0,9-0.6,13.2-1.7c4.1-1.1,7.7-2.8,10.8-5.2c3.1-2.3,5.6-5.3,7.4-8.9c1.8-3.6,2.7-7.9,2.7-12.9
		C321.5,208.4,320.7,204.4,319,201.1z M221.8,188.3c-4.9,0-9.6-0.9-14.1-2.6v-10.3c0-5.8,0.1-11.2,0.2-16.1c0.1-5,0.3-9.9,0.5-14.8
		c2.3-0.7,4.7-1.2,7.1-1.4c2.4-0.2,4.9-0.3,7.5-0.3c3.1,0,6.2,0.5,9,1.6c2.9,1.1,5.4,2.6,7.7,4.6c2.2,2,4,4.3,5.2,7
		c1.3,2.7,1.9,5.7,1.9,9c0,8.2-2.2,14.1-6.5,17.8C235.9,186.5,229.7,188.3,221.8,188.3z M307.8,227c-1.2,2.3-2.9,4.1-4.9,5.5
		c-2.1,1.4-4.5,2.5-7.2,3.1c-5.4,1.3-11.3,1.5-16.6-0.3c-8.3-2.8-15.9-9.6-21.6-16.2c-2.7-3.1-5.2-6.2-7.6-9.4
		c-1.2-1.6-2.4-3.2-3.5-4.7c-1.1-1.5-2.1-3-3-4.5c-1.9-3-3.6-5.8-5-8.2c3.1-0.6,6.2-1.6,9-2.9c2.9-1.3,5.4-3,7.5-5
		c1.5-1.4,2.7-3,3.8-4.7c2.1,1.9,4.5,3.5,7.1,5.1c4.4,2.5,9.1,4.8,14.2,6.8c5.1,2,9.9,4.2,14.2,6.6c4.4,2.4,8,5.2,10.9,8.3
		c2.9,3.2,4.4,7.2,4.4,11.9C309.7,221.9,309.1,224.8,307.8,227z"/>
</g>
</svg>
