<?xml version="1.0" encoding="utf-8"?>
<!-- Generator: Adobe Illustrator 23.0.2, SVG Export Plug-In . SVG Version: 6.00 Build 0)  -->
<svg version="1.1" id="Layer_1" xmlns="http://www.w3.org/2000/svg" xmlns:xlink="http://www.w3.org/1999/xlink" x="0px" y="0px"
	 viewBox="0 0 500 500" style="enable-background:new 0 0 500 500;" xml:space="preserve">
<style type="text/css">
	.st0{fill:url(#SVGID_1_);}
	.st1{fill:#FFFFFF;}
	.st2{fill:url(#SVGID_2_);}
	.st3{fill:url(#SVGID_3_);}
	.st4{fill:url(#SVGID_4_);}
	.st5{fill:url(#SVGID_5_);}
	.st6{fill:url(#SVGID_6_);}
	.st7{fill:none;}
	.st8{fill:none;stroke:#000000;stroke-width:2.1539;stroke-miterlimit:10;}
	.st9{fill:none;stroke:#CC0000;stroke-width:2.1951;stroke-miterlimit:10;}
	.st10{fill:#0C0C0C;}
</style>
<linearGradient id="SVGID_1_" gradientUnits="userSpaceOnUse" x1="-15882" y1="-15073.3574" x2="-15382" y2="-15073.3574" gradientTransform="matrix(1 0 0 1 15882 15323.3574)">
	<stop  offset="0" style="stop-color:#696B6C"/>
	<stop  offset="1" style="stop-color:#F2F2F2"/>
</linearGradient>
<polygon class="st0" points="0,500 500,500 500,0 0,0 "/>
<path d="M110.1,431.3V451h279.3v-19.7H110.1z M185.5,446.1c-0.2,0.5-0.4,0.9-0.7,1.2c-0.3,0.3-0.7,0.6-1.1,0.8
	c-0.4,0.2-0.9,0.3-1.3,0.3c-0.7,0-1.3-0.1-1.9-0.5c-0.6-0.3-1-0.7-1.4-1.2l0.8-0.9c0.3,0.4,0.7,0.8,1.1,1c0.4,0.2,0.9,0.4,1.4,0.4
	c0.6,0,1.1-0.2,1.5-0.7c0.4-0.4,0.6-1,0.6-1.9c0-0.4-0.1-0.7-0.2-1c-0.1-0.3-0.3-0.6-0.5-0.8c-0.2-0.2-0.5-0.4-0.7-0.6
	c-0.3-0.2-0.6-0.4-0.9-0.5c-0.4-0.2-0.7-0.4-1.1-0.6c-0.3-0.2-0.6-0.5-0.9-0.8c-0.2-0.3-0.4-0.6-0.6-1c-0.2-0.4-0.2-0.9-0.2-1.4
	c0-0.6,0.1-1.2,0.3-1.6c0.2-0.5,0.5-0.9,0.8-1.2c0.3-0.3,0.7-0.5,1.1-0.7c0.4-0.2,0.8-0.2,1.3-0.2c0.6,0,1.2,0.1,1.7,0.3
	c0.5,0.2,0.9,0.5,1.2,1l-0.8,0.9c-0.3-0.4-0.6-0.6-0.9-0.8c-0.3-0.2-0.7-0.2-1.1-0.2c-0.3,0-0.5,0-0.8,0.1c-0.3,0.1-0.5,0.2-0.7,0.4
	c-0.2,0.2-0.4,0.5-0.5,0.8c-0.1,0.3-0.2,0.7-0.2,1.1c0,0.4,0.1,0.7,0.2,1c0.1,0.3,0.3,0.5,0.5,0.8c0.2,0.2,0.4,0.4,0.7,0.6
	c0.3,0.2,0.5,0.3,0.8,0.5c0.4,0.2,0.7,0.4,1.1,0.6c0.3,0.2,0.7,0.5,1,0.8c0.3,0.3,0.5,0.7,0.7,1.1c0.2,0.4,0.2,0.9,0.2,1.4
	C185.7,445.1,185.7,445.6,185.5,446.1z M189.3,447.8c-0.2,0.2-0.4,0.3-0.7,0.3c-0.2,0-0.5-0.1-0.6-0.3c-0.2-0.2-0.2-0.4-0.2-0.7
	c0-0.2,0.1-0.5,0.2-0.7c0.2-0.2,0.4-0.3,0.6-0.3c0.3,0,0.5,0.1,0.7,0.3s0.3,0.4,0.3,0.7C189.6,447.4,189.5,447.6,189.3,447.8z
	 M199.4,444.2c0,1.3-0.2,2.3-0.7,3c-0.5,0.7-1.2,1.1-2.3,1.1c-0.8,0-1.4-0.2-1.9-0.6c-0.5-0.4-0.8-1-1-1.7l1.2-0.5
	c0.1,0.4,0.3,0.8,0.6,1.1c0.3,0.3,0.7,0.5,1.1,0.5c0.7,0,1.1-0.3,1.3-0.8c0.2-0.5,0.4-1.3,0.4-2.2v-9.7h1.3V444.2z M203.6,447.8
	c-0.2,0.2-0.4,0.3-0.6,0.3c-0.3,0-0.5-0.1-0.6-0.3c-0.2-0.2-0.2-0.4-0.2-0.7c0-0.2,0.1-0.5,0.2-0.7c0.2-0.2,0.4-0.3,0.6-0.3
	c0.3,0,0.5,0.1,0.6,0.3c0.2,0.2,0.3,0.4,0.3,0.7C203.8,447.4,203.7,447.6,203.6,447.8z M215.2,448h-5.7v-13.6h5.5v1.2h-4.2v4.8h3.9
	v1.1h-3.9v5.3h4.4V448z M225,448h-1.6l-1.8-8.6h0l-1.8,8.6h-1.6l-2.2-10.6h1.4l1.6,9h0l1.8-9h1.3l1.8,9h0l1.7-9h1.4L225,448z
	 M230.3,448H229v-10.6h1.3V448z M239.6,448H238l-3.4-8.4h0v8.4h-1.3v-10.6h1.6l3.4,8.5h0v-8.5h1.2V448z M248.5,447.3
	c-0.3,0.3-0.7,0.5-1.1,0.7c-0.4,0.2-0.9,0.3-1.5,0.3c-0.6,0-1.2-0.1-1.7-0.4c-0.5-0.3-0.9-0.6-1.2-1.1c-0.3-0.5-0.6-1.1-0.8-1.8
	c-0.2-0.7-0.3-1.4-0.3-2.3c0-0.8,0.1-1.5,0.2-2.2c0.2-0.7,0.4-1.3,0.7-1.8c0.3-0.5,0.7-0.9,1.2-1.2c0.5-0.3,1-0.4,1.6-0.4
	c0.5,0,1,0.1,1.5,0.3c0.4,0.2,0.8,0.6,1.2,1.1l-0.9,0.9c-0.3-0.4-0.5-0.7-0.8-0.9s-0.6-0.2-0.9-0.2c-0.4,0-0.8,0.1-1.1,0.3
	c-0.3,0.2-0.6,0.5-0.8,0.9s-0.4,0.9-0.5,1.4c-0.1,0.5-0.2,1.1-0.2,1.7c0,0.7,0.1,1.3,0.2,1.8c0.1,0.5,0.3,1,0.5,1.4
	c0.2,0.4,0.5,0.7,0.8,0.9c0.3,0.2,0.7,0.3,1.1,0.3c0.6,0,1-0.1,1.3-0.4v-3.4h-1.5v-1.1h2.8V447.3z M259.8,448l-0.9-1.3
	c-0.2,0.4-0.5,0.8-0.9,1.1c-0.4,0.3-0.9,0.5-1.5,0.5c-0.8,0-1.4-0.3-1.9-0.8c-0.5-0.5-0.7-1.3-0.7-2.3c0-0.7,0.2-1.3,0.5-1.8
	c0.3-0.5,0.8-0.9,1.3-1.2c-0.3-0.5-0.5-0.9-0.7-1.2c-0.1-0.4-0.2-0.8-0.2-1.2c0-0.8,0.2-1.4,0.6-1.8c0.4-0.5,0.9-0.7,1.6-0.7
	s1.2,0.2,1.6,0.6c0.4,0.4,0.6,1,0.6,1.7c0,0.3-0.1,0.7-0.2,0.9c-0.1,0.3-0.2,0.5-0.4,0.8c-0.2,0.2-0.4,0.5-0.6,0.6
	c-0.2,0.2-0.5,0.4-0.7,0.5l1.5,2.2l0.9-2.3h1.3l-1.4,3.3l1.7,2.4H259.8z M274.1,444.1c-0.2,0.8-0.6,1.5-1,2.1c-0.4,0.6-1,1-1.6,1.3
	c-0.6,0.3-1.3,0.4-2,0.4h-2.9v-13.6h2.9c0.7,0,1.4,0.2,2,0.4c0.6,0.3,1.1,0.7,1.6,1.3c0.4,0.6,0.8,1.3,1,2.1c0.2,0.9,0.3,1.8,0.3,3
	C274.4,442.3,274.3,443.3,274.1,444.1z M281.2,448l-0.6-2.5h-3.1l-0.6,2.5h-1.3l2.7-10.6h1.7l2.6,10.6H281.2z M290.5,448h-1.6
	l-3.4-8.4h-0.1v8.4h-1.3v-10.6h1.7l3.4,8.5h0v-8.5h1.2V448z M296.7,448.2c-0.6,0-1.1-0.2-1.6-0.4c-0.5-0.3-0.9-0.7-1.2-1.2
	s-0.6-1.1-0.7-1.8c-0.2-0.7-0.2-1.4-0.2-2.2c0-0.8,0.1-1.5,0.2-2.2c0.2-0.7,0.4-1.3,0.7-1.8s0.7-0.9,1.2-1.2c0.5-0.3,1-0.4,1.6-0.4
	c0.5,0,1,0.1,1.5,0.3c0.5,0.2,0.8,0.6,1.2,1.1l-0.8,0.9c-0.3-0.4-0.5-0.7-0.8-0.8c-0.3-0.2-0.6-0.2-0.9-0.2c-0.4,0-0.8,0.1-1.1,0.3
	c-0.3,0.2-0.5,0.5-0.8,0.9c-0.2,0.4-0.4,0.9-0.5,1.4c-0.1,0.5-0.2,1.1-0.2,1.7c0,0.6,0.1,1.2,0.2,1.7c0.1,0.5,0.3,1,0.5,1.4
	c0.2,0.4,0.5,0.7,0.8,0.9c0.3,0.2,0.7,0.3,1.1,0.3c0.3,0,0.7-0.1,1-0.3c0.3-0.2,0.6-0.5,0.8-0.9l0.8,0.8
	C298.7,447.7,297.8,448.2,296.7,448.2z M305.8,448h-4.7v-10.6h4.5v1.1h-3.3v3.4h3.1v1.1h-3.1v3.8h3.4V448z M312.5,448l-2-4.8h-1.2
	v4.8h-1.3v-10.6h2.7c0.4,0,0.7,0,1,0.1c0.3,0.1,0.7,0.3,0.9,0.5c0.3,0.2,0.5,0.5,0.6,0.9c0.2,0.4,0.2,0.8,0.2,1.3
	c0,0.4,0,0.8-0.2,1.1c-0.1,0.3-0.3,0.6-0.4,0.8c-0.2,0.2-0.4,0.4-0.6,0.5c-0.2,0.1-0.4,0.2-0.6,0.3l2.1,5H312.5z M317.2,441.3
	c0.3,0.3,0.7,0.5,1.1,0.8c0.3,0.1,0.6,0.3,0.8,0.5c0.3,0.2,0.5,0.4,0.7,0.6c0.2,0.2,0.4,0.5,0.5,0.8c0.1,0.3,0.2,0.7,0.2,1.1
	c0,0.5-0.1,0.9-0.2,1.2s-0.3,0.7-0.6,1c-0.2,0.3-0.5,0.5-0.9,0.6c-0.3,0.1-0.7,0.2-1.1,0.2c-0.5,0-1-0.1-1.5-0.3
	c-0.5-0.2-0.9-0.6-1.2-1l0.8-0.9c0.3,0.4,0.6,0.6,0.9,0.8c0.3,0.2,0.7,0.3,1,0.3c0.4,0,0.8-0.2,1.1-0.5c0.3-0.3,0.5-0.8,0.5-1.3
	c0-0.3,0-0.5-0.1-0.7c-0.1-0.2-0.2-0.4-0.4-0.5c-0.2-0.2-0.3-0.3-0.5-0.4c-0.2-0.1-0.4-0.2-0.6-0.4c-0.3-0.1-0.5-0.3-0.8-0.5
	c-0.3-0.2-0.5-0.3-0.7-0.6c-0.2-0.2-0.4-0.5-0.5-0.8c-0.1-0.3-0.2-0.7-0.2-1.1c0-0.5,0.1-0.9,0.2-1.3c0.2-0.4,0.4-0.7,0.6-0.9
	c0.3-0.2,0.6-0.4,0.9-0.5c0.3-0.1,0.7-0.2,1-0.2c0.5,0,0.9,0.1,1.3,0.2c0.4,0.2,0.8,0.5,1,0.9l-0.8,0.9c-0.2-0.3-0.5-0.5-0.7-0.7
	c-0.2-0.1-0.5-0.2-0.8-0.2c-0.4,0-0.7,0.1-1.1,0.4c-0.3,0.3-0.5,0.7-0.5,1.4C316.7,440.6,316.9,441,317.2,441.3z"/>
<g>
	<path d="M258.2,445.7c-0.1,0.4-0.3,0.7-0.6,1s-0.6,0.4-0.9,0.4c-0.4,0-0.8-0.2-1.1-0.5c-0.3-0.4-0.4-0.9-0.4-1.5
		c0-0.5,0.1-0.9,0.4-1.3c0.2-0.3,0.5-0.6,0.8-0.8L258.2,445.7z"/>
	<path d="M258.1,439.6c0,0.5-0.1,0.8-0.4,1.1c-0.2,0.3-0.5,0.6-0.9,0.9c-0.2-0.3-0.4-0.6-0.5-0.9c-0.1-0.3-0.2-0.6-0.2-1
		c0-0.5,0.1-0.8,0.3-1.1c0.2-0.3,0.4-0.4,0.7-0.4s0.5,0.1,0.7,0.4C258,438.8,258.1,439.1,258.1,439.6z"/>
	<path d="M273.1,441.2c0,1-0.1,1.8-0.3,2.5c-0.2,0.7-0.4,1.3-0.8,1.8c-0.3,0.5-0.7,0.8-1.2,1c-0.4,0.2-0.9,0.4-1.4,0.4h-1.6v-11.3
		h1.6c0.5,0,1,0.1,1.4,0.3c0.5,0.2,0.8,0.6,1.2,1c0.3,0.5,0.6,1,0.8,1.8C273,439.4,273.1,440.2,273.1,441.2z"/>
	<polygon points="280.4,444.4 277.7,444.4 279.1,438.7 279.1,438.7 	"/>
	<path d="M312.4,440.3c0,0.6-0.2,1.1-0.5,1.4c-0.3,0.3-0.7,0.5-1.3,0.5h-1.3v-3.6h1.2c0.2,0,0.4,0,0.7,0.1s0.4,0.2,0.6,0.3
		c0.2,0.1,0.3,0.3,0.4,0.5C312.3,439.7,312.4,439.9,312.4,440.3z"/>
</g>
<path class="st10" d="M148.7,420.4l-17.9-71.3v-13.9h15.9v-48.6h-20.4v133.8h-16.2V266.9h43c6.4,0,9.8,5,9.8,14.1v55.8
	c0,9-3.4,13.9-9.6,14.1h-5.5l17.9,68.7v0.8H148.7z"/>
<path class="st10" d="M84,256.5V451H67.8V256.5H50.1v-19.7h51.8v19.7H84z"/>
<g>
	<rect x="121.4" y="132" class="st10" width="14.4" height="57.5"/>
	<rect x="137.7" y="132" class="st10" width="14.4" height="57.5"/>
	<rect x="234.5" y="132" class="st10" width="14.4" height="57.5"/>
	<rect x="250.8" y="132" class="st10" width="14.4" height="57.5"/>
	<rect x="364.1" y="132" class="st10" width="14.4" height="57.5"/>
	<path class="st10" d="M400.3,130.6h10.2v-11.1h-31.1v-16.7h-73.5l-72-48.1c-0.9-0.5-1.9-0.9-3-0.9c-0.1,0-32.2,0-40.2,0
		c-0.8-1.2-1.8-2.3-3.3-2.7c-0.2-0.1-0.5,0-0.7,0c-2.3,0.8-4.7,1.6-7,2.4c-1,0.3-1.7,1-2.2,1.9c-1.6,2.8-2.9,5.7-3.9,8.7
		c-0.2,0.7-0.5,1.4-0.9,1.9c-1,1.3-1.2,2.8-1,4.4c0.2,1.5,0.5,2.9,0.7,4.3c-1.7,0.6-3.3,1.2-5,1.8c-0.3,0.1-0.6,0.2-0.7,0.5
		c-0.6,1.4-0.7,1.3-0.9,2.4c-0.1,0.4-0.2,2.6,0.3,2.6c0.9,0,1.4-1.2,1.5-1.5c0.2-0.6,0.1-1.4,0.2-2.1c0.1-0.3,0.3-0.7,0.5-0.7
		c1.3-0.1,2.7-0.2,4.1-0.2c0.2,0,0.5,0.6,0.6,0.9c0.1,0.2-0.2,0.6-0.4,0.7c-3.2,1.3-5.6,3.7-7.9,6.1c-0.4,0.4-0.7,0.9-1,1.4
		c-0.1,0.2-0.2,0.6-0.1,0.8c0.1,0.2,0.5,0.2,0.8,0.1c0.6,0,1.2-0.2,1.7-0.1c1.8,0.2,3.7,0.3,5.5-0.2c0.5-0.1,1-0.2,1.6-0.4
		c0.1,0.3,0.2,0.5,0.2,0.7c0.8,2.5,1.5,5,2.4,7.5c0.4,1,0.4,1.9,0.3,2.9c-0.2,1.8-0.5,3.6-0.6,5.4c-0.2,2.6,0.1,5.3-0.9,7.8
		c-0.9,2.1-1,4.3-0.9,6.5c0,0.5,0.1,1.1,0.3,1.6H89.1v8.3c0,1.5,1.3,2.8,2.8,2.8h11.3v35.9H89.1v35.3h70.2c0,0.1,0,0.2,0,0.3
		c0,11.4,9.3,20.7,20.7,20.7c11.4,0,20.7-9.3,20.7-20.7c0-0.1,0-0.2,0-0.3h116.1c0,0.1,0,0.2,0,0.3c0,11.4,9.3,20.7,20.7,20.7
		c11.4,0,20.7-9.3,20.7-20.7c0-0.1,0-0.2,0-0.3h52.2v-27.5h-14.2v-39.7C396.3,132.4,398.1,130.6,400.3,130.6z M157.1,195.8h-40.7
		v-70.1h40.7V195.8z M179.8,56.8c0.4-0.6,0.8-1.2,1.4-1.6c1.6-0.9,3.3-1.8,4.9-2.6c0.6-0.3,1-0.1,1.3,0.4c0.3,0.4,0.7,0.8,1,1.1
		c0.1-0.1,0.1-0.1,0.2-0.2c0-0.2,0-0.3,0.1-0.7c0.1,0.1,0.2,0.2,0.3,0.3c-0.1,0-0.2,0-0.2,0v11.9H227c1.2,0,2.4,0.4,3.4,1
		c0,0,30.9,20.7,54.1,36.2h-39.3c-1,0-1.8,0.8-1.8,1.8v9c0,3.3-2.6,5.9-5.9,5.9H182v0c0-0.6,0-1.2,0-1.8c0-1.3-0.1-2.5,1-3.5
		c0.6-0.5,0.4-1.3-0.2-1.7c-1.1-0.6-1.1-1.5-1.1-2.6c0.1-4.1,0.4-8.3-1.2-12.3c-0.1-0.3-0.1-0.7-0.1-1c0.7-3.4,1.4-6.8,2.1-10.2
		c0.1-0.5,0.3-0.6,0.8-0.6c1.6-0.1,3.2-0.2,4.8-0.4c1.2-0.1,2.5-0.3,3.7-0.6c0.4-0.1,0.9-0.4,1.1-0.7c0.1-0.3-0.1-0.9-0.4-1.1
		c-1.3-1-2.6-2-4-2.9c-1.9-1.2-3.9-2.3-6.1-2.7c-1.5-0.3-2.6-1.7-2.4-3.2c0-0.4,0.3-0.8,0.6-1.1c0.6-0.7,1.4-1.2,2-1.8
		c1.3-1.3,1.2-2.3,0-3.7c-0.4-0.5-0.8-1.1-1-1.7c-0.3-0.9,0.2-1.6,1.1-1.8c1.8-0.3,2.8-1.6,3.8-2.9c0.2-0.3,0.2-1,0.1-1.4
		c-0.4-1.3-1.8-2.3-3.1-2.2c-1.9,0.2-3.3,1.2-3.4,2.8c-0.1,1.5-1.2,2.2-2.1,3.1C177.5,60.8,178.5,58.7,179.8,56.8z M176.7,113.8
		c0.1-2.8,1-5.4,2-8.1c0,0.3,0.1,0.6,0.1,0.9c0.1,1.9,0.2,3.9,0.2,5.9c0,2.4,0.5,4.7,1.2,7h-3.6
		C176.6,117.6,176.6,115.7,176.7,113.8z M180,212.1c-5.6,0-10.1-4.5-10.1-10.1c0-0.1,0-0.2,0-0.3h20.2c0,0.1,0,0.2,0,0.3
		C190.1,207.6,185.6,212.1,180,212.1z M216.6,154.9H170v-21c0-1.8,1.5-3.3,3.3-3.3h39.9c1.8,0,3.3,1.5,3.3,3.3V154.9z M270.2,195.8
		h-40.7v-70.1h40.7V195.8z M283,154.9v-21c0-1.8,1.5-3.3,3.3-3.3h39.9c1.8,0,3.3,1.5,3.3,3.3v21H283z M337.5,212.1
		c-5.6,0-10.1-4.5-10.1-10.1c0-0.1,0-0.2,0-0.3h20.2c0,0.1,0,0.2,0,0.3C347.6,207.6,343.1,212.1,337.5,212.1z M383.5,195.8h-40.7
		v-70.1h40.7V195.8z"/>
	<rect x="364.1" y="132" class="st10" width="14.4" height="57.5"/>
	<rect x="234.5" y="132" class="st10" width="14.4" height="57.5"/>
	<rect x="250.8" y="132" class="st10" width="14.4" height="57.5"/>
	<rect x="121.4" y="132" class="st10" width="14.4" height="57.5"/>
	<rect x="137.7" y="132" class="st10" width="14.4" height="57.5"/>
	<g>
		<rect x="121.4" y="132" class="st10" width="14.4" height="57.5"/>
		<rect x="137.7" y="132" class="st10" width="14.4" height="57.5"/>
	</g>
	<g>
		<rect x="234.5" y="132" class="st10" width="14.4" height="57.5"/>
		<rect x="250.8" y="132" class="st10" width="14.4" height="57.5"/>
	</g>
	<g>
		<rect x="347.8" y="132" class="st10" width="14.4" height="57.5"/>
		<rect x="364.1" y="132" class="st10" width="14.4" height="57.5"/>
	</g>
</g>
<path class="st10" d="M215.1,420.4l-3.3-29.1h-20.3l-3.3,29.1h-16V420l21-153.3h17L231.1,420v0.4H215.1z M201.6,302.3l-7.9,69.3
	h15.9L201.6,302.3z"/>
<path class="st10" d="M280.9,420.4l-26-96.6c0,0,1,7,1,11v85.6h-15.7V266.9h14.2l26,94.6c0,0-1-7-1-11v-83.6h15.7v153.5H280.9z"/>
<path class="st10" d="M350.3,420.4h-32.6c-6.2,0-9.8-5-9.8-14.1v-36.6h16.2v31.3h19.9V371l-32.5-43.6c-2.7-3.4-3.5-6.4-3.5-12.3V281
	c0-9,3.5-14.1,9.8-14.1h32.6c6.2,0,9.8,5,9.8,13.9v34.4h-16.2v-28.9h-19.9v27.7l32.5,43.4c2.7,3.6,3.5,6.6,3.5,12.5v36.6
	C360.1,415.4,356.5,420.4,350.3,420.4z"/>
<path class="st10" d="M373.3,420.4V266.9h16.2v153.5H373.3z"/>
<path class="st10" d="M432,256.5V451h-16.2V256.5h-17.7v-19.7h51.8v19.7H432z"/>
<rect x="110.1" y="236.9" class="st10" width="279.3" height="19.7"/>
</svg>
